<svg width="1465" height="1428" viewBox="0 0 1465 1428" fill="none" xmlns="http://www.w3.org/2000/svg">
<path fill-rule="evenodd" clip-rule="evenodd" d="M883.726 969L1035 713.953L883.726 459H581.274L430 713.953L581.274 969H883.726Z" fill="#C6EAFA"/>
<path fill-rule="evenodd" clip-rule="evenodd" d="M91.9304 1060C34.4333 958.987 2.95466 845.882 0.198098 730.4C-2.55847 614.918 23.4893 500.509 76.1044 397L418 599.568L392.814 650.727L375.348 621.197L296.315 667.56L415.588 836.837L91.9304 1060Z" fill="#00A3E4"/>
<path fill-rule="evenodd" clip-rule="evenodd" d="M720 1428C601.531 1425.95 485.337 1395.91 381.365 1340.46C277.393 1285.02 188.742 1205.81 123 1109.62L474.08 922L507.172 969.07H471.958L473.887 1058.97L684.111 1042.97L720 1428Z" fill="#1C4D87"/>
<path fill-rule="evenodd" clip-rule="evenodd" d="M1361 1080.66C1299.99 1179.85 1215.14 1263.12 1113.75 1323.27C1012.36 1383.43 897.483 1418.69 779 1426L787.985 1035.78L845.953 1031.26L828.466 1061.18L909.235 1104.66L1000.44 919L1361 1080.66Z" fill="#1C4D87"/>
<path fill-rule="evenodd" clip-rule="evenodd" d="M1373.1 367C1430.63 468.173 1462.1 581.465 1464.81 697.131C1467.52 812.796 1441.38 927.372 1388.64 1031L1047 828.213L1071.9 776.622L1089.66 806.56L1168.5 760.147L1049.51 590.122L1373.1 367Z" fill="#91D8F6"/>
<path fill-rule="evenodd" clip-rule="evenodd" d="M745 0C863.675 1.86972 980.106 31.7824 1084.28 87.1643C1188.44 142.546 1277.23 221.739 1343 317.928L991.809 505L958.689 457.997H993.933L992.098 368.127L781.596 383.92L745 0Z" fill="#91D8F6"/>
<path fill-rule="evenodd" clip-rule="evenodd" d="M105 346.279C165.954 247.119 250.675 163.888 351.879 103.744C453.084 43.5994 567.744 8.34091 686 1L676.354 391.087L618.475 395.699L635.935 366.047L555.581 322.558L464.712 508L105 346.279Z" fill="#00A3E4"/>
</svg>
