<svg width="802" height="736" viewBox="0 0 802 736" fill="none" xmlns="http://www.w3.org/2000/svg">
<path fill-rule="evenodd" clip-rule="evenodd" d="M683.04 480.107C663.456 521.385 635.819 558.428 602.37 589.112C620.848 577.966 637.728 564.173 652.387 548.331L670.87 597.012L637.452 627.645L603.993 658.345L547.36 630.641C495.612 662.318 435.647 680.755 372.973 680.755C392.88 685.225 413.575 686.484 434.306 684.672L411.522 735.242H368.124H324.748L308.011 673.869C249.141 661.059 198.181 631.014 160.073 589.117C169.658 606.628 182.053 622.29 196.743 635.551L146.034 658.35L118.094 627.651L90.1392 597.018L123.173 537.841C113.102 519.787 104.915 500.48 98.9251 480.113H210.475C242.567 540.385 305.794 580.454 382 580.454C410.313 580.454 437.797 574.935 463.392 564.895C440.859 578.033 415.95 587.126 389.582 591.539C323.55 602.537 256.14 582.507 206.855 537.19C258.162 589.563 331.624 613.975 404.041 602.537C476.387 591.181 538.769 545.572 571.537 480.118H683.04V480.107ZM493.974 62.1414C552.875 74.9517 603.819 104.965 641.927 146.811H641.952C632.327 129.326 619.972 113.679 605.283 100.454L656.007 77.6448L683.921 108.344L711.861 138.972L678.857 198.159C688.995 216.253 697.156 235.689 703.162 256.108H591.669C559.633 195.727 496.324 155.489 420.036 155.489C391.707 155.489 364.223 161.055 338.603 171.105C361.136 157.967 386.091 148.797 412.453 144.435C478.476 133.453 545.87 153.492 595.155 198.81C543.863 146.386 470.427 122.04 397.984 133.396C325.531 144.835 263.088 190.536 230.35 256.108H118.878C138.451 214.774 166.156 177.623 199.671 146.816C181.178 158.029 164.287 171.837 149.623 187.663L131.155 138.977L164.589 108.349L198.007 77.6499L254.665 105.375C306.398 73.6973 366.379 55.2448 429.011 55.2448C409.151 50.7904 388.441 49.449 367.679 51.3331L390.489 0.773132H433.896H477.288L493.974 62.1414Z" fill="url(#paint0_linear_44_2)"/>
<path fill-rule="evenodd" clip-rule="evenodd" d="M224.862 247.112C259.57 181.535 323.13 136.064 396.581 124.529C459.906 114.591 524.628 131.205 575.188 169.272C508.556 114.637 421.326 91.7965 336.452 106.737C251.547 121.692 177.435 172.928 133.459 247.112H224.862Z" fill="url(#paint1_linear_44_2)"/>
<path fill-rule="evenodd" clip-rule="evenodd" d="M577.01 489.098C542.332 554.496 478.788 599.936 405.444 611.477C339.324 621.865 271.669 603.244 220.197 561.526C286.025 619.909 374.611 645.693 461.467 631.613C548.333 617.6 624.314 565.274 668.428 489.098H577.01Z" fill="url(#paint2_linear_44_2)"/>
<path d="M272.185 486.109C272.293 486.109 272.375 486.15 272.429 486.231C272.484 486.313 272.511 486.394 272.511 486.476L271.818 490.427C271.764 490.672 271.614 490.794 271.37 490.794H262.856C262.611 490.794 262.462 490.916 262.407 491.161L261.308 497.271C261.308 497.38 261.335 497.475 261.389 497.557C261.443 497.611 261.525 497.638 261.633 497.638H267.867C267.975 497.638 268.057 497.679 268.111 497.76C268.192 497.842 268.22 497.923 268.192 498.005L267.5 501.956C267.446 502.201 267.296 502.323 267.052 502.323H260.819C260.574 502.323 260.425 502.445 260.371 502.69L259.23 509.126C259.203 509.235 259.216 509.33 259.271 509.412C259.352 509.466 259.447 509.493 259.556 509.493H268.07C268.179 509.493 268.26 509.534 268.315 509.615C268.369 509.697 268.383 509.778 268.355 509.86L267.663 513.811C267.636 514.056 267.5 514.178 267.255 514.178H254.056C253.947 514.178 253.866 514.137 253.812 514.056C253.73 513.974 253.703 513.893 253.73 513.811L258.537 486.476C258.592 486.258 258.741 486.136 258.985 486.109H272.185ZM282.367 486.109C284.268 486.109 285.776 486.802 286.889 488.187C288.03 489.545 288.437 491.188 288.111 493.116L285.586 507.212C285.233 509.059 284.364 510.62 282.978 511.897C282.897 511.951 282.843 512.033 282.815 512.141C282.815 512.25 282.856 512.331 282.938 512.386C283.019 512.467 283.101 512.535 283.182 512.589C283.345 512.671 283.386 512.807 283.304 512.997L281.675 516.826C281.566 517.071 281.39 517.166 281.145 517.111C279.733 516.65 278.742 515.726 278.171 514.341C278.117 514.205 278.022 514.151 277.886 514.178C277.723 514.178 277.56 514.178 277.397 514.178H277.316C275.387 514.178 273.866 513.499 272.753 512.141C271.639 510.783 271.246 509.14 271.572 507.212L274.057 493.116C274.41 491.188 275.387 489.545 276.99 488.187C278.592 486.802 280.358 486.109 282.286 486.109H282.367ZM283.427 493.116C283.562 492.491 283.427 491.948 283.019 491.487C282.639 490.998 282.136 490.767 281.512 490.794H281.43C280.779 490.821 280.195 491.052 279.679 491.487C279.19 491.921 278.877 492.464 278.742 493.116L276.256 507.212C276.121 507.809 276.243 508.352 276.623 508.841C277.031 509.303 277.533 509.52 278.13 509.493H278.212C278.646 509.493 279.054 509.398 279.434 509.208C279.814 508.991 280.14 508.719 280.412 508.393C280.683 508.04 280.86 507.646 280.941 507.212L283.427 493.116ZM306.474 486.109C306.583 486.109 306.664 486.15 306.718 486.231C306.773 486.313 306.8 486.408 306.8 486.516L303.174 507.049C302.984 507.999 302.631 508.909 302.115 509.778C301.626 510.62 301.028 511.367 300.322 512.019C299.616 512.644 298.801 513.16 297.878 513.567C296.982 513.947 296.058 514.151 295.108 514.178C293.125 514.232 291.55 513.581 290.382 512.223C289.214 510.838 288.807 509.167 289.16 507.212L292.826 486.516C292.881 486.272 293.017 486.136 293.234 486.109H297.185C297.294 486.109 297.376 486.15 297.43 486.231C297.484 486.313 297.511 486.408 297.511 486.516L293.845 507.13C293.791 507.538 293.818 507.918 293.926 508.271C294.062 508.624 294.266 508.909 294.537 509.126C294.836 509.344 295.189 509.466 295.597 509.493C296.058 509.52 296.479 509.439 296.86 509.249C297.267 509.031 297.606 508.746 297.878 508.393C298.177 508.04 298.367 507.646 298.448 507.212L302.115 486.516C302.142 486.272 302.278 486.136 302.522 486.109H306.474ZM315.094 486.109C315.175 486.109 315.243 486.15 315.298 486.231C315.379 486.313 315.406 486.408 315.379 486.516L310.572 513.811C310.518 514.056 310.368 514.178 310.124 514.178H306.213C306.104 514.178 306.023 514.151 305.968 514.097C305.887 514.015 305.86 513.92 305.887 513.811L310.694 486.516C310.749 486.272 310.898 486.136 311.142 486.109H315.094ZM327.633 486.109C329.29 486.109 330.594 486.707 331.544 487.902C332.522 489.069 332.861 490.482 332.563 492.138L331.015 501.019C330.716 502.676 329.874 504.102 328.489 505.297C327.104 506.465 325.583 507.049 323.926 507.049H320.952C320.708 507.049 320.572 507.171 320.545 507.415L319.404 513.811C319.35 514.056 319.2 514.178 318.956 514.178H315.045C314.936 514.178 314.855 514.151 314.801 514.097C314.719 514.015 314.692 513.92 314.719 513.811L319.526 486.476C319.581 486.258 319.73 486.136 319.974 486.109H327.633ZM327.878 492.138C327.986 491.785 327.918 491.473 327.674 491.201C327.457 490.93 327.158 490.794 326.778 490.794H323.845C323.6 490.794 323.451 490.916 323.396 491.161L321.482 501.997C321.455 502.106 321.468 502.201 321.522 502.282C321.604 502.337 321.685 502.364 321.767 502.364H324.741C325.121 502.364 325.461 502.242 325.759 501.997C326.058 501.726 326.248 501.4 326.33 501.019L327.878 492.138ZM350.44 486.109C350.549 486.109 350.63 486.15 350.684 486.231C350.739 486.313 350.766 486.394 350.766 486.476L350.073 490.427C350.019 490.672 349.87 490.794 349.625 490.794H341.111C340.866 490.794 340.717 490.916 340.663 491.161L339.563 497.271C339.563 497.38 339.59 497.475 339.644 497.557C339.699 497.638 339.78 497.665 339.889 497.638H346.122C346.23 497.638 346.312 497.679 346.366 497.76C346.448 497.842 346.475 497.923 346.448 498.005L345.755 501.956C345.701 502.201 345.551 502.323 345.307 502.323H339.074C338.829 502.35 338.68 502.472 338.626 502.69L337.485 509.126C337.458 509.235 337.472 509.33 337.526 509.412C337.607 509.466 337.702 509.493 337.811 509.493H346.325C346.434 509.493 346.516 509.534 346.57 509.615C346.624 509.697 346.638 509.778 346.611 509.86L345.918 513.811C345.891 514.056 345.755 514.178 345.511 514.178H332.311C332.203 514.178 332.121 514.151 332.067 514.097C331.985 514.015 331.958 513.92 331.985 513.811L336.793 486.476C336.847 486.258 336.996 486.136 337.241 486.109H350.44ZM371.103 486.109C372.95 486.109 374.416 486.774 375.503 488.105C376.589 489.409 376.969 490.998 376.643 492.872L374.077 507.415C373.751 509.289 372.814 510.892 371.266 512.223C369.718 513.526 368.007 514.178 366.133 514.178H359.126C359.017 514.178 358.936 514.151 358.881 514.097C358.8 514.015 358.773 513.92 358.8 513.811L363.607 486.476C363.661 486.258 363.811 486.136 364.055 486.109H371.103ZM371.999 492.872C372.108 492.328 371.986 491.84 371.633 491.405C371.279 490.971 370.818 490.767 370.247 490.794H367.925C367.681 490.794 367.531 490.916 367.477 491.161L364.3 509.126C364.272 509.235 364.286 509.33 364.34 509.412C364.422 509.466 364.517 509.493 364.625 509.493H366.948C367.572 509.493 368.102 509.303 368.536 508.923C368.998 508.515 369.297 508.013 369.433 507.415L371.999 492.872ZM395.237 486.109C395.346 486.109 395.427 486.15 395.481 486.231C395.536 486.313 395.563 486.394 395.563 486.476L394.87 490.427C394.816 490.672 394.667 490.794 394.422 490.794H385.908C385.663 490.794 385.514 490.916 385.46 491.161L384.36 497.271C384.36 497.38 384.387 497.475 384.441 497.557C384.495 497.638 384.577 497.665 384.686 497.638H390.919C391.027 497.638 391.109 497.679 391.163 497.76C391.244 497.842 391.272 497.923 391.244 498.005L390.552 501.956C390.498 502.201 390.348 502.323 390.104 502.323H383.871C383.626 502.35 383.477 502.472 383.423 502.69L382.282 509.126C382.255 509.235 382.268 509.33 382.323 509.412C382.404 509.466 382.499 509.493 382.608 509.493H391.122C391.231 509.493 391.312 509.534 391.367 509.615C391.421 509.697 391.435 509.778 391.407 509.86L390.715 513.811C390.688 514.056 390.552 514.178 390.307 514.178H377.108C376.999 514.178 376.918 514.151 376.864 514.097C376.782 514.015 376.755 513.92 376.782 513.811L381.589 486.476C381.644 486.258 381.793 486.136 382.038 486.109H395.237ZM416.47 486.109C418.127 486.109 419.43 486.707 420.381 487.902C421.359 489.069 421.698 490.482 421.4 492.138L419.851 501.06C419.634 502.255 419.118 503.342 418.303 504.319C417.516 505.297 416.552 506.03 415.411 506.519C415.221 506.601 415.153 506.736 415.207 506.927L417.733 513.73C417.76 513.839 417.733 513.947 417.652 514.056C417.57 514.137 417.475 514.178 417.366 514.178H412.722C412.614 514.178 412.532 514.124 412.478 514.015L409.993 507.252C409.938 507.144 409.857 507.09 409.748 507.09C409.531 507.09 409.409 507.185 409.382 507.375L408.241 513.893C408.187 514.083 408.064 514.178 407.874 514.178H403.8C403.719 514.178 403.651 514.151 403.597 514.097C403.542 514.042 403.529 513.974 403.556 513.893L408.404 486.435C408.431 486.245 408.553 486.136 408.77 486.109H416.47ZM416.755 492.138C416.837 491.785 416.755 491.473 416.511 491.201C416.294 490.93 416.008 490.794 415.655 490.794H412.6C412.41 490.794 412.288 490.903 412.233 491.12L410.319 502.119C410.291 502.174 410.305 502.242 410.359 502.323C410.414 502.377 410.482 502.405 410.563 502.405H413.578C413.985 502.405 414.325 502.282 414.596 502.038C414.895 501.766 415.085 501.44 415.166 501.06L416.755 492.138ZM432.79 486.109C434.718 486.109 436.239 486.802 437.353 488.187C438.493 489.545 438.901 491.188 438.575 493.116L436.049 507.212C435.723 509.14 434.759 510.783 433.157 512.141C431.554 513.499 429.789 514.178 427.86 514.178H427.779C425.851 514.178 424.33 513.499 423.216 512.141C422.103 510.783 421.709 509.14 422.035 507.212L424.52 493.116C424.873 491.188 425.851 489.545 427.453 488.187C429.055 486.802 430.821 486.109 432.749 486.109H432.79ZM433.89 493.116C434.026 492.491 433.89 491.948 433.482 491.487C433.102 490.998 432.6 490.767 431.975 490.794H431.894C431.242 490.821 430.658 491.052 430.142 491.487C429.653 491.921 429.341 492.464 429.205 493.116L426.72 507.212C426.584 507.809 426.706 508.352 427.086 508.841C427.494 509.303 427.996 509.52 428.594 509.493H428.675C429.354 509.466 429.938 509.249 430.427 508.841C430.943 508.407 431.269 507.864 431.405 507.212L433.89 493.116ZM450.909 486.109C452.131 486.109 453.204 486.421 454.127 487.046C455.051 487.644 455.716 488.458 456.123 489.49C456.558 490.522 456.667 491.65 456.449 492.872L456.001 495.56C455.675 497.19 454.942 498.589 453.801 499.757C453.638 499.892 453.611 500.055 453.72 500.245C454.48 501.549 454.711 502.934 454.412 504.401L453.883 507.415C453.557 509.289 452.62 510.892 451.072 512.223C449.524 513.526 447.813 514.178 445.939 514.178H438.972C438.864 514.178 438.782 514.151 438.728 514.097C438.646 514.015 438.619 513.92 438.646 513.811L443.454 486.476C443.508 486.258 443.657 486.136 443.902 486.109H450.909ZM449.727 504.401C449.863 503.858 449.755 503.369 449.401 502.934C449.048 502.5 448.587 502.296 448.016 502.323H445.735C445.491 502.35 445.341 502.472 445.287 502.69L444.146 509.126C444.119 509.235 444.133 509.33 444.187 509.412C444.268 509.466 444.363 509.493 444.472 509.493H446.753C447.351 509.493 447.881 509.303 448.342 508.923C448.804 508.515 449.089 508.013 449.198 507.415L449.727 504.401ZM451.764 492.872C451.9 492.328 451.791 491.84 451.438 491.405C451.085 490.971 450.624 490.767 450.053 490.794H447.772C447.527 490.794 447.378 490.916 447.324 491.161L446.224 497.271C446.224 497.38 446.251 497.475 446.305 497.557C446.36 497.638 446.441 497.665 446.55 497.638H448.872C449.469 497.638 449.985 497.448 450.42 497.068C450.882 496.66 451.18 496.158 451.316 495.56L451.764 492.872ZM467.959 486.109C469.887 486.109 471.408 486.802 472.522 488.187C473.662 489.545 474.07 491.188 473.744 493.116L471.218 507.212C470.892 509.14 469.928 510.783 468.326 512.141C466.723 513.499 464.958 514.178 463.03 514.178H462.948C461.02 514.178 459.499 513.499 458.385 512.141C457.272 510.783 456.878 509.14 457.204 507.212L459.689 493.116C460.042 491.188 461.02 489.545 462.622 488.187C464.225 486.802 465.99 486.109 467.918 486.109H467.959ZM469.059 493.116C469.195 492.491 469.059 491.948 468.652 491.487C468.271 490.998 467.769 490.767 467.144 490.794H467.063C466.411 490.821 465.827 491.052 465.311 491.487C464.822 491.921 464.51 492.464 464.374 493.116L461.889 507.212C461.753 507.809 461.875 508.352 462.256 508.841C462.663 509.303 463.165 509.52 463.763 509.493H463.844C464.523 509.466 465.107 509.249 465.596 508.841C466.112 508.407 466.438 507.864 466.574 507.212L469.059 493.116ZM466.329 484.602L465.148 482.768C465.039 482.551 465.08 482.375 465.27 482.239L469.955 478.857C470.037 478.776 470.132 478.749 470.24 478.776C470.349 478.776 470.43 478.817 470.485 478.898L471.666 480.731C471.802 480.949 471.761 481.112 471.544 481.22L466.859 484.642C466.778 484.697 466.682 484.724 466.574 484.724C466.492 484.724 466.411 484.683 466.329 484.602ZM490.559 486.109C490.641 486.109 490.709 486.15 490.763 486.231C490.844 486.313 490.871 486.394 490.844 486.476L490.152 490.427C490.097 490.672 489.962 490.794 489.744 490.794H485.752C485.508 490.794 485.358 490.916 485.304 491.161L481.311 513.811C481.257 514.056 481.121 514.178 480.904 514.178H476.952C476.844 514.178 476.762 514.151 476.708 514.097C476.654 514.015 476.626 513.92 476.626 513.811L480.619 491.161C480.646 491.079 480.632 490.998 480.578 490.916C480.524 490.835 480.442 490.794 480.334 490.794H476.341C476.26 490.794 476.178 490.767 476.097 490.713C476.043 490.631 476.029 490.536 476.056 490.427L476.749 486.476C476.803 486.258 476.939 486.136 477.156 486.109H490.559ZM497.544 486.109C497.625 486.109 497.693 486.15 497.747 486.231C497.829 486.313 497.856 486.408 497.829 486.516L493.022 513.811C492.967 514.056 492.818 514.178 492.574 514.178H488.663C488.554 514.178 488.472 514.151 488.418 514.097C488.337 514.015 488.31 513.92 488.337 513.811L493.144 486.516C493.198 486.272 493.348 486.136 493.592 486.109H497.544ZM508.739 486.109C510.64 486.109 512.147 486.802 513.261 488.187C514.401 489.545 514.809 491.188 514.483 493.116L514.157 494.949C514.103 495.194 513.953 495.316 513.709 495.316H509.757C509.676 495.316 509.594 495.289 509.513 495.235C509.458 495.153 509.445 495.058 509.472 494.949L509.798 493.116C509.934 492.491 509.798 491.948 509.39 491.487C509.01 490.998 508.508 490.767 507.883 490.794H507.802C507.15 490.821 506.566 491.052 506.05 491.487C505.561 491.921 505.249 492.464 505.113 493.116L502.628 507.212C502.492 507.809 502.614 508.352 502.994 508.841C503.402 509.303 503.904 509.52 504.502 509.493H504.583C505.262 509.466 505.846 509.249 506.335 508.841C506.851 508.407 507.177 507.864 507.313 507.212L507.679 505.093C507.734 504.849 507.869 504.727 508.087 504.727H512.038C512.147 504.727 512.229 504.767 512.283 504.849C512.337 504.93 512.364 505.012 512.364 505.093L511.998 507.212C511.645 509.14 510.667 510.783 509.064 512.141C507.462 513.499 505.697 514.178 503.768 514.178H503.687C501.759 514.178 500.238 513.499 499.124 512.141C498.011 510.783 497.617 509.14 497.943 507.212L500.428 493.116C500.781 491.188 501.759 489.545 503.361 488.187C504.963 486.802 506.729 486.109 508.657 486.109H508.739ZM528.131 486.435L528.253 513.73C528.253 514.029 528.117 514.178 527.846 514.178H523.813C523.731 514.178 523.663 514.151 523.609 514.097C523.555 514.042 523.527 513.974 523.527 513.893L523.487 509.697C523.487 509.615 523.46 509.547 523.405 509.493C523.351 509.439 523.283 509.412 523.202 509.412H519.291C519.073 509.412 518.938 509.507 518.883 509.697L517.376 513.893C517.322 514.083 517.186 514.178 516.968 514.178H512.976C512.84 514.178 512.745 514.137 512.691 514.056C512.637 513.947 512.637 513.839 512.691 513.73L522.468 486.435C522.523 486.245 522.658 486.136 522.876 486.109H527.805C527.886 486.109 527.954 486.15 528.009 486.231C528.09 486.286 528.131 486.353 528.131 486.435ZM523.039 504.727C523.31 504.727 523.446 504.577 523.446 504.279V498.983C523.446 498.792 523.337 498.697 523.12 498.697C522.93 498.697 522.794 498.792 522.713 498.983L520.798 504.279C520.771 504.387 520.784 504.496 520.839 504.604C520.893 504.686 520.974 504.727 521.083 504.727H523.039Z" fill="white"/>
<path d="M112.359 277.929C113.051 277.929 113.573 278.19 113.926 278.712C114.274 279.235 114.448 279.757 114.448 280.279L91.2139 412.119C89.9953 418.212 87.7733 423.997 84.5579 429.481C81.3374 434.964 77.4667 439.752 72.9406 443.843C68.4145 447.933 63.2382 451.241 57.4065 453.76C51.5749 456.284 45.6152 457.636 39.5224 457.805C26.8146 458.153 16.7179 453.934 9.23759 445.143C1.75215 436.357 -0.859051 425.692 1.40399 413.163L24.8997 280.279C25.2478 278.886 26.1131 278.103 27.5109 277.929H52.8344C53.5256 277.929 54.0478 278.19 54.4011 278.712C54.7493 279.235 54.9233 279.757 54.9233 280.279L31.4277 412.641C31.2536 414.208 31.2536 415.734 31.4277 417.208C31.6018 418.688 31.9909 420.04 32.6001 421.253C33.2094 422.472 33.9928 423.562 34.9502 424.515C35.9026 425.472 37.0392 426.255 38.3448 426.865C39.6504 427.474 41.084 427.776 42.6507 427.776C46.9976 427.95 50.9144 426.644 54.4011 423.859C57.8827 421.079 60.0536 417.51 60.9291 413.153L84.4248 280.269C84.5937 278.876 85.4693 278.093 87.036 277.919H112.359V277.929Z" fill="white"/>
<path d="M232.705 277.929C233.396 277.929 233.965 278.19 234.4 278.712C234.835 279.235 234.963 279.757 234.794 280.279L230.355 305.603C230.002 307.169 229.049 307.953 227.483 307.953H172.402C170.835 307.953 169.878 308.736 169.529 310.303L162.479 349.46C162.479 350.157 162.648 350.725 163.001 351.155C163.35 351.59 163.872 351.805 164.568 351.805H204.77C205.462 351.805 205.984 352.067 206.337 352.589C206.685 353.111 206.767 353.633 206.598 354.156L202.159 379.479C201.985 381.046 201.115 381.829 199.548 381.829H159.346C157.779 381.829 156.822 382.612 156.473 384.179L143.945 455.45C143.592 457.016 142.639 457.8 141.073 457.8H116.01C115.319 457.8 114.751 457.539 114.31 457.016C113.88 456.494 113.747 455.972 113.921 455.45L144.728 280.274C145.076 278.881 146.034 278.098 147.6 277.924H232.705V277.929Z" fill="white"/>
<path d="M343.917 277.929C344.608 277.929 345.176 278.19 345.611 278.712C346.041 279.235 346.175 279.757 346.006 280.279L314.937 455.455C314.763 456.847 313.893 457.631 312.326 457.805H283.608C282.564 457.805 281.954 457.195 281.78 455.977L271.074 376.09C270.9 375.219 270.378 375.045 269.508 375.567L268.985 376.351L255.151 455.455C254.798 457.021 253.846 457.805 252.279 457.805H227.216C226.525 457.805 225.957 457.59 225.522 457.155C225.087 456.724 224.959 456.156 225.128 455.46L255.935 280.284C256.283 278.892 257.24 278.108 258.807 277.934H287.264C288.477 277.934 289.179 278.548 289.353 279.762L300.059 359.649C300.228 360.694 300.75 360.868 301.625 360.172C301.8 360.003 301.887 359.741 301.887 359.388L315.982 280.284C316.33 278.892 317.288 278.108 318.854 277.934H343.917V277.929Z" fill="white"/>
<path d="M425.627 277.929C437.459 277.929 446.859 282.153 453.823 290.591C460.781 299.034 463.223 309.258 461.134 321.265L458.262 338.493C456.173 348.938 451.473 357.903 444.161 365.384C443.117 366.254 442.943 367.211 443.639 368.256C448.508 376.612 449.993 385.577 448.078 395.146L444.683 414.464C442.594 426.475 436.589 436.7 426.671 445.138C416.754 453.581 405.787 457.8 393.775 457.8H349.134C348.443 457.8 347.874 457.539 347.439 457.016C347.004 456.494 346.876 455.972 347.045 455.45L377.852 280.274C378.2 278.881 379.158 278.098 380.724 277.924H425.627V277.929ZM418.059 395.146C418.93 391.665 418.233 388.531 415.97 385.746C413.707 382.966 410.748 381.66 407.092 381.829H392.475C390.908 381.829 389.951 382.612 389.602 384.179L382.291 425.426C382.117 426.122 382.245 426.691 382.685 427.121C383.115 427.556 383.684 427.776 384.38 427.776H398.998C402.822 427.607 406.217 426.301 409.181 423.859C412.141 421.422 413.969 418.289 414.665 414.459L418.059 395.146ZM431.11 321.265C431.981 317.783 431.279 314.655 429.021 311.864C426.758 309.084 423.799 307.779 420.143 307.948H405.526C403.959 307.948 403.001 308.731 402.653 310.298L395.603 349.455C395.603 350.152 395.772 350.72 396.125 351.15C396.473 351.585 396.996 351.8 397.692 351.8H412.576C416.4 351.631 419.754 350.326 422.626 347.884C425.499 345.446 427.368 342.313 428.238 338.483L431.11 321.265Z" fill="white"/>
<path d="M540.238 277.929C552.592 277.929 562.382 282.327 569.606 291.113C576.825 299.904 579.396 310.39 577.307 322.57L561.122 413.158C559.033 425.518 552.854 436.045 542.588 444.749C532.317 453.453 521.007 457.805 508.647 457.805H508.125C495.766 457.805 486.022 453.458 478.885 444.749C471.748 436.05 469.224 425.518 471.312 413.158L487.236 322.57C489.494 310.39 495.76 299.904 506.031 291.113C516.297 282.327 527.612 277.929 539.972 277.929H540.238ZM547.283 322.57C548.153 318.746 547.324 315.305 544.805 312.259C542.281 309.217 539.014 307.779 535.015 307.953H534.493C530.315 308.127 526.619 309.565 523.398 312.259C520.178 314.957 518.13 318.392 517.264 322.57L501.341 413.158C500.471 416.988 501.295 420.429 503.819 423.47C506.338 426.516 509.518 427.955 513.348 427.776H513.87C518.217 427.607 522.006 426.168 525.226 423.47C528.447 420.772 530.489 417.336 531.36 413.158L547.283 322.57Z" fill="white"/>
<path d="M690.346 277.929C690.868 277.929 691.344 278.19 691.78 278.712C692.21 279.235 692.343 279.757 692.174 280.279L687.735 305.603C687.382 307.169 686.516 307.953 685.124 307.953H659.539C657.972 307.953 657.015 308.736 656.667 310.303L631.082 455.455C630.908 456.151 630.56 456.719 630.038 457.149C629.515 457.585 628.993 457.8 628.471 457.8H603.147C602.451 457.8 601.929 457.539 601.581 457.016C601.227 456.494 601.058 455.972 601.058 455.45L626.643 310.298C626.812 309.606 626.73 309.038 626.382 308.603C626.029 308.173 625.506 307.953 624.815 307.953H599.231C598.708 307.953 598.227 307.692 597.797 307.169C597.362 306.647 597.229 306.125 597.403 305.603L601.842 280.279C602.19 278.886 603.055 278.103 604.453 277.929H690.346Z" fill="white"/>
<path d="M787.949 429.244L783.595 454.723C783.426 456.3 782.568 457.088 781.033 457.088H697.407L726.013 427.004L786.157 426.88C786.835 426.88 787.343 427.143 787.692 427.668C788.031 428.194 788.113 428.719 787.949 429.244Z" fill="white"/>
<path d="M801.783 280.274L797.868 302.276C797.781 302.988 797.607 303.674 797.346 304.334C797.085 304.994 796.737 305.639 796.302 306.253L763.623 359.779L779.789 355.704L684.095 457.6L732.228 374.279L716.845 379.098L760.291 311.82C760.568 311.457 760.716 311.082 760.757 310.692C760.767 310.547 760.767 310.401 760.747 310.256C760.721 310.027 760.655 309.798 760.552 309.564C760.204 308.769 759.596 308.374 758.731 308.374H708.893C708.371 308.374 707.89 308.109 707.455 307.578C707.02 307.048 706.887 306.518 707.066 305.987L711.503 280.274C711.846 278.86 712.803 278.065 714.369 277.888H799.956C800.478 277.888 800.954 278.153 801.389 278.683C801.824 279.214 801.952 279.744 801.783 280.274Z" fill="white"/>
<defs>
<linearGradient id="paint0_linear_44_2" x1="401" y1="0.773132" x2="401" y2="735.242" gradientUnits="userSpaceOnUse">
<stop stop-color="#A1DAF8"/>
<stop offset="0.479167" stop-color="#0095DB"/>
<stop offset="1" stop-color="#003D7C"/>
</linearGradient>
<linearGradient id="paint1_linear_44_2" x1="354.323" y1="102.258" x2="354.323" y2="247.112" gradientUnits="userSpaceOnUse">
<stop stop-color="#A1DAF8"/>
<stop offset="0.473958" stop-color="#4CC4FE"/>
<stop offset="1" stop-color="#0095DB"/>
</linearGradient>
<linearGradient id="paint2_linear_44_2" x1="444.313" y1="489.098" x2="444.313" y2="635.384" gradientUnits="userSpaceOnUse">
<stop stop-color="#0095DB"/>
<stop offset="0.494792" stop-color="#0084D5"/>
<stop offset="1" stop-color="#003D7C"/>
</linearGradient>
</defs>
</svg>
