<svg width="802" height="181" viewBox="0 0 802 181" fill="none" xmlns="http://www.w3.org/2000/svg">
<path d="M112.359 0.928951C113.051 0.928951 113.573 1.19005 113.926 1.71229C114.274 2.23453 114.448 2.75677 114.448 3.27901L91.2139 135.119C89.9953 141.212 87.7733 146.997 84.5579 152.481C81.3374 157.964 77.4667 162.752 72.9406 166.843C68.4145 170.933 63.2382 174.241 57.4065 176.76C51.5749 179.284 45.6152 180.636 39.5224 180.805C26.8146 181.153 16.7179 176.934 9.23759 168.143C1.75215 159.357 -0.85905 148.692 1.40399 136.163L24.8997 3.27901C25.2478 1.88637 26.1131 1.10303 27.5109 0.928951H52.8344C53.5256 0.928951 54.0478 1.19005 54.4011 1.71229C54.7493 2.23453 54.9233 2.75677 54.9233 3.27901L31.4277 135.641C31.2536 137.208 31.2536 138.734 31.4277 140.208C31.6018 141.688 31.9909 143.04 32.6001 144.253C33.2094 145.472 33.9928 146.562 34.9502 147.515C35.9026 148.472 37.0392 149.255 38.3448 149.865C39.6504 150.474 41.084 150.776 42.6507 150.776C46.9976 150.95 50.9144 149.644 54.4011 146.859C57.8827 144.079 60.0536 140.51 60.9291 136.153L84.4248 3.2688C84.5937 1.87615 85.4693 1.09278 87.036 0.918701H112.359V0.928951Z" fill="white"/>
<path d="M232.705 0.928953C233.396 0.928953 233.965 1.19006 234.4 1.7123C234.835 2.23454 234.963 2.75678 234.794 3.27902L230.355 28.6025C230.002 30.1693 229.049 30.9526 227.483 30.9526H172.402C170.835 30.9526 169.878 31.736 169.529 33.3027L162.479 72.4604C162.479 73.1568 162.648 73.7251 163.001 74.1552C163.35 74.5904 163.872 74.8054 164.568 74.8054H204.77C205.462 74.8054 205.984 75.0666 206.337 75.5888C206.685 76.111 206.767 76.6333 206.598 77.1555L202.159 102.479C201.985 104.046 201.115 104.829 199.548 104.829H159.346C157.779 104.829 156.822 105.612 156.473 107.179L143.945 178.45C143.592 180.016 142.639 180.8 141.073 180.8H116.01C115.319 180.8 114.751 180.539 114.31 180.016C113.88 179.494 113.747 178.972 113.921 178.45L144.728 3.27389C145.076 1.88125 146.034 1.09791 147.6 0.923828H232.705V0.928953Z" fill="white"/>
<path d="M343.917 0.928955C344.608 0.928955 345.176 1.19006 345.611 1.7123C346.041 2.23454 346.175 2.75678 346.006 3.27902L314.937 178.455C314.763 179.847 313.893 180.631 312.326 180.805H283.608C282.564 180.805 281.954 180.195 281.78 178.977L271.074 99.0896C270.9 98.2192 270.378 98.0451 269.508 98.5674L268.985 99.3507L255.151 178.455C254.798 180.021 253.846 180.805 252.279 180.805H227.216C226.525 180.805 225.957 180.59 225.522 180.155C225.087 179.724 224.959 179.156 225.128 178.46L255.935 3.28414C256.283 1.8915 257.24 1.10816 258.807 0.93408H287.264C288.477 0.93408 289.179 1.54845 289.353 2.76189L300.059 82.6493C300.228 83.6937 300.75 83.8678 301.625 83.1715C301.8 83.0026 301.887 82.7414 301.887 82.3881L315.982 3.28414C316.33 1.8915 317.288 1.10816 318.854 0.93408H343.917V0.928955Z" fill="white"/>
<path d="M425.627 0.928953C437.459 0.928953 446.859 5.15294 453.823 13.5907C460.781 22.0336 463.223 32.2582 461.134 44.2646L458.262 61.4934C456.173 71.9382 451.473 80.9033 444.161 88.3837C443.117 89.2541 442.943 90.2115 443.639 91.256C448.508 99.6118 449.993 108.577 448.078 118.146L444.683 137.464C442.594 149.475 436.589 159.7 426.671 168.138C416.754 176.581 405.787 180.8 393.775 180.8H349.134C348.443 180.8 347.874 180.539 347.439 180.016C347.004 179.494 346.876 178.972 347.045 178.45L377.852 3.27389C378.2 1.88125 379.158 1.09791 380.724 0.923828H425.627V0.928953ZM418.059 118.146C418.93 114.665 418.233 111.531 415.97 108.746C413.707 105.966 410.748 104.66 407.092 104.829H392.475C390.908 104.829 389.951 105.612 389.602 107.179L382.291 148.426C382.117 149.122 382.245 149.691 382.685 150.121C383.115 150.556 383.684 150.776 384.38 150.776H398.998C402.822 150.607 406.217 149.301 409.181 146.859C412.141 144.422 413.969 141.289 414.665 137.459L418.059 118.146ZM431.11 44.2646C431.981 40.783 431.279 37.6547 429.021 34.8643C426.758 32.0841 423.799 30.7786 420.143 30.9475H405.526C403.959 30.9475 403.001 31.7309 402.653 33.2976L395.603 72.4554C395.603 73.1517 395.772 73.72 396.125 74.1501C396.473 74.5853 396.996 74.8003 397.692 74.8003H412.576C416.4 74.6313 419.754 73.3258 422.626 70.8835C425.499 68.4464 427.368 65.3129 428.238 61.4832L431.11 44.2646Z" fill="white"/>
<path d="M540.238 0.928955C552.592 0.928955 562.382 5.32703 569.606 14.113C576.825 22.904 579.396 33.3898 577.307 45.5702L561.122 136.158C559.033 148.518 552.854 159.045 542.588 167.749C532.317 176.453 521.007 180.805 508.647 180.805H508.125C495.766 180.805 486.022 176.458 478.885 167.749C471.748 159.05 469.224 148.518 471.312 136.158L487.236 45.5702C489.494 33.3898 495.76 22.904 506.031 14.113C516.297 5.32703 527.612 0.928955 539.972 0.928955H540.238ZM547.283 45.5702C548.153 41.7456 547.324 38.3049 544.805 35.2585C542.281 32.2173 539.014 30.7785 535.015 30.9526H534.493C530.315 31.1267 526.619 32.5654 523.398 35.2585C520.178 37.9568 518.13 41.3923 517.264 45.5702L501.341 136.158C500.471 139.988 501.295 143.429 503.819 146.47C506.338 149.516 509.518 150.955 513.348 150.776H513.87C518.217 150.607 522.006 149.168 525.226 146.47C528.447 143.772 530.489 140.336 531.36 136.158L547.283 45.5702Z" fill="white"/>
<path d="M690.346 0.928955C690.868 0.928955 691.344 1.19006 691.78 1.7123C692.21 2.23454 692.343 2.75678 692.174 3.27902L687.735 28.6025C687.382 30.1693 686.516 30.9526 685.124 30.9526H659.539C657.972 30.9526 657.015 31.736 656.667 33.3027L631.082 178.455C630.908 179.151 630.56 179.719 630.038 180.149C629.515 180.585 628.993 180.8 628.471 180.8H603.147C602.451 180.8 601.929 180.539 601.581 180.016C601.227 179.494 601.058 178.972 601.058 178.45L626.643 33.2976C626.812 32.6064 626.73 32.0381 626.382 31.6029C626.029 31.1728 625.506 30.9526 624.815 30.9526H599.231C598.708 30.9526 598.227 30.6915 597.797 30.1693C597.362 29.647 597.229 29.1248 597.403 28.6025L601.842 3.27902C602.19 1.88638 603.055 1.10304 604.453 0.928955H690.346Z" fill="white"/>
<path d="M787.949 152.244L783.595 177.723C783.426 179.3 782.568 180.088 781.033 180.088H697.407L726.013 150.004L786.157 149.88C786.835 149.88 787.343 150.143 787.692 150.668C788.031 151.194 788.113 151.719 787.949 152.244Z" fill="#0095DB"/>
<path d="M801.783 3.2742L797.868 25.2755C797.781 25.9877 797.607 26.674 797.346 27.3342C797.085 27.9945 796.737 28.6391 796.302 29.2526L763.623 82.7794L779.789 78.7035L684.095 180.6L732.228 97.2788L716.845 102.098L760.291 34.8205C760.568 34.4566 760.716 34.0823 760.757 33.6924C760.767 33.5468 760.767 33.4012 760.747 33.2556C760.721 33.0269 760.655 32.7981 760.552 32.5642C760.204 31.7688 759.596 31.3737 758.731 31.3737H708.893C708.371 31.3737 707.89 31.1085 707.455 30.5783C707.02 30.048 706.887 29.5177 707.066 28.9874L711.503 3.2742C711.846 1.86013 712.803 1.0647 714.369 0.887939H799.956C800.478 0.887939 800.954 1.15309 801.389 1.68337C801.824 2.21365 801.952 2.74392 801.783 3.2742Z" fill="#0095DB"/>
</svg>
