<svg width="14913" height="4630" viewBox="0 0 14913 4630" fill="none" xmlns="http://www.w3.org/2000/svg">
<g clip-path="url(#clip0_27_2161)">
<path d="M7017.18 1613.05C6914.03 1613.05 6835.42 1599.04 6781.31 1570.99C6727.27 1542.64 6694.75 1499.22 6683.98 1440.7L6851.49 1418.79C6859.6 1451.91 6877.57 1476.11 6905.37 1491.34C6933.57 1506.49 6974.74 1514.14 7028.78 1514.14C7162.1 1514.14 7228.71 1484.43 7228.71 1425.02C7228.71 1401.14 7217.13 1382.36 7193.92 1368.62C7170.81 1354.61 7124.81 1340.89 7056.06 1327.41C6984.97 1312.78 6932.21 1297.61 6897.81 1281.77C6863.85 1265.94 6837.77 1246.68 6819.59 1224.01C6801.78 1201.06 6792.89 1172.95 6792.89 1139.83C6792.89 1086.99 6823.22 1044.46 6883.93 1012.26C6944.57 979.97 7024.92 963.905 7125.04 963.905C7216.97 963.905 7290.72 976.865 7346.35 1002.86C7402.06 1028.48 7436.25 1066.16 7448.98 1115.63L7282.07 1145.65C7273.59 1118.83 7255.02 1097.45 7226.44 1081.62C7198.25 1065.53 7161.34 1057.42 7115.71 1057.42C7067.8 1057.42 7030.14 1064.49 7002.7 1078.5C6975.26 1092.21 6961.55 1111.17 6961.55 1135.34C6961.55 1149.37 6966.63 1161.34 6976.62 1171.2C6986.71 1181.06 7001.34 1189.69 7020.67 1197.12C7039.99 1204.32 7078.28 1213.87 7135.42 1225.76C7196.89 1238.95 7242.29 1251.31 7271.61 1262.97C7301.03 1274.27 7324.37 1287.15 7341.74 1301.49C7359.55 1315.81 7373.03 1332.18 7382.35 1350.75C7391.6 1369.24 7396.22 1390.52 7396.22 1414.72C7396.22 1479.21 7364.17 1528.47 7300.04 1562.51C7235.93 1596.23 7141.63 1613.05 7017.18 1613.05Z" fill="#24167B"/>
<path d="M7482.02 1604.11L7640.2 973.315H7811.2L7652.4 1604.11H7482.02Z" fill="#24167B"/>
<path d="M8138.87 1613.05C8035.7 1613.05 7957.04 1599.04 7902.98 1570.99C7848.86 1542.64 7816.42 1499.22 7805.59 1440.7L7973.1 1418.79C7981.21 1451.91 7999.16 1476.11 8026.99 1491.34C8055.18 1506.49 8096.33 1514.14 8150.45 1514.14C8283.71 1514.14 8350.4 1484.43 8350.4 1425.02C8350.4 1401.14 8338.8 1382.36 8315.61 1368.62C8292.42 1354.61 8246.42 1340.89 8177.67 1327.41C8106.58 1312.78 8053.82 1297.61 8019.48 1281.77C7985.44 1265.94 7959.38 1246.68 7941.18 1224.01C7923.45 1201.06 7914.58 1172.95 7914.58 1139.83C7914.58 1086.99 7944.91 1044.46 8005.55 1012.26C8066.18 979.97 8146.59 963.905 8246.63 963.905C8338.58 963.905 8412.4 976.865 8468.04 1002.86C8523.67 1028.48 8557.84 1066.16 8570.59 1115.63L8403.68 1145.65C8395.2 1118.83 8376.63 1097.45 8348.05 1081.62C8319.86 1065.53 8282.94 1057.42 8237.4 1057.42C8189.49 1057.42 8151.83 1064.49 8124.39 1078.5C8096.95 1092.21 8083.22 1111.17 8083.22 1135.34C8083.22 1149.37 8088.22 1161.34 8098.31 1171.2C8108.31 1181.06 8123.01 1189.69 8142.34 1197.12C8161.66 1204.32 8199.87 1213.87 8257.09 1225.76C8318.5 1238.95 8363.89 1251.31 8393.3 1262.97C8422.64 1274.27 8445.98 1287.15 8463.41 1301.49C8481.14 1315.81 8494.72 1332.18 8503.96 1350.75C8513.21 1369.24 8517.91 1390.52 8517.91 1414.72C8517.91 1479.21 8485.78 1528.47 8421.65 1562.51C8357.52 1596.23 8263.24 1613.05 8138.87 1613.05Z" fill="#24167B"/>
<path d="M9101.52 1075.39L8968.2 1604.11H8797.2L8930.52 1075.39H8666.85L8692.31 973.315H9391.29L9365.74 1075.39H9101.52Z" fill="#24167B"/>
<path d="M9328.83 1604.11L9487.09 973.315H10129.2L10103.7 1075.39H9632.54L9592.53 1233.87H10028.4L10002.9 1335.96H9567.05L9525.37 1502.03H10020.2L9994.16 1604.11H9328.83Z" fill="#24167B"/>
<path d="M10798.6 1604.11L10898.3 1208.34C10908.3 1169.53 10922.6 1121.47 10941.2 1064.18L10901.2 1131.77C10870.6 1183.7 10848.7 1219.4 10835.1 1238.8L10596.3 1604.11H10474.6L10420.2 1237.44C10408.2 1150.58 10400.5 1092.83 10397 1064.18C10386.2 1137.01 10377.8 1184.61 10372.1 1206.96L10272.4 1604.11H10120.5L10279.4 973.315H10508.3L10559.3 1326.11L10573.8 1449.64C10587.6 1425.78 10600.6 1404.18 10612.6 1384.78C10624.5 1365.38 10714.2 1228.18 10881.5 973.315H11109.2L10950.5 1604.11H10798.6Z" fill="#24167B"/>
<path d="M11690.5 1604.11L11658.7 1442.99H11347.5L11234.5 1604.11H11064.1L11520.1 973.315H11721.8L11859.7 1604.11H11690.5ZM11596.1 1070.46C11588 1089.57 11569 1121.18 11539.3 1165.36L11416.4 1343.55H11645.3L11606.5 1141.18C11599.5 1100.87 11596.1 1077.29 11596.1 1070.46Z" fill="#24167B"/>
<path d="M12293.1 1613.05C12189.9 1613.05 12111.2 1599.04 12057.2 1570.99C12003.1 1542.64 11970.6 1499.22 11959.8 1440.7L12127.3 1418.79C12135.4 1451.91 12153.4 1476.11 12181.2 1491.34C12209.4 1506.49 12250.6 1514.14 12304.7 1514.14C12437.9 1514.14 12504.6 1484.43 12504.6 1425.02C12504.6 1401.14 12493 1382.36 12469.8 1368.62C12446.6 1354.61 12400.7 1340.89 12331.9 1327.41C12260.8 1312.78 12208 1297.61 12173.7 1281.77C12139.7 1265.94 12113.6 1246.68 12095.4 1224.01C12077.7 1201.06 12068.8 1172.95 12068.8 1139.83C12068.8 1086.99 12099.1 1044.46 12159.7 1012.26C12220.4 979.97 12300.8 963.905 12400.9 963.905C12492.8 963.905 12566.6 976.865 12622.2 1002.86C12677.9 1028.48 12712.1 1066.16 12724.8 1115.63L12557.9 1145.65C12549.4 1118.83 12530.8 1097.45 12502.3 1081.62C12474.1 1065.53 12437.2 1057.42 12391.6 1057.42C12343.7 1057.42 12306 1064.49 12278.6 1078.5C12251.2 1092.21 12237.4 1111.17 12237.4 1135.34C12237.4 1149.37 12242.4 1161.34 12252.5 1171.2C12262.5 1181.06 12277.2 1189.69 12296.6 1197.12C12315.9 1204.32 12354.1 1213.87 12411.3 1225.76C12472.7 1238.95 12518.1 1251.31 12547.5 1262.97C12576.8 1274.27 12600.2 1287.15 12617.6 1301.49C12635.4 1315.81 12648.9 1332.18 12658.2 1350.75C12667.4 1369.24 12672.1 1390.52 12672.1 1414.72C12672.1 1479.21 12640 1528.47 12575.9 1562.51C12511.7 1596.23 12417.5 1613.05 12293.1 1613.05Z" fill="#24167B"/>
<path d="M13492.4 973.315C13621 973.315 13719.5 996.423 13788 1042.66C13856.3 1088.95 13890.5 1155.66 13890.5 1242.81C13890.5 1313.23 13871.4 1375.45 13833.1 1429.48C13794.9 1483.52 13739.5 1526.2 13666.8 1557.58C13594.2 1588.56 13512.8 1604.11 13422.8 1604.11H13087.8L13246.6 973.315H13492.4ZM13284.3 1502.03H13417.6C13479.4 1502.03 13534 1491.86 13581.6 1471.63C13629.6 1451.02 13666.2 1421.45 13691.7 1382.96C13717.6 1344.44 13730.6 1299.66 13730.6 1248.65C13730.6 1192.19 13710.1 1149.22 13669.1 1119.65C13628.6 1090.18 13570 1075.39 13493.5 1075.39H13391.5L13284.3 1502.03Z" fill="#24167B"/>
<path d="M13944.8 1604.11L14103.1 973.315H14745.2L14719.6 1075.39H14248.5L14208.5 1233.87H14644.3L14618.8 1335.96H14183L14141.2 1502.03H14636.2L14610.1 1604.11H13944.8Z" fill="#24167B"/>
<path d="M6621.52 2585.22L6779.72 1954.42H6950.7L6791.92 2585.22H6621.52Z" fill="#24167B"/>
<path d="M7442.9 2585.22L7226.15 2078.86C7217.28 2127.21 7209.93 2162.91 7204.17 2185.89L7103.29 2585.22H6951.46L7110.25 1954.42H7313.08L7531.6 2465.24L7538.56 2428.55C7542.81 2403.77 7548.42 2377.77 7555.31 2350.65L7656.21 1954.42H7808.02L7649.22 2585.22H7442.9Z" fill="#24167B"/>
<path d="M8112.11 2056.51L8062.84 2251.66H8450L8424.44 2353.75H8037.36L7978.79 2585.22H7808.39L7966.66 1954.42H8538.07L8512.59 2056.51H8112.11Z" fill="#24167B"/>
<path d="M9050.59 1945.02C9163.75 1945.02 9253.04 1968.29 9318.37 2014.81C9383.63 2061.13 9416.3 2124.26 9416.3 2204.22C9416.3 2277.97 9395.83 2345.26 9354.83 2406.12C9314.28 2466.75 9257.51 2513.3 9184.43 2545.8C9111.46 2578.08 9028 2594.17 8934.09 2594.17C8859.5 2594.17 8794.64 2583.4 8739.38 2561.94C8684.5 2540.42 8642.59 2509.73 8613.62 2469.7C8584.99 2429.39 8570.74 2382.39 8570.74 2328.67C8570.74 2258.57 8590.96 2193.16 8631.59 2132.61C8672.53 2071.66 8729.15 2025.27 8801.37 1993.37C8873.61 1961.09 8956.68 1945.02 9050.59 1945.02ZM9042.48 2049.31C8979.86 2049.31 8926.58 2060.53 8882.48 2082.88C8838.43 2105.23 8804.48 2138.97 8780.53 2184.06C8756.59 2229.15 8744.6 2276.15 8744.6 2325.1C8744.6 2380.04 8761.96 2421.35 8796.75 2449.1C8831.54 2476.61 8879.97 2490.33 8942.2 2490.33C9004.43 2490.33 9057.55 2479.11 9101.6 2456.76C9145.63 2434.31 9179.58 2401.04 9203.62 2356.86C9227.95 2312.68 9240.08 2265.38 9240.08 2214.99C9240.08 2162.47 9223.1 2121.68 9189.07 2092.73C9155.48 2063.79 9106.61 2049.31 9042.48 2049.31Z" fill="#24167B"/>
<path d="M10021.5 2585.22L9888.27 2346.17H9687.72L9627.99 2585.22H9457.07L9615.87 1954.42H9993.17C10054.6 1954.42 10107.1 1961.69 10150.7 1976.32C10194.8 1990.95 10228.2 2011.87 10251 2038.99C10273.8 2066.21 10285.2 2098.11 10285.2 2134.8C10285.2 2184.06 10264.1 2225.82 10222.1 2260.16C10180.3 2294.48 10123.5 2315.86 10051.7 2324.19L10210.5 2585.22H10021.5ZM9941.55 2243.18C9997.57 2243.18 10039.9 2234.53 10068.5 2217.18C10097.5 2199.6 10111.9 2174.65 10111.9 2142.44C10111.9 2114.72 10099.6 2093.49 10074.9 2078.86C10050.5 2064.23 10016.1 2056.88 9971.73 2056.88H9760.71L9713.8 2243.18H9941.55Z" fill="#24167B"/>
<path d="M10992.1 2585.22L11091.7 2189.44C11101.8 2150.63 11116.1 2102.59 11134.6 2045.3L11094.7 2112.89C11064.1 2164.81 11042.1 2200.51 11028.6 2219.92L10789.8 2585.22H10668.1L10613.6 2218.54C10601.6 2131.69 10593.9 2073.93 10590.4 2045.3C10579.7 2118.11 10571.3 2165.73 10565.5 2188.08L10465.8 2585.22H10314L10472.8 1954.42H10701.7L10752.7 2307.23L10767.2 2430.76C10781.1 2406.88 10794.1 2385.21 10806.1 2365.8C10818 2346.48 10907.6 2209.3 11075 1954.42H11302.7L11144 2585.22H10992.1Z" fill="#24167B"/>
<path d="M11884 2585.22L11852.1 2424.01H11540.9L11427.9 2585.22H11257.5L11713.6 1954.42H11915.3L12053.3 2585.22H11884ZM11789.5 2051.58C11781.4 2070.67 11762.5 2102.28 11732.7 2146.46L11609.9 2324.65H11838.8L11799.9 2122.28C11793 2081.97 11789.5 2058.39 11789.5 2051.58Z" fill="#24167B"/>
<path d="M12360.1 2328.67C12360.1 2380.28 12376.6 2420.3 12409.4 2448.65C12442.7 2476.77 12490 2490.77 12551.5 2490.77C12654.2 2490.77 12735 2452.28 12793.7 2375.27L12925.3 2427.66C12844.1 2538.68 12715.6 2594.17 12539.9 2594.17C12466 2594.17 12402.3 2583.4 12348.6 2561.94C12295.3 2540.42 12254.7 2509.89 12226.9 2470.17C12199.5 2430.14 12185.7 2383.61 12185.7 2330.49C12185.7 2255.23 12206.1 2188.08 12246.6 2129.04C12287.2 2069.61 12343.8 2024.07 12416.4 1992.46C12489.4 1960.78 12572.3 1945.02 12665 1945.02C12753.9 1945.02 12826.7 1959.79 12883.5 1989.28C12940.7 2018.54 12979.2 2062.25 12998.9 2120.46L12840.1 2152.3C12828.9 2120.32 12807.4 2095.16 12775.7 2076.59C12744.1 2058.1 12705.4 2048.85 12659.8 2048.85C12566.3 2048.85 12492.9 2073.93 12439.6 2124.11C12386.7 2174.2 12360.1 2242.42 12360.1 2328.67ZM12453.5 2775.52C12434.2 2775.52 12413.7 2774.61 12392.1 2772.81L12408.9 2720.42C12425.1 2722.55 12440.9 2723.54 12456.4 2723.54C12487.7 2723.54 12510.4 2720.89 12524.8 2715.49C12539.1 2710.43 12546.2 2701.64 12546.2 2689.12C12546.2 2670.25 12525 2660.86 12482.5 2660.86H12468L12451.8 2661.77L12508.6 2585.22H12590.3L12562.4 2622.36C12589.5 2622.65 12611.3 2627.58 12627.9 2637.13C12644.9 2646.98 12653.5 2661.77 12653.5 2681.48C12653.5 2710.43 12637.2 2733.25 12604.7 2749.99C12572.3 2766.97 12521.9 2775.52 12453.5 2775.52Z" fill="#24167B"/>
<path d="M13597.9 2585.22L13566 2424.01H13254.8L13141.8 2585.22H12971.4L13427.5 1954.41H13629.2L13767.1 2585.22H13597.9ZM13503.4 2051.58C13495.3 2070.67 13476.4 2102.28 13446.7 2146.46L13323.8 2324.65H13552.7L13513.9 2122.28C13506.9 2081.97 13503.4 2058.39 13503.4 2051.58ZM13614.2 1900.22C13597.1 1900.22 13580.7 1897.41 13564.9 1891.73C13549.4 1886.04 13534.4 1879.75 13519.6 1872.94C13505.4 1865.75 13491.7 1859.3 13478.5 1853.68C13465.4 1848.01 13453 1845.12 13441.4 1845.12C13425.2 1845.12 13411.6 1849.06 13400.9 1856.8C13390.4 1864.21 13380.4 1878.71 13370.7 1900.22H13291.9C13307 1853.08 13327.8 1819.51 13354.5 1799.51C13381.6 1779.19 13415 1769.03 13454.8 1769.03C13472.1 1769.03 13488.7 1771.92 13504.6 1777.52C13520.8 1783.21 13536.1 1789.65 13550.3 1796.77C13564.7 1803.66 13578.2 1809.96 13591 1815.57C13603.7 1821.26 13615.7 1824.13 13626.9 1824.13C13643.5 1824.13 13657.2 1819.96 13668.1 1811.56C13678.8 1803.21 13688.9 1789.03 13698.1 1769.03H13776.5C13761.4 1816.17 13740.3 1849.89 13713.2 1870.21C13686.6 1890.21 13653.5 1900.22 13614.2 1900.22Z" fill="#24167B"/>
<path d="M14390.5 1945.02C14503.8 1945.02 14593 1968.29 14658.3 2014.81C14723.6 2061.13 14756.2 2124.26 14756.2 2204.22C14756.2 2277.97 14735.8 2345.26 14694.8 2406.12C14654.2 2466.75 14597.4 2513.3 14524.4 2545.8C14451.4 2578.08 14367.9 2594.17 14274 2594.17C14199.4 2594.17 14134.6 2583.4 14079.3 2561.94C14024.4 2540.42 13982.5 2509.73 13953.6 2469.7C13924.9 2429.39 13910.7 2382.39 13910.7 2328.67C13910.7 2258.57 13930.9 2193.16 13971.5 2132.61C14012.5 2071.66 14069.1 2025.27 14141.3 1993.37C14213.6 1961.09 14296.6 1945.02 14390.5 1945.02ZM14382.4 2049.31C14319.8 2049.31 14266.5 2060.53 14222.5 2082.88C14178.4 2105.23 14144.4 2138.97 14120.5 2184.06C14096.5 2229.15 14084.5 2276.15 14084.5 2325.1C14084.5 2380.04 14101.9 2421.35 14136.7 2449.1C14171.5 2476.61 14219.9 2490.33 14282.1 2490.33C14344.4 2490.33 14397.5 2479.11 14441.5 2456.76C14485.6 2434.31 14519.6 2401.04 14543.6 2356.86C14567.9 2312.68 14580 2265.38 14580 2214.99C14580 2162.47 14563 2121.68 14529.1 2092.73C14495.4 2063.79 14446.5 2049.31 14382.4 2049.31Z" fill="#24167B"/>
<mask id="mask0_27_2161" style="mask-type:luminance" maskUnits="userSpaceOnUse" x="3030" y="193" width="2946" height="4135">
<path d="M3030.29 193.929H5975.74V4327.04H3030.29V193.929Z" fill="white"/>
</mask>
<g mask="url(#mask0_27_2161)">
<mask id="mask1_27_2161" style="mask-type:luminance" maskUnits="userSpaceOnUse" x="3036" y="199" width="2930" height="4120">
<path d="M3104.11 201.08C3104.06 201.031 3103.97 201.031 3103.92 201.08C3060.03 203.165 3036.45 206.849 3036.45 206.849V4011.71C3106.2 4011.58 3175.03 4007.73 3242.79 4000.26C3368.07 3935.87 3538.96 3873.98 3722.34 3883.17C3724.13 3883.27 3725.84 3883.4 3727.59 3883.45C4504.58 3928.3 4709.32 4206.68 5131.38 4296.74C5610.54 4399.05 5965.04 4111.47 5965.04 4111.47V206.849C5965.04 206.849 5432.75 1271.99 4504.29 655.746C3897.95 253.259 3391.27 199.747 3164.38 199.747C3141.37 199.747 3121.2 200.316 3104.11 201.08Z" fill="white"/>
</mask>
<g mask="url(#mask1_27_2161)">
<mask id="mask2_27_2161" style="mask-type:luminance" maskUnits="userSpaceOnUse" x="0" y="0" width="6037" height="7115">
<path d="M0 0H6036.35V7114.77H0V0Z" fill="white"/>
</mask>
<g mask="url(#mask2_27_2161)">
<path fill-rule="evenodd" clip-rule="evenodd" d="M3036.45 919.405H5965.04V1019.12H3036.45V919.405Z" fill="#24167B"/>
</g>
<mask id="mask3_27_2161" style="mask-type:luminance" maskUnits="userSpaceOnUse" x="0" y="0" width="6037" height="7115">
<path d="M0 0H6036.35V7114.77H0V0Z" fill="white"/>
</mask>
<g mask="url(#mask3_27_2161)">
<path fill-rule="evenodd" clip-rule="evenodd" d="M3036.45 662.885H5965.04V798.248H3036.45V662.885Z" fill="#24167B"/>
</g>
<mask id="mask4_27_2161" style="mask-type:luminance" maskUnits="userSpaceOnUse" x="0" y="0" width="6037" height="7115">
<path d="M0 0H6036.35V7114.77H0V0Z" fill="white"/>
</mask>
<g mask="url(#mask4_27_2161)">
<path fill-rule="evenodd" clip-rule="evenodd" d="M3036.45 399.263H5965.04V534.626H3036.45V399.263Z" fill="#24167B"/>
</g>
<mask id="mask5_27_2161" style="mask-type:luminance" maskUnits="userSpaceOnUse" x="0" y="0" width="6037" height="7115">
<path d="M0 0H6036.35V7114.77H0V0Z" fill="white"/>
</mask>
<g mask="url(#mask5_27_2161)">
<path fill-rule="evenodd" clip-rule="evenodd" d="M3036.45 185.505H5965.04V320.867H3036.45V185.505Z" fill="#24167B"/>
</g>
<mask id="mask6_27_2161" style="mask-type:luminance" maskUnits="userSpaceOnUse" x="0" y="0" width="6037" height="7115">
<path d="M0 0H6036.35V7114.77H0V0Z" fill="white"/>
</mask>
<g mask="url(#mask6_27_2161)">
<path fill-rule="evenodd" clip-rule="evenodd" d="M3036.45 1183.03H5965.04V1268.54H3036.45V1183.03Z" fill="#24167B"/>
</g>
<mask id="mask7_27_2161" style="mask-type:luminance" maskUnits="userSpaceOnUse" x="0" y="0" width="6037" height="7115">
<path d="M0 0H6036.35V7114.77H0V0Z" fill="white"/>
</mask>
<g mask="url(#mask7_27_2161)">
<path fill-rule="evenodd" clip-rule="evenodd" d="M3036.45 1446.65H5965.04V1532.16H3036.45V1446.65Z" fill="#24167B"/>
</g>
<mask id="mask8_27_2161" style="mask-type:luminance" maskUnits="userSpaceOnUse" x="0" y="0" width="6037" height="7115">
<path d="M0 0H6036.35V7114.77H0V0Z" fill="white"/>
</mask>
<g mask="url(#mask8_27_2161)">
<path fill-rule="evenodd" clip-rule="evenodd" d="M3036.45 1703.18H5965.04V1788.69H3036.45V1703.18Z" fill="#24167B"/>
</g>
<mask id="mask9_27_2161" style="mask-type:luminance" maskUnits="userSpaceOnUse" x="0" y="0" width="6037" height="7115">
<path d="M0 0H6036.35V7114.77H0V0Z" fill="white"/>
</mask>
<g mask="url(#mask9_27_2161)">
<path fill-rule="evenodd" clip-rule="evenodd" d="M3036.45 1966.8H5965.04V2052.31H3036.45V1966.8Z" fill="#24167B"/>
</g>
<mask id="mask10_27_2161" style="mask-type:luminance" maskUnits="userSpaceOnUse" x="0" y="0" width="6037" height="7115">
<path d="M0 0H6036.35V7114.77H0V0Z" fill="white"/>
</mask>
<g mask="url(#mask10_27_2161)">
<path fill-rule="evenodd" clip-rule="evenodd" d="M3036.45 2180.56H5965.04V2308.82H3036.45V2180.56Z" fill="#24167B"/>
</g>
<mask id="mask11_27_2161" style="mask-type:luminance" maskUnits="userSpaceOnUse" x="0" y="0" width="6037" height="7115">
<path d="M0 0H6036.35V7114.77H0V0Z" fill="white"/>
</mask>
<g mask="url(#mask11_27_2161)">
<path fill-rule="evenodd" clip-rule="evenodd" d="M3036.45 2444.18H5965.04V2572.44H3036.45V2444.18Z" fill="#24167B"/>
</g>
<mask id="mask12_27_2161" style="mask-type:luminance" maskUnits="userSpaceOnUse" x="0" y="0" width="6037" height="7115">
<path d="M0 0H6036.35V7114.77H0V0Z" fill="white"/>
</mask>
<g mask="url(#mask12_27_2161)">
<path fill-rule="evenodd" clip-rule="evenodd" d="M3036.45 2700.7H5965.04V2828.96H3036.45V2700.7Z" fill="#24167B"/>
</g>
<mask id="mask13_27_2161" style="mask-type:luminance" maskUnits="userSpaceOnUse" x="0" y="0" width="6037" height="7115">
<path d="M0 0H6036.35V7114.77H0V0Z" fill="white"/>
</mask>
<g mask="url(#mask13_27_2161)">
<path fill-rule="evenodd" clip-rule="evenodd" d="M3036.45 2964.32H5965.04V3092.58H3036.45V2964.32Z" fill="#24167B"/>
</g>
<mask id="mask14_27_2161" style="mask-type:luminance" maskUnits="userSpaceOnUse" x="0" y="0" width="6037" height="7115">
<path d="M0 0H6036.35V7114.77H0V0Z" fill="white"/>
</mask>
<g mask="url(#mask14_27_2161)">
<path fill-rule="evenodd" clip-rule="evenodd" d="M3036.45 3220.84H5965.04V3349.1H3036.45V3220.84Z" fill="#24167B"/>
</g>
<mask id="mask15_27_2161" style="mask-type:luminance" maskUnits="userSpaceOnUse" x="0" y="0" width="6037" height="7115">
<path d="M0 0H6036.35V7114.77H0V0Z" fill="white"/>
</mask>
<g mask="url(#mask15_27_2161)">
<path fill-rule="evenodd" clip-rule="evenodd" d="M3036.45 3477.33H5965.04V3605.59H3036.45V3477.33Z" fill="#24167B"/>
</g>
<mask id="mask16_27_2161" style="mask-type:luminance" maskUnits="userSpaceOnUse" x="0" y="0" width="6037" height="7115">
<path d="M0 0H6036.35V7114.77H0V0Z" fill="white"/>
</mask>
<g mask="url(#mask16_27_2161)">
<path fill-rule="evenodd" clip-rule="evenodd" d="M3036.45 3698.19H5965.04V3826.45H3036.45V3698.19Z" fill="#24167B"/>
</g>
<mask id="mask17_27_2161" style="mask-type:luminance" maskUnits="userSpaceOnUse" x="0" y="0" width="6037" height="7115">
<path d="M0 0H6036.35V7114.77H0V0Z" fill="white"/>
</mask>
<g mask="url(#mask17_27_2161)">
<path fill-rule="evenodd" clip-rule="evenodd" d="M3036.45 3954.71H5965.04V4082.97H3036.45V3954.71Z" fill="#24167B"/>
</g>
<mask id="mask18_27_2161" style="mask-type:luminance" maskUnits="userSpaceOnUse" x="0" y="0" width="6037" height="7115">
<path d="M0 0H6036.35V7114.77H0V0Z" fill="white"/>
</mask>
<g mask="url(#mask18_27_2161)">
<path fill-rule="evenodd" clip-rule="evenodd" d="M3036.45 4196.99H5965.04V4325.25H3036.45V4196.99Z" fill="#24167B"/>
</g>
</g>
</g>
<path d="M4819.31 2097.23C4819.31 3091.31 4013.43 3897.09 3019.36 3897.09C2025.23 3897.09 1219.37 3091.31 1219.37 2097.23C1219.37 1103.21 2025.23 297.378 3019.36 297.378C4013.43 297.378 4819.31 1103.21 4819.31 2097.23Z" fill="#24167B"/>
<mask id="mask19_27_2161" style="mask-type:luminance" maskUnits="userSpaceOnUse" x="0" y="0" width="6037" height="7115">
<path d="M0 0H6036.35V7114.77H0V0Z" fill="white"/>
</mask>
<g mask="url(#mask19_27_2161)">
<path fill-rule="evenodd" clip-rule="evenodd" d="M3036.45 3997.42V4389.35C3036.45 4389.35 2681.96 4676.92 2202.74 4574.61C1780.67 4484.56 1576 4206.16 799.004 4161.38C428.508 4139.97 107.818 4410.74 107.818 4410.74V484.725C107.818 484.725 729.028 388.136 1536.73 908.193C1266 1244.34 1119.03 1659.47 1119.03 2097.23C1119.03 2604.78 1316.71 3082.03 1675.61 3440.92C2034.52 3799.84 2511.74 3997.47 3019.36 3997.47C3025.03 3997.47 3030.72 3997.47 3036.45 3997.42Z" fill="#24167B"/>
</g>
<mask id="mask20_27_2161" style="mask-type:luminance" maskUnits="userSpaceOnUse" x="5976" y="-6924" width="9664" height="11390">
<path d="M5976.32 -6923.28H15639.2V4465.91H5976.32V-6923.28Z" fill="white"/>
</mask>
<g mask="url(#mask20_27_2161)">
<path d="M10381.6 3363.08C10383.6 3282.89 10418.6 3243.79 10476.5 3243.79C10522.6 3243.79 10549.5 3264.11 10549.5 3299.11C10549.5 3322.91 10532.8 3337.16 10499.8 3342.76L10381.6 3363.08ZM10565.3 3502.62C10568.9 3502.15 10570.4 3499.57 10569.3 3496.02L10562.3 3471.15C10560.7 3467.13 10558.2 3466.08 10554.6 3466.61L10535.9 3472.14C10518.1 3477.75 10498.8 3480.33 10477.4 3480.33C10426.7 3480.33 10392.7 3449.86 10384.6 3397.03L10506.4 3377.26C10562.7 3368.16 10590.1 3342.24 10590.1 3298.58C10590.1 3240.75 10547.5 3206.19 10477 3206.19C10392.2 3206.19 10340.4 3266.06 10340.4 3361.56C10340.4 3457.97 10391.7 3517.85 10477.4 3517.85C10501.3 3517.85 10523.1 3515.35 10545 3508.23L10565.3 3502.62ZM10181.5 3269.17V3355.43C10181.5 3425.98 10150.1 3480.33 10087.6 3480.33C10030.8 3480.33 9996.75 3435.16 9996.3 3361.56C9995.76 3287.89 10031.8 3244.32 10092.2 3243.79C10117.6 3243.79 10136.9 3247.89 10155.7 3257.51L10181.5 3269.17ZM10221.1 3075.77C10221.1 3071.75 10219.6 3070.22 10215.6 3070.22H10187.2C10183.1 3070.22 10181.5 3071.75 10181.5 3075.77V3230.07L10161.8 3220.9C10138.4 3209.76 10117.6 3206.19 10090.7 3206.19C10006.5 3206.73 9955.67 3265.08 9955.67 3361.56C9955.67 3457.97 10003.9 3517.85 10083.1 3517.85C10123.7 3517.85 10156.1 3499.05 10179 3468.12C10183.1 3461.52 10187.2 3463.04 10187.6 3468.66L10190.2 3506.17C10190.7 3509.74 10192.8 3511.78 10196.2 3511.78H10215.6C10219.6 3511.78 10221.1 3509.74 10221.1 3506.17V3075.77ZM9801.88 3371.19V3379.3C9801.88 3444.26 9764.82 3480.79 9700.85 3480.79C9660.76 3480.79 9637.94 3460.55 9637.94 3425.46C9637.94 3393.01 9660.22 3371.19 9707.45 3371.19H9801.88ZM9628.77 3222.49C9625.21 3223.48 9623.7 3226.06 9625.21 3230.07L9631.81 3254.46C9633.33 3257.96 9635.89 3259.02 9639.46 3257.96L9661.29 3251.9C9676.98 3246.82 9696.31 3244.32 9718.14 3244.32C9771.94 3244.32 9801.88 3274.7 9801.88 3328.06V3336.17H9707.45C9635.89 3336.63 9597.31 3373.69 9597.31 3428.04C9597.31 3483.35 9634.37 3517.85 9697.3 3517.85C9743.52 3517.85 9775.44 3504.13 9796.8 3477.22C9802.87 3470.18 9807.41 3469.64 9809.47 3477.75L9810.98 3506.17C9812.05 3509.74 9813.56 3511.78 9817.58 3511.78H9836.91C9840.46 3511.78 9842.44 3509.74 9842.44 3506.17V3327.53C9842.44 3251.9 9794.76 3206.19 9718.58 3206.19C9692.74 3206.19 9669.92 3209.76 9652.11 3215.37L9628.77 3222.49ZM9441.48 3269.17V3355.43C9441.48 3425.98 9410.48 3480.33 9348.1 3480.33C9291.26 3480.33 9257.23 3435.16 9256.69 3361.56C9256.24 3287.89 9292.25 3244.32 9352.11 3243.79C9378.04 3243.79 9397.3 3247.89 9416.09 3257.51L9441.48 3269.17ZM9481.57 3075.77C9481.57 3071.75 9480.06 3070.22 9475.96 3070.22H9447.54C9443.52 3070.22 9441.48 3071.75 9441.48 3075.77V3230.07L9422.16 3220.9C9398.89 3209.76 9378.03 3206.19 9351.14 3206.19C9266.85 3206.73 9216.15 3265.08 9216.15 3361.56C9216.15 3457.97 9264.35 3517.85 9343.48 3517.85C9384.11 3517.85 9416.63 3499.05 9439.43 3468.12C9443.52 3461.52 9447.54 3463.04 9448.08 3468.66L9450.66 3506.17C9451.11 3509.74 9453.16 3511.78 9456.72 3511.78H9475.96C9480.06 3511.78 9481.57 3509.74 9481.57 3506.17V3075.77ZM9097.39 3217.87C9097.39 3214.3 9095.33 3212.34 9091.76 3212.34H9027.8C9024.23 3212.34 9022.2 3214.3 9022.2 3217.87V3243.79C9022.2 3247.34 9024.23 3249.32 9027.8 3249.32H9056.75V3506.17C9056.75 3509.74 9058.27 3511.78 9062.28 3511.78H9091.76C9095.33 3511.78 9097.39 3509.74 9097.39 3506.17V3217.87ZM9070.39 3066.67C9053.73 3066.67 9043.04 3076.81 9043.04 3094.55C9043.04 3111.84 9053.73 3121.98 9070.39 3121.98C9087.14 3121.98 9097.39 3111.84 9097.39 3094.55C9097.39 3076.81 9087.14 3066.67 9070.39 3066.67ZM8842.48 3385.37C8871.43 3394 8884.7 3407.72 8884.7 3431.06C8884.7 3461.52 8857.71 3480.33 8811.55 3480.33C8778.59 3480.33 8749.64 3475.24 8728.33 3468.12L8712.03 3461.99C8709.01 3461 8706.5 3461.99 8705.44 3465.54L8696.36 3490.49C8695.29 3493.97 8696.36 3496.55 8700.45 3498.06L8717.12 3503.67C8742.5 3512.77 8774.49 3517.85 8811.55 3517.85C8883.11 3517.85 8925.24 3485.41 8925.24 3431.06C8925.24 3390.43 8903.95 3364.07 8855.21 3351.86L8782.6 3331.1C8754.7 3322.91 8742.5 3309.27 8742.5 3287.45C8742.5 3261.06 8766.91 3243.79 8809.52 3243.79C8831.35 3243.79 8855.21 3246.82 8871.96 3251.9L8895.84 3258.5C8899.39 3260.01 8901.9 3258.5 8903.41 3254.93L8910.01 3230.6C8911.52 3226.5 8910.01 3224.47 8906.46 3222.95L8882.12 3215.37C8863.32 3209.76 8836.41 3206.19 8809.05 3206.19C8741.53 3206.19 8701.96 3236.67 8701.96 3287.45C8701.96 3328.52 8723.25 3352.93 8769.41 3364.59L8842.48 3385.37ZM8597.36 3211.8C8597.36 3208.25 8595.85 3206.19 8591.75 3206.19C8544.6 3208.25 8513.62 3228.56 8490.25 3266.06C8486.7 3271.15 8483.13 3269.71 8482.16 3265.08L8477.53 3217.87C8477.08 3214.3 8475.02 3212.34 8471.47 3212.34H8452.22C8448.13 3212.34 8446.07 3214.3 8446.07 3217.87V3506.17C8446.07 3509.74 8448.13 3511.78 8452.22 3511.78H8481.1C8485.19 3511.78 8486.7 3509.74 8486.7 3506.17V3408.71C8486.7 3303.12 8525.28 3246.82 8591.75 3243.79C8595.85 3243.79 8597.36 3241.74 8597.36 3238.18V3211.8ZM8118.72 3363.08C8120.78 3282.89 8155.78 3243.79 8213.62 3243.79C8259.86 3243.79 8286.67 3264.11 8286.67 3299.11C8286.67 3322.91 8269.93 3337.16 8236.96 3342.76L8118.72 3363.08ZM8302.45 3502.62C8306 3502.15 8307.53 3499.57 8306.54 3496.02L8299.42 3471.15C8297.89 3467.13 8295.33 3466.08 8291.76 3466.61L8273.03 3472.14C8255.76 3477.75 8235.97 3480.33 8215.13 3480.33C8163.89 3480.33 8129.86 3449.86 8121.75 3397.03L8243.56 3377.26C8299.87 3368.16 8327.3 3342.24 8327.3 3298.58C8327.3 3240.75 8284.71 3206.19 8214.14 3206.19C8129.33 3206.19 8077.56 3266.06 8077.56 3361.56C8077.56 3457.97 8128.89 3517.85 8215.13 3517.85C8238.48 3517.85 8260.3 3515.35 8282.66 3508.23L8302.45 3502.62ZM7988.27 3219.38C7990.25 3214.84 7988.27 3212.34 7984.18 3212.34H7952.72C7949.7 3212.34 7947.66 3213.85 7946.59 3216.88L7876.1 3373.69C7864.44 3401.12 7854.74 3430.07 7851.17 3448.8C7849.19 3454.4 7844.12 3454.4 7842.61 3448.8C7837.97 3430.07 7829.34 3401.65 7817.21 3373.69L7746.64 3216.88C7745.67 3213.85 7743.61 3212.34 7740.51 3212.34H7709.58C7705.04 3212.34 7702.98 3214.84 7705.04 3219.38L7786.2 3400.14C7800.91 3434.09 7815.7 3475.24 7823.81 3506.69C7824.33 3510.26 7826.83 3511.78 7829.86 3511.78H7863.37C7866.94 3511.78 7868.98 3510.26 7869.97 3506.69C7878.6 3475.24 7892.84 3434.09 7907.03 3400.14L7988.27 3219.38ZM7592.32 3217.87C7592.32 3214.3 7590.29 3212.34 7586.72 3212.34H7522.82C7519.27 3212.34 7517.21 3214.3 7517.21 3217.87V3243.79C7517.21 3247.34 7519.27 3249.32 7522.82 3249.32H7551.69V3506.17C7551.69 3509.74 7553.23 3511.78 7557.3 3511.78H7586.72C7590.29 3511.78 7592.32 3509.74 7592.32 3506.17V3217.87ZM7565.41 3066.67C7548.67 3066.67 7538.05 3076.81 7538.05 3094.55C7538.05 3111.84 7548.67 3121.98 7565.41 3121.98C7582.18 3121.98 7592.32 3111.84 7592.32 3094.55C7592.32 3076.81 7582.18 3066.67 7565.41 3066.67ZM7182.2 3217.87C7182.2 3214.3 7180.16 3212.34 7176.59 3212.34H7157.34C7153.25 3212.34 7151.29 3214.3 7151.29 3217.87V3506.17C7151.29 3509.74 7153.25 3511.78 7157.34 3511.78H7186.29C7190.31 3511.78 7191.84 3509.74 7191.84 3506.17V3369.15C7191.84 3289.95 7228.36 3243.79 7290.37 3243.79C7336.53 3243.79 7363.97 3276.31 7363.97 3330.56V3506.17C7363.97 3509.74 7365.93 3511.78 7369.5 3511.78H7398.97C7402.46 3511.78 7404.5 3509.74 7404.5 3506.17V3327.53C7404.5 3252.43 7362.38 3206.19 7293.84 3206.19C7250.73 3206.19 7217.74 3222.95 7193.88 3256.97C7190.31 3261.52 7186.29 3261.52 7184.7 3256L7182.2 3217.87ZM7015.23 3087.43C7015.23 3083.88 7013.19 3081.82 7009.62 3081.82H6979.16C6975.59 3081.82 6973.61 3083.88 6973.61 3087.43V3342.76C6973.61 3429.03 6930.42 3479.26 6855.83 3479.26C6780.72 3479.26 6737.59 3429.03 6737.59 3342.76V3087.43C6737.59 3083.88 6735.55 3081.82 6731.98 3081.82H6702.04C6698.49 3081.82 6696.43 3083.88 6696.43 3087.43V3342.76C6696.43 3452.89 6755.32 3517.85 6855.83 3517.85C6956.34 3517.85 7015.23 3452.89 7015.23 3342.76V3087.43Z" fill="#24167B"/>
</g>
<mask id="mask21_27_2161" style="mask-type:luminance" maskUnits="userSpaceOnUse" x="5976" y="-6924" width="9664" height="11390">
<path d="M5976.32 -6923.28H15639.2V4465.91H5976.32V-6923.28Z" fill="white"/>
</mask>
<g mask="url(#mask21_27_2161)">
<path d="M14569.7 3199.15C14565.1 3200.58 14563.1 3204.23 14564.6 3208.77L14579.3 3259.02C14580.8 3263.56 14583.8 3265.62 14588.9 3264.63L14613.3 3256.96C14629.5 3252.42 14646.8 3250.39 14666.1 3250.39C14716.3 3250.39 14743.2 3272.74 14743.2 3313.81V3317.83H14658C14577.8 3317.83 14534.6 3358.98 14534.6 3422.95C14534.6 3486.4 14576.8 3525.49 14651.9 3525.49C14693.5 3525.49 14724 3512.32 14745.3 3489.42C14753.9 3481.31 14757.9 3481.31 14762 3490.49L14767.6 3511.78C14769.1 3515.79 14771.6 3517.85 14776.3 3517.85H14810.2C14815.3 3517.85 14817.9 3515.35 14817.9 3510.26V3311.23C14817.9 3229.08 14761.5 3181.33 14669.6 3181.33C14641.7 3181.33 14618.8 3184.9 14595.5 3191.48L14569.7 3199.15ZM14743.2 3377.26V3381.88C14743.2 3432.05 14713.8 3458.5 14660 3458.5C14627.5 3458.5 14609.2 3442.2 14609.2 3415.83C14609.2 3393.01 14625 3377.26 14658 3377.26H14743.2Z" fill="#24167B"/>
</g>
<mask id="mask22_27_2161" style="mask-type:luminance" maskUnits="userSpaceOnUse" x="5976" y="-6924" width="9664" height="11390">
<path d="M5976.32 -6923.28H15639.2V4465.91H5976.32V-6923.28Z" fill="white"/>
</mask>
<g mask="url(#mask22_27_2161)">
<path d="M14149.4 3195.05C14148.4 3190.51 14145.8 3188.45 14141.3 3188.45H14107.2C14102.2 3188.45 14099.6 3190.96 14099.6 3195.58V3510.26C14099.6 3515.35 14102.2 3517.85 14107.2 3517.85H14167.6C14172.2 3517.85 14175.2 3515.35 14175.2 3510.26V3351.86C14175.2 3286.38 14204.2 3249.32 14254.4 3249.32C14291.5 3249.32 14313.8 3275.24 14313.8 3317.91V3510.26C14313.8 3515.35 14316.3 3517.85 14320.9 3517.85H14381.8C14386.4 3517.85 14389 3515.35 14389 3510.26V3309.72C14389 3229.53 14342.3 3181.33 14264.6 3181.33C14231.6 3181.33 14197.6 3193.01 14171.2 3222.95C14163.5 3229.53 14159.5 3230.6 14155.4 3222.49L14149.4 3195.05Z" fill="#24167B"/>
</g>
<mask id="mask23_27_2161" style="mask-type:luminance" maskUnits="userSpaceOnUse" x="5976" y="-6924" width="9664" height="11390">
<path d="M5976.32 -6923.28H15639.2V4465.91H5976.32V-6923.28Z" fill="white"/>
</mask>
<g mask="url(#mask23_27_2161)">
<path d="M13731.6 3199.15C13727 3200.58 13725 3204.23 13726.1 3208.77L13741.3 3259.02C13742.3 3263.56 13745.8 3265.62 13750.9 3264.63L13775.3 3256.96C13791.5 3252.42 13808.2 3250.39 13828.1 3250.39C13878.3 3250.39 13904.7 3272.74 13904.7 3313.81V3317.83H13820C13739.8 3317.83 13696.1 3358.98 13696.1 3422.95C13696.1 3486.4 13738.2 3525.49 13813.8 3525.49C13855.4 3525.49 13885.9 3512.32 13906.8 3489.42C13915.9 3481.31 13920 3481.31 13924 3490.49L13929.6 3511.78C13930.6 3515.79 13933.7 3517.85 13938.2 3517.85H13972.2C13976.8 3517.85 13979.8 3515.35 13979.8 3510.26V3311.23C13979.8 3229.08 13923.5 3181.33 13831.7 3181.33C13803.7 3181.33 13780.3 3184.9 13757.5 3191.48L13731.6 3199.15ZM13904.7 3377.26V3381.88C13904.7 3432.05 13875.8 3458.5 13821.9 3458.5C13789.5 3458.5 13771.2 3442.2 13771.2 3415.83C13771.2 3393.01 13786.4 3377.26 13820 3377.26H13904.7Z" fill="#24167B"/>
</g>
<mask id="mask24_27_2161" style="mask-type:luminance" maskUnits="userSpaceOnUse" x="5976" y="-6924" width="9664" height="11390">
<path d="M5976.32 -6923.28H15639.2V4465.91H5976.32V-6923.28Z" fill="white"/>
</mask>
<g mask="url(#mask24_27_2161)">
<path d="M13602.7 3507.68C13607.8 3506.17 13609.8 3503.14 13608.3 3498.06L13592.5 3447.28C13591 3443.27 13588 3441.23 13582.9 3442.2L13560.6 3449.32C13543.8 3453.88 13524.5 3456.46 13510.3 3456.46C13452.5 3456.46 13423.5 3417.87 13423.5 3351.86C13423.5 3288.42 13451.5 3249.4 13511.8 3249.4C13524 3249.4 13540.2 3251.36 13557 3256.96L13580.4 3263.04C13584.4 3264.55 13588 3262.57 13589 3258.5L13604.7 3207.26C13606.2 3202.64 13604.2 3199.15 13599.1 3197.56L13570.2 3189.44C13548.9 3183.37 13529.6 3181.33 13511.8 3181.33C13405.2 3181.33 13348.9 3247.34 13348.9 3352.93C13348.9 3458.5 13405.8 3525.49 13509.8 3525.49C13530.6 3525.49 13552.4 3521.94 13572.7 3516.34L13602.7 3507.68Z" fill="#24167B"/>
</g>
<mask id="mask25_27_2161" style="mask-type:luminance" maskUnits="userSpaceOnUse" x="5976" y="-6924" width="9664" height="11390">
<path d="M5976.32 -6923.28H15639.2V4465.91H5976.32V-6923.28Z" fill="white"/>
</mask>
<g mask="url(#mask25_27_2161)">
<path d="M13151.9 3389.46C13174.3 3396.04 13183.9 3406.21 13183.9 3422.95C13183.9 3443.71 13164.7 3456.46 13131.7 3456.46C13106.3 3456.46 13070.2 3452.37 13044.4 3445.3L13020 3438.18C13016 3437.14 13012.4 3439.17 13011.3 3443.27L12995.6 3493.96C12994.1 3498.6 12996.1 3502.08 13001.2 3503.67L13027.6 3511.25C13060.6 3520.43 13096.2 3525.49 13131.7 3525.49C13211.9 3525.49 13259.1 3486.4 13259.1 3422.95C13259.1 3373.69 13232.7 3343.23 13173.8 3328.05L13105.8 3310.79C13084.5 3304.64 13075.3 3295.01 13075.3 3279.34C13075.3 3261.06 13093.6 3249.4 13124.6 3249.4C13144.9 3249.4 13172.2 3252.42 13190.5 3257.51L13220.5 3265.62C13225.1 3267.13 13228.6 3265.08 13230.1 3260.53L13244.3 3209.22C13245.8 3204.68 13243.3 3201.11 13238.8 3200.14L13208.8 3192.47C13186.5 3186.42 13155 3181.33 13124.6 3181.33C13045.9 3181.33 13000.2 3218.39 13000.2 3279.34C13000.2 3328.05 13026.6 3357.47 13083.4 3371.65L13151.9 3389.46Z" fill="#24167B"/>
</g>
<mask id="mask26_27_2161" style="mask-type:luminance" maskUnits="userSpaceOnUse" x="5976" y="-6924" width="9664" height="11390">
<path d="M5976.32 -6923.28H15639.2V4465.91H5976.32V-6923.28Z" fill="white"/>
</mask>
<g mask="url(#mask26_27_2161)">
<path d="M12837.2 3025.51C12808.8 3025.51 12792.1 3042.26 12792.1 3070.68C12792.1 3100.16 12808.8 3116.92 12837.2 3116.92C12866.2 3116.92 12882.4 3100.16 12882.4 3070.68C12882.4 3042.26 12866.2 3025.51 12837.2 3025.51ZM12882.9 3195.58C12882.9 3190.96 12880.4 3188.45 12875.4 3188.45H12774.3C12769.8 3188.45 12766.7 3190.96 12766.7 3195.58V3248.33C12766.7 3252.95 12769.8 3255.45 12774.3 3255.45H12807.8V3510.26C12807.8 3515.35 12810.4 3517.85 12814.9 3517.85H12875.4C12880.4 3517.85 12882.9 3515.35 12882.9 3510.26V3195.58Z" fill="#24167B"/>
</g>
<mask id="mask27_27_2161" style="mask-type:luminance" maskUnits="userSpaceOnUse" x="5976" y="-6924" width="9664" height="11390">
<path d="M5976.32 -6923.28H15639.2V4465.91H5976.32V-6923.28Z" fill="white"/>
</mask>
<g mask="url(#mask27_27_2161)">
<path d="M12667.2 3507.68C12671.8 3506.17 12673.8 3503.14 12672.8 3498.06L12657.1 3447.28C12655.5 3443.27 12652 3441.23 12647.4 3442.2L12625.1 3449.32C12607.8 3453.88 12589 3456.46 12574.8 3456.46C12517 3456.46 12488 3417.87 12488 3351.86C12488 3288.42 12515.4 3249.4 12576.3 3249.4C12588.5 3249.4 12604.8 3251.36 12621.5 3256.96L12644.9 3263.04C12649 3264.55 12652 3262.57 12653.5 3258.5L12669.3 3207.26C12670.8 3202.64 12668.7 3199.15 12663.6 3197.56L12634.7 3189.44C12613.4 3183.37 12593.6 3181.33 12576.3 3181.33C12469.2 3181.33 12412.9 3247.34 12412.9 3352.93C12412.9 3458.5 12470.2 3525.49 12574.3 3525.49C12595.1 3525.49 12617 3521.94 12637.3 3516.34L12667.2 3507.68Z" fill="#24167B"/>
</g>
<mask id="mask28_27_2161" style="mask-type:luminance" maskUnits="userSpaceOnUse" x="5976" y="-6924" width="9664" height="11390">
<path d="M5976.32 -6923.28H15639.2V4465.91H5976.32V-6923.28Z" fill="white"/>
</mask>
<g mask="url(#mask28_27_2161)">
<path d="M12068.2 3195.05C12067.2 3190.51 12064.7 3188.45 12060.1 3188.45H12026.2C12021.1 3188.45 12018.5 3190.96 12018.5 3195.58V3510.26C12018.5 3515.35 12021.1 3517.85 12026.2 3517.85H12086.6C12091.1 3517.85 12094.1 3515.35 12094.1 3510.26V3351.86C12094.1 3286.38 12123.1 3249.32 12173.3 3249.32C12210.4 3249.32 12232.7 3275.24 12232.7 3317.91V3510.26C12232.7 3515.35 12235.3 3517.85 12239.8 3517.85H12300.7C12305.3 3517.85 12307.8 3515.35 12307.8 3510.26V3309.72C12307.8 3229.53 12261.1 3181.33 12183.5 3181.33C12150.4 3181.33 12116.5 3193.01 12090 3222.95C12082.5 3229.53 12078.4 3230.6 12074.3 3222.49L12068.2 3195.05Z" fill="#24167B"/>
</g>
<mask id="mask29_27_2161" style="mask-type:luminance" maskUnits="userSpaceOnUse" x="5976" y="-6924" width="9664" height="11390">
<path d="M5976.32 -6923.28H15639.2V4465.91H5976.32V-6923.28Z" fill="white"/>
</mask>
<g mask="url(#mask29_27_2161)">
<path d="M11650.5 3199.15C11646 3200.58 11643.9 3204.23 11644.9 3208.77L11660.1 3259.02C11661.1 3263.56 11664.7 3265.62 11669.3 3264.63L11694.2 3256.96C11710.4 3252.42 11727.1 3250.39 11746.9 3250.39C11797.2 3250.39 11823.6 3272.74 11823.6 3313.81V3317.83H11738.8C11658.6 3317.83 11615 3358.98 11615 3422.95C11615 3486.4 11657.1 3525.49 11732.8 3525.49C11774.4 3525.49 11804.8 3512.32 11825.6 3489.42C11834.8 3481.31 11838.8 3481.31 11842.9 3490.49L11848.5 3511.78C11849.5 3515.79 11852.5 3517.85 11857.1 3517.85H11891.1C11895.6 3517.85 11898.7 3515.35 11898.7 3510.26V3311.23C11898.7 3229.08 11841.9 3181.33 11750.5 3181.33C11722.6 3181.33 11699.2 3184.9 11676.4 3191.48L11650.5 3199.15ZM11823.6 3377.26V3381.88C11823.6 3432.05 11794.7 3458.5 11740.9 3458.5C11708.3 3458.5 11690.1 3442.2 11690.1 3415.83C11690.1 3393.01 11705.3 3377.26 11738.8 3377.26H11823.6Z" fill="#24167B"/>
</g>
<mask id="mask30_27_2161" style="mask-type:luminance" maskUnits="userSpaceOnUse" x="5976" y="-6924" width="9664" height="11390">
<path d="M5976.32 -6923.28H15639.2V4465.91H5976.32V-6923.28Z" fill="white"/>
</mask>
<g mask="url(#mask30_27_2161)">
<path d="M11538.9 3189C11538.9 3184.36 11535.8 3181.33 11531.2 3181.33C11481.5 3182.85 11451 3200.13 11423.6 3235.14C11417.5 3242.28 11414.5 3240.74 11410.4 3233.1L11399.2 3194.53C11397.7 3190.51 11395.2 3188.45 11390.6 3188.45H11356.7C11351.5 3188.45 11349 3190.96 11349 3195.58V3510.26C11349 3515.35 11351.5 3517.85 11356.7 3517.85H11417C11421.6 3517.85 11424.6 3515.35 11424.6 3510.26V3429.55C11424.6 3304.64 11457.1 3252.87 11531.2 3249.32C11535.8 3249.32 11538.9 3246.82 11538.9 3242.28V3189Z" fill="#24167B"/>
</g>
<mask id="mask31_27_2161" style="mask-type:luminance" maskUnits="userSpaceOnUse" x="5976" y="-6924" width="9664" height="11390">
<path d="M5976.32 -6923.28H15639.2V4465.91H5976.32V-6923.28Z" fill="white"/>
</mask>
<g mask="url(#mask31_27_2161)">
<path d="M11005.4 3259.02V3111.31H11228.2C11233.3 3111.31 11235.8 3109.25 11237.4 3105.24L11252.1 3050.89C11253.6 3046.35 11250.5 3042.78 11245.5 3042.78H10936.3C10931.2 3042.78 10928.7 3045.83 10928.7 3050.37V3510.26C10928.7 3515.35 10931.2 3517.85 10936.3 3517.85H10998.2C11002.9 3517.85 11005.4 3515.35 11005.4 3510.26V3327.53H11199.2C11203.9 3327.53 11206.4 3324.95 11206.4 3319.89V3266.61C11206.4 3261.52 11203.9 3259.02 11199.2 3259.02H11005.4Z" fill="#24167B"/>
</g>
</g>
<defs>
<clipPath id="clip0_27_2161">
<rect width="14913" height="4630" fill="white"/>
</clipPath>
</defs>
</svg>
