<svg width="1470" height="706" viewBox="0 0 1470 706" fill="none" xmlns="http://www.w3.org/2000/svg">
<path d="M105.649 561.345C105.649 560.754 105.313 560.423 104.713 560.423H99.5877C98.9876 560.423 98.6516 560.754 98.6516 561.345V603.685C98.6516 617.991 91.3904 626.326 78.8243 626.326C66.1743 626.326 58.9131 617.991 58.9131 603.685V561.345C58.9131 560.754 58.577 560.423 57.9769 560.423H52.9362C52.3361 560.423 52 560.754 52 561.345V603.685C52 621.952 61.9136 632.723 78.8243 632.723C95.7351 632.723 105.649 621.952 105.649 603.685V561.345ZM133.757 582.982C133.757 582.391 133.421 582.06 132.821 582.06H129.569C128.885 582.06 128.548 582.391 128.548 582.982V630.784C128.548 631.375 128.885 631.706 129.569 631.706H134.441C135.126 631.706 135.378 631.375 135.378 630.784V608.059C135.378 594.924 141.535 587.274 151.952 587.274C159.73 587.274 164.338 592.665 164.338 601.663V630.784C164.338 631.375 164.674 631.706 165.274 631.706H170.231C170.831 631.706 171.167 631.375 171.167 630.784V601.155C171.167 588.693 164.074 581.043 152.54 581.043C145.279 581.043 139.722 583.822 135.714 589.379C135.114 590.218 134.429 590.218 134.177 589.296L133.757 582.982ZM198.256 557.893C195.435 557.893 193.647 559.572 193.647 562.433C193.647 565.377 195.435 567.068 198.256 567.068C201.076 567.068 202.781 565.389 202.781 562.433C202.793 559.584 201.076 557.893 198.256 557.893ZM202.793 582.982C202.793 582.391 202.456 582.06 201.856 582.06H191.091C190.491 582.06 190.154 582.391 190.154 582.982V587.274C190.154 587.865 190.491 588.196 191.091 588.196H195.963V630.784C195.963 631.375 196.215 631.706 196.9 631.706H201.856C202.456 631.706 202.793 631.375 202.793 630.784V582.982ZM269.427 583.23C269.763 582.474 269.427 582.048 268.743 582.048H263.45C262.934 582.048 262.598 582.296 262.43 582.805L250.548 608.816C248.58 613.356 246.96 618.156 246.36 621.278C246.024 622.2 245.159 622.2 244.907 621.278C244.139 618.168 242.687 613.451 240.635 608.816L228.753 582.805C228.585 582.296 228.237 582.048 227.733 582.048H222.524C221.756 582.048 221.408 582.474 221.756 583.23L235.426 613.191C237.898 618.83 240.383 625.653 241.751 630.867C241.835 631.458 242.267 631.706 242.771 631.706H248.412C249.012 631.706 249.348 631.458 249.528 630.867C250.98 625.653 253.369 618.83 255.769 613.191L269.427 583.23ZM322.32 630.193C322.92 630.11 323.172 629.684 323.004 629.093L321.804 624.967C321.552 624.293 321.12 624.127 320.52 624.21L317.363 625.132C314.459 626.054 311.122 626.48 307.618 626.48C298.988 626.48 293.263 621.432 291.895 612.682L312.406 609.395C321.888 607.882 326.509 603.59 326.509 596.354C326.509 586.671 319.332 581.031 307.462 581.031C293.191 581.031 284.478 590.963 284.478 606.782C284.478 622.779 293.107 632.711 307.63 632.711C311.554 632.711 315.239 632.285 318.995 631.115L322.32 630.193ZM291.391 607.054C291.727 593.753 297.632 587.274 307.366 587.274C315.143 587.274 319.668 590.644 319.668 596.449C319.668 600.41 316.847 602.762 311.29 603.685L291.391 607.054ZM371.96 581.965C371.96 581.291 371.708 581.043 371.024 581.043C363.079 581.291 357.87 584.744 353.933 590.975C353.333 591.814 352.733 591.566 352.565 590.726L351.797 582.982C351.713 582.391 351.365 582.06 350.777 582.06H347.524C346.84 582.06 346.504 582.391 346.504 582.982V630.784C346.504 631.375 346.84 631.706 347.524 631.706H352.397C353.081 631.706 353.333 631.375 353.333 630.784V614.621C353.333 597.111 359.826 587.771 371.024 587.262C371.708 587.262 371.96 586.931 371.96 586.34V581.965ZM413.223 610.755C418.096 612.186 420.316 614.456 420.316 618.334C420.316 623.382 415.791 626.504 408.014 626.504C402.457 626.504 397.596 625.664 394.008 624.399L391.271 623.477C390.755 623.312 390.335 623.477 390.155 624.068L388.619 628.195C388.451 628.786 388.619 629.2 389.303 629.46L392.123 630.382C396.396 631.895 401.773 632.735 408.014 632.735C420.064 632.735 427.157 627.343 427.157 618.346C427.157 611.618 423.569 607.232 415.371 605.21L403.153 601.758C398.448 600.41 396.408 598.14 396.408 594.522C396.408 590.147 400.513 587.286 407.69 587.286C411.362 587.286 415.383 587.794 418.204 588.634L422.224 589.733C422.824 589.982 423.244 589.733 423.508 589.142L424.625 585.098C424.877 584.425 424.625 583.999 424.025 583.833L419.92 582.568C416.763 581.646 412.227 581.055 407.618 581.055C396.252 581.055 389.591 586.103 389.591 594.522C389.591 601.344 393.18 605.376 400.957 607.315L413.223 610.755ZM451.581 557.893C448.761 557.893 446.972 559.572 446.972 562.433C446.972 565.377 448.761 567.068 451.581 567.068C454.402 567.068 456.106 565.389 456.106 562.433C456.118 559.584 454.402 557.893 451.581 557.893ZM456.118 582.982C456.118 582.391 455.782 582.06 455.182 582.06H444.416C443.816 582.06 443.48 582.391 443.48 582.982V587.274C443.48 587.865 443.816 588.196 444.416 588.196H449.289V630.784C449.289 631.375 449.541 631.706 450.225 631.706H455.182C455.782 631.706 456.118 631.375 456.118 630.784V582.982ZM520.796 559.418C520.796 558.744 520.544 558.413 519.86 558.413H515.071C514.387 558.413 514.051 558.744 514.051 559.418V585.004L510.799 583.491C506.874 581.634 503.369 581.055 498.833 581.055C484.646 581.138 476.101 590.738 476.101 606.806C476.101 622.803 484.214 632.735 497.549 632.735C504.378 632.735 509.851 629.625 513.691 624.399C514.375 623.394 515.059 623.643 515.143 624.565L515.576 630.796C515.659 631.387 516.008 631.718 516.596 631.718H519.848C520.532 631.718 520.784 631.387 520.784 630.796V559.418H520.796ZM514.039 591.483V605.789C514.039 617.494 508.83 626.492 498.317 626.492C488.751 626.492 483.026 618.996 482.942 606.794C482.858 594.593 488.919 587.357 499.001 587.262C503.358 587.262 506.61 587.936 509.767 589.532L514.039 591.483ZM545.568 583.739C544.968 583.904 544.716 584.33 544.968 585.004L546.084 589.047C546.336 589.639 546.769 589.804 547.369 589.639L551.041 588.634C553.694 587.794 556.934 587.369 560.607 587.369C569.668 587.369 574.709 592.417 574.709 601.261V602.609H558.818C546.769 602.692 540.276 608.84 540.276 617.837C540.276 627.012 546.517 632.735 557.102 632.735C564.879 632.735 570.256 630.465 573.845 626.007C574.865 624.825 575.633 624.742 575.981 626.09L576.233 630.808C576.401 631.399 576.665 631.73 577.349 631.73H580.602C581.202 631.73 581.538 631.399 581.538 630.808V601.178C581.538 588.634 573.509 581.067 560.691 581.067C556.334 581.067 552.493 581.658 549.493 582.58L545.568 583.739ZM574.709 608.402V609.75C574.709 620.521 568.468 626.587 557.702 626.587C550.957 626.587 547.105 623.217 547.105 617.412C547.105 612.02 550.861 608.402 558.807 608.402H574.709ZM645.281 559.418C645.281 558.744 645.029 558.413 644.344 558.413H639.556C638.872 558.413 638.62 558.744 638.62 559.418V585.004L635.283 583.491C631.358 581.634 627.854 581.055 623.317 581.055C609.131 581.138 600.585 590.738 600.585 606.806C600.585 622.803 608.699 632.735 622.033 632.735C628.862 632.735 634.335 629.625 638.175 624.399C638.859 623.394 639.544 623.643 639.628 624.565L640.06 630.796C640.144 631.387 640.492 631.718 641.08 631.718H644.332C645.017 631.718 645.269 631.387 645.269 630.796V559.418H645.281ZM638.608 591.483V605.789C638.608 617.494 633.315 626.492 622.801 626.492C613.235 626.492 607.51 618.996 607.426 606.794C607.342 594.593 613.403 587.357 623.569 587.262C627.842 587.262 631.082 587.936 634.251 589.532L638.608 591.483ZM703.202 630.193C703.802 630.11 704.054 629.684 703.886 629.093L702.686 624.967C702.434 624.293 702.002 624.127 701.402 624.21L698.245 625.132C695.257 626.054 692.004 626.48 688.416 626.48C679.87 626.48 674.145 621.432 672.777 612.682L693.288 609.395C702.77 607.882 707.391 603.59 707.391 596.354C707.391 586.671 700.214 581.031 688.344 581.031C674.073 581.031 665.36 590.963 665.36 606.782C665.36 622.779 673.989 632.711 688.428 632.711C692.448 632.711 696.121 632.285 699.793 631.115L703.202 630.193ZM672.273 607.054C672.609 593.753 678.514 587.274 688.248 587.274C696.025 587.274 700.55 590.644 700.55 596.449C700.55 600.41 697.729 602.762 692.172 603.685L672.273 607.054Z" fill="#23B5D3"/>
<path d="M1406.46 609.408V610.164C1406.46 618.5 1401.5 622.874 1392.45 622.874C1386.98 622.874 1383.91 620.178 1383.91 615.804C1383.91 612.02 1386.56 609.408 1392.1 609.408H1406.46ZM1377.23 579.861C1376.46 580.109 1376.12 580.7 1376.38 581.457L1378.85 589.792C1379.11 590.549 1379.62 590.892 1380.47 590.715L1384.58 589.45C1387.31 588.693 1390.22 588.35 1393.46 588.35C1401.92 588.35 1406.45 592.051 1406.45 598.873V599.547H1392.09C1378.59 599.547 1371.33 606.369 1371.33 616.974C1371.33 627.497 1378.42 633.976 1391.06 633.976C1398.07 633.976 1403.19 631.789 1406.78 628.006C1408.23 626.658 1408.92 626.658 1409.6 628.171L1410.54 631.706C1410.79 632.38 1411.22 632.711 1411.99 632.711H1417.72C1418.57 632.711 1419 632.286 1419 631.446V598.447C1419 584.815 1409.52 576.905 1394.05 576.905C1389.34 576.905 1385.5 577.496 1381.58 578.584L1377.23 579.861Z" fill="#23B5D3"/>
<path d="M1306.49 579.187C1306.32 578.43 1305.89 578.087 1305.12 578.087H1299.4C1298.55 578.087 1298.12 578.513 1298.12 579.27V631.458C1298.12 632.297 1298.55 632.723 1299.4 632.723H1309.57C1310.33 632.723 1310.85 632.297 1310.85 631.458V605.198C1310.85 594.261 1315.72 588.196 1324.18 588.196C1330.42 588.196 1334.18 592.488 1334.18 599.558V631.458C1334.18 632.297 1334.61 632.723 1335.38 632.723H1345.63C1346.4 632.723 1346.83 632.297 1346.83 631.458V598.21C1346.83 584.909 1338.97 576.917 1325.9 576.917C1320.34 576.917 1314.62 578.856 1310.18 583.822C1308.89 584.921 1308.21 585.087 1307.52 583.739L1306.49 579.187Z" fill="#23B5D3"/>
<path d="M1265.3 609.408V610.164C1265.3 618.5 1260.43 622.874 1251.38 622.874C1245.91 622.874 1242.83 620.178 1242.83 615.804C1242.83 612.02 1245.4 609.408 1251.03 609.408H1265.3ZM1236.17 579.861C1235.4 580.109 1235.06 580.7 1235.24 581.457L1237.8 589.792C1237.97 590.549 1238.57 590.892 1239.42 590.715L1243.53 589.45C1246.27 588.693 1249.09 588.35 1252.41 588.35C1260.87 588.35 1265.31 592.051 1265.31 598.873V599.547H1251.04C1237.54 599.547 1230.2 606.369 1230.2 616.974C1230.2 627.497 1237.29 633.976 1250.02 633.976C1257.03 633.976 1262.16 631.789 1265.66 628.006C1267.2 626.658 1267.88 626.658 1268.57 628.171L1269.5 631.706C1269.67 632.38 1270.19 632.711 1270.95 632.711H1276.68C1277.45 632.711 1277.96 632.286 1277.96 631.446V598.447C1277.96 584.815 1268.48 576.905 1253.01 576.905C1248.31 576.905 1244.38 577.496 1240.54 578.584L1236.17 579.861Z" fill="#23B5D3"/>
<path d="M1214.47 631.044C1215.32 630.796 1215.67 630.205 1215.41 629.448L1212.76 621.03C1212.5 620.356 1211.99 620.025 1211.14 620.19L1207.38 621.373C1204.56 622.129 1201.32 622.555 1198.92 622.555C1189.17 622.555 1184.31 616.159 1184.31 605.222C1184.31 594.616 1189.02 588.22 1199.18 588.22C1201.23 588.22 1203.97 588.551 1206.79 589.485L1210.72 590.49C1211.4 590.738 1212 590.407 1212.17 589.733L1214.82 581.232C1215.07 580.476 1214.74 579.885 1213.88 579.636L1209.01 578.288C1205.42 577.283 1202.18 576.941 1199.18 576.941C1181.24 576.941 1171.76 587.877 1171.76 605.388C1171.76 622.898 1181.32 634 1198.85 634C1202.35 634 1206.02 633.409 1209.44 632.487L1214.47 631.044Z" fill="#23B5D3"/>
<path d="M1138.6 611.429C1142.35 612.529 1143.97 614.207 1143.97 616.986C1143.97 620.438 1140.72 622.543 1135.18 622.543C1130.9 622.543 1124.84 621.869 1120.49 620.687L1116.38 619.504C1115.7 619.339 1115.1 619.67 1114.93 620.344L1112.28 628.762C1112.03 629.519 1112.36 630.11 1113.21 630.358L1117.65 631.623C1123.21 633.137 1129.19 633.976 1135.16 633.976C1148.67 633.976 1156.61 627.497 1156.61 616.974C1156.61 608.804 1152.17 603.756 1142.26 601.237L1130.81 598.376C1127.22 597.371 1125.68 595.763 1125.68 593.162C1125.68 590.135 1128.76 588.196 1133.98 588.196C1137.4 588.196 1142.01 588.705 1145.08 589.544L1150.12 590.892C1150.89 591.14 1151.49 590.809 1151.74 590.052L1154.13 581.551C1154.38 580.795 1153.96 580.204 1153.19 579.955L1148.15 578.773C1144.39 577.768 1139.09 576.917 1133.96 576.917C1120.73 576.917 1113.03 583.065 1113.03 593.162C1113.03 601.237 1117.47 606.12 1127.04 608.485L1138.6 611.429Z" fill="#23B5D3"/>
<path d="M1093.31 579.281C1093.31 578.525 1092.88 578.099 1092.03 578.099H1075.02C1074.26 578.099 1073.74 578.525 1073.74 579.281V588.031C1073.74 588.787 1074.26 589.213 1075.02 589.213H1080.66V631.47C1080.66 632.309 1081.1 632.735 1081.86 632.735H1092.03C1092.88 632.735 1093.31 632.309 1093.31 631.47V579.281ZM1085.63 551C1080.84 551 1078.02 553.861 1078.02 558.579C1078.02 563.462 1080.84 566.24 1085.63 566.24C1090.51 566.24 1093.24 563.462 1093.24 558.579C1093.23 553.861 1090.49 551 1085.63 551Z" fill="#23B5D3"/>
<path d="M1057.01 631.044C1057.78 630.796 1058.12 630.205 1057.94 629.448L1055.29 621.03C1055.04 620.356 1054.44 620.025 1053.67 620.19L1049.91 621.373C1047.01 622.129 1043.85 622.555 1041.45 622.555C1031.71 622.555 1026.85 616.159 1026.85 605.222C1026.85 594.616 1031.46 588.22 1041.72 588.22C1043.77 588.22 1046.51 588.551 1049.33 589.485L1053.25 590.49C1053.94 590.738 1054.45 590.407 1054.7 589.733L1057.36 581.232C1057.61 580.476 1057.27 579.885 1056.42 579.636L1051.55 578.288C1047.96 577.283 1044.62 576.941 1041.72 576.941C1023.69 576.941 1014.21 587.877 1014.21 605.388C1014.21 622.898 1023.86 634 1041.38 634C1044.89 634 1048.56 633.409 1051.98 632.487L1057.01 631.044Z" fill="#23B5D3"/>
<path d="M956.192 579.187C956.024 578.43 955.592 578.087 954.824 578.087H949.099C948.246 578.087 947.814 578.513 947.814 579.27V631.458C947.814 632.297 948.246 632.723 949.099 632.723H959.264C960.032 632.723 960.549 632.297 960.549 631.458V605.198C960.549 594.261 965.421 588.196 973.883 588.196C980.124 588.196 983.88 592.488 983.88 599.558V631.458C983.88 632.297 984.312 632.723 985.08 632.723H995.33C996.098 632.723 996.53 632.297 996.53 631.458V598.21C996.53 584.909 988.669 576.917 975.599 576.917C970.042 576.917 964.317 578.856 959.876 583.822C958.592 584.921 957.908 585.087 957.224 583.739L956.192 579.187Z" fill="#23B5D3"/>
<path d="M915.013 609.408V610.164C915.013 618.5 910.14 622.874 901.09 622.874C895.617 622.874 892.545 620.178 892.545 615.804C892.545 612.02 895.113 609.408 900.742 609.408H915.013ZM885.872 579.861C885.104 580.109 884.756 580.7 884.936 581.457L887.504 589.792C887.672 590.549 888.272 590.892 889.041 590.715L893.229 589.45C895.966 588.693 898.786 588.35 902.111 588.35C910.572 588.35 915.013 592.051 915.013 598.873V599.547H900.742C887.24 599.547 879.895 606.369 879.895 616.974C879.895 627.497 886.988 633.976 899.722 633.976C906.731 633.976 911.856 631.789 915.361 628.006C916.897 626.658 917.581 626.658 918.265 628.171L919.201 631.706C919.369 632.38 919.885 632.711 920.654 632.711H926.379C927.147 632.711 927.663 632.286 927.663 631.446V598.447C927.663 584.815 918.097 576.905 902.711 576.905C898.006 576.905 894.081 577.496 890.241 578.584L885.872 579.861Z" fill="#23B5D3"/>
<path d="M867.077 578.182C867.077 577.425 866.561 576.917 865.793 576.917C857.415 577.165 852.291 579.943 847.682 585.843C846.662 586.943 846.146 586.765 845.462 585.512L843.577 579.116C843.325 578.442 842.893 578.111 842.125 578.111H836.4C835.548 578.111 835.116 578.536 835.116 579.293V631.481C835.116 632.321 835.548 632.747 836.4 632.747H846.566C847.334 632.747 847.85 632.321 847.85 631.481V618.097C847.85 597.395 853.323 588.811 865.793 588.22C866.561 588.22 867.077 587.794 867.077 586.955V578.182Z" fill="#23B5D3"/>
<path d="M777.278 589.793V565.295H814.784C815.637 565.295 816.069 564.964 816.321 564.29L818.793 555.28C819.045 554.524 818.541 553.932 817.677 553.932H765.648C764.796 553.932 764.364 554.441 764.364 555.198V631.458C764.364 632.298 764.796 632.723 765.648 632.723H776.066C776.834 632.723 777.266 632.298 777.266 631.458V601.155H809.9C810.668 601.155 811.1 600.729 811.1 599.89V591.058C811.1 590.218 810.668 589.793 809.9 589.793H777.278Z" fill="#23B5D3"/>
<g clip-path="url(#clip0_201_2)">
<path d="M344.182 391H52V113.601H135.924V311.143H283.211L344.182 391Z" fill="black"/>
<path d="M1298.27 311.143C1296.88 311.248 1295.48 311.248 1294.08 311.143H1298.27Z" fill="black"/>
<path d="M1048.26 310.723L1110.2 391H813.402V122.007H1048.39L1110.33 202.285H915.832C911.451 202.204 907.212 203.843 904.02 206.851C900.829 209.859 898.939 213.997 898.754 218.382V222.585C898.95 226.963 900.845 231.091 904.035 234.09C907.225 237.089 911.458 238.722 915.832 238.641H1080.07L1111.04 278.779H915.748C911.374 278.698 907.141 280.331 903.951 283.33C900.761 286.329 898.866 290.457 898.67 294.835C898.855 299.22 900.745 303.359 903.936 306.367C907.128 309.375 911.367 311.013 915.748 310.933L1048.26 310.723Z" fill="black"/>
<path d="M794.73 321.65C794.73 322.365 794.73 323.037 794.73 323.752C794.184 341.771 786.655 358.868 773.738 371.422C760.821 383.975 743.532 390.997 725.534 391H453.2L406.118 324.676L403.223 320.473L326.096 211.91L272.553 287.228H169.998L274.903 139.786C280.724 131.605 288.413 124.936 297.329 120.334C306.245 115.733 316.13 113.332 326.159 113.332C336.189 113.332 346.074 115.733 354.99 120.334C363.906 124.936 371.595 131.605 377.417 139.786L452.235 244.861L458.655 253.856L492.728 301.854V302.737H493.148L504.352 318.54L508.045 323.752H694.021C699.585 323.752 704.922 321.538 708.856 317.597C712.791 313.655 715.002 308.31 715.002 302.737C715.002 297.163 712.791 291.818 708.856 287.877C704.922 283.936 699.585 281.722 694.021 281.722H527.137L545.936 252.301L559.364 231.285H685.628C688.385 231.29 691.116 230.751 693.665 229.698C696.214 228.645 698.531 227.099 700.483 225.149C702.43 223.194 703.973 220.873 705.024 218.32C706.076 215.767 706.614 213.032 706.609 210.27C706.609 204.697 704.399 199.352 700.464 195.411C696.529 191.469 691.193 189.255 685.628 189.255H586.262L629.315 122.007H721.296C738.546 122.007 755.09 128.871 767.287 141.088C779.485 153.306 786.337 169.876 786.337 187.154C786.337 204.432 779.485 221.002 767.287 233.219C755.09 245.437 738.546 252.301 721.296 252.301H725.492C740.563 252.309 755.221 257.238 767.245 266.338C779.269 275.439 788.004 288.217 792.128 302.737C793.852 308.893 794.727 315.256 794.73 321.65Z" fill="black"/>
<path d="M493.022 302.737H492.602V302.19L493.022 302.737Z" fill="black"/>
<path d="M492.602 73H565.7L534.564 117.804H591.591L496.798 269.113L513.583 171.056H452.402L492.602 73Z" fill="#23B5D3"/>
<path d="M1419 259.109C1419 300.257 1405.87 336.361 1382.2 361.747C1376.08 368.351 1369.22 374.232 1361.76 379.274C1354.77 384.011 1347.27 387.945 1339.4 391H1137.98L1075.88 311.143H1298.28C1327.65 311.143 1343.01 285.925 1343.01 255.495C1343.01 221.871 1323.41 199.385 1294.25 199.385H1233.49L1235.33 290.128H1155.6L1156.49 113.601H1294.08C1365.41 113.601 1419 176.142 1419 259.109Z" fill="black"/>
</g>
<path d="M57 501V456.816H64.8697V493.892H84.9955V501H57Z" fill="black"/>
<path d="M88.7348 499.463L102.474 456.816H114.731L128.406 499.463L127.438 501H120.794L117.762 491.267H99.3782L96.2819 501H89.7669L88.7348 499.463ZM101.571 484.159H115.634L109.183 463.924H107.957L101.571 484.159Z" fill="black"/>
<path d="M136.103 501V456.816H156.873C163.883 456.816 167.388 460.296 167.388 467.254V471.288C167.388 472.74 166.958 473.978 166.098 475.002L163.84 477.692L166.549 479.933C167.968 481.085 168.678 482.793 168.678 485.055V490.562C168.678 497.521 165.173 501 158.164 501H136.103ZM143.972 493.892H157.97C159.862 493.892 160.808 492.974 160.808 491.139V484.415C160.808 482.58 159.862 481.662 157.97 481.662H143.972V493.892ZM143.972 474.554H156.68C158.572 474.554 159.518 473.615 159.518 471.736V466.678C159.518 464.842 158.572 463.924 156.68 463.924H143.972V474.554Z" fill="black"/>
<path d="M178.058 501V492.676H186.444V501H178.058Z" fill="black"/>
<path d="M213.905 501V456.816H230.999C242.61 456.816 248.416 462.601 248.416 474.17V483.647C248.416 495.216 242.61 501 230.999 501H213.905ZM221.775 493.892H231.451C237.514 493.892 240.546 490.883 240.546 484.863V472.953C240.546 466.934 237.514 463.924 231.451 463.924H221.775V493.892Z" fill="black"/>
<path d="M259.031 501V456.816H288.962V463.924H266.901V474.554H287.027V481.662H266.901V493.892H288.962V501H259.031Z" fill="black"/>
<path d="M315.078 501V456.816H345.009V463.924H322.948V474.554H343.074V481.662H322.948V493.892H345.009V501H315.078Z" fill="black"/>
<path d="M354.661 501V456.816H362.531V493.892H382.656V501H354.661Z" fill="black"/>
<path d="M390.653 501V456.816H420.584V463.924H398.523V474.554H418.648V481.662H398.523V493.892H420.584V501H390.653Z" fill="black"/>
<path d="M426.301 463.924V456.816H462.231V463.924H448.233V501H440.299V463.924H426.301Z" fill="black"/>
<path d="M470.26 501V456.816H491.675C498.685 456.816 502.19 460.296 502.19 467.254V474.49C502.19 479.869 500.04 483.134 495.739 484.287L503.48 499.335L502.512 501H495.804L487.547 484.863H478.129V501H470.26ZM478.129 477.756H491.482C493.374 477.756 494.32 476.816 494.32 474.938V466.678C494.32 464.842 493.374 463.924 491.482 463.924H478.129V477.756Z" fill="black"/>
<path d="M512.158 490.562V467.254C512.158 460.296 515.663 456.816 522.672 456.816H537.444C544.454 456.816 547.959 460.296 547.959 467.254V490.562C547.959 497.521 544.454 501 537.444 501H522.672C515.663 501 512.158 497.521 512.158 490.562ZM520.028 491.139C520.028 492.974 520.974 493.892 522.866 493.892H537.251C539.143 493.892 540.089 492.974 540.089 491.139V466.678C540.089 464.842 539.143 463.924 537.251 463.924H522.866C520.974 463.924 520.028 464.842 520.028 466.678V491.139ZM520.35 450.413L530.091 441L539.766 450.413L536.412 453.871L530.091 447.916L523.705 453.871L520.35 450.413Z" fill="black"/>
<path d="M559.252 501V456.816H567.831L587.57 488.321V456.816H595.44V501H586.925L567.122 469.495V501H559.252Z" fill="black"/>
<path d="M607.402 501V456.816H615.272V501H607.402Z" fill="black"/>
<path d="M626.56 490.562V467.254C626.56 460.296 630.065 456.816 637.074 456.816H654.62L658.426 459.762V463.924H637.268C635.376 463.924 634.43 464.842 634.43 466.678V491.139C634.43 492.974 635.376 493.892 637.268 493.892H658.426V498.054L654.62 501H637.074C630.065 501 626.56 497.521 626.56 490.562Z" fill="black"/>
<path d="M663.853 499.463L677.593 456.816H689.849L703.524 499.463L702.557 501H695.913L692.881 491.267H674.497L671.4 501H664.885L663.853 499.463ZM676.69 484.159H690.752L684.301 463.924H683.076L676.69 484.159Z" fill="black"/>
<path d="M727.685 501V456.816H757.616V463.924H735.555V474.554H755.681V481.662H735.555V493.892H757.616V501H727.685Z" fill="black"/>
<path d="M783.732 501V456.816H800.826C812.437 456.816 818.242 462.601 818.242 474.17V483.647C818.242 495.216 812.437 501 800.826 501H783.732ZM791.602 493.892H801.278C807.341 493.892 810.373 490.883 810.373 484.863V472.953C810.373 466.934 807.341 463.924 801.278 463.924H791.602V493.892Z" fill="black"/>
<path d="M828.858 501V456.816H858.789V463.924H836.728V474.554H856.854V481.662H836.728V493.892H858.789V501H828.858Z" fill="black"/>
<path d="M866.506 498.054V493.892H886.438C888.33 493.892 889.276 492.974 889.276 491.139V486.272C889.276 484.65 888.545 483.689 887.083 483.391L873.988 480.765C869 479.783 866.506 476.454 866.506 470.776V467.254C866.506 460.296 870.011 456.816 877.02 456.816H892.05L895.856 459.762V463.924H877.214C875.322 463.924 874.375 464.842 874.375 466.678V470.968C874.375 472.59 875.107 473.551 876.569 473.85L889.663 476.411C894.652 477.435 897.146 480.765 897.146 486.4V490.562C897.146 497.521 893.641 501 886.632 501H870.312L866.506 498.054Z" fill="black"/>
<path d="M907.142 501V456.816H937.072V463.924H915.012V474.554H935.137V481.662H915.012V493.892H937.072V501H907.142Z" fill="black"/>
<path d="M946.725 501V456.816H955.304L975.043 488.321V456.816H982.912V501H974.398L954.594 469.495V501H946.725Z" fill="black"/>
<path d="M990.617 458.353L991.649 456.816H998.487L1009.52 493.892H1010.74L1021.77 456.816H1028.68L1029.64 458.353L1016.48 501H1003.71L990.617 458.353Z" fill="black"/>
<path d="M1036.65 490.562V467.254C1036.65 460.296 1040.15 456.816 1047.16 456.816H1061.93C1068.94 456.816 1072.45 460.296 1072.45 467.254V490.562C1072.45 497.521 1068.94 501 1061.93 501H1047.16C1040.15 501 1036.65 497.521 1036.65 490.562ZM1044.52 491.139C1044.52 492.974 1045.46 493.892 1047.35 493.892H1061.74C1063.63 493.892 1064.58 492.974 1064.58 491.139V466.678C1064.58 464.842 1063.63 463.924 1061.74 463.924H1047.35C1045.46 463.924 1044.52 464.842 1044.52 466.678V491.139Z" fill="black"/>
<path d="M1083.74 501V456.816H1091.61V493.892H1111.74V501H1083.74Z" fill="black"/>
<path d="M1111.63 458.353L1112.67 456.816H1119.5L1130.53 493.892H1131.76L1142.79 456.816H1149.69L1150.66 458.353L1137.5 501H1124.73L1111.63 458.353Z" fill="black"/>
<path d="M1158.31 501V456.816H1166.18V501H1158.31Z" fill="black"/>
<path d="M1178.11 501V456.816H1187.79L1201.14 485.12L1214.49 456.816H1224.17V501H1216.23V470.136L1204.49 494.981H1197.72L1185.98 470.136V501H1178.11Z" fill="black"/>
<path d="M1236.09 501V456.816H1266.02V463.924H1243.96V474.554H1264.08V481.662H1243.96V493.892H1266.02V501H1236.09Z" fill="black"/>
<path d="M1275.67 501V456.816H1284.25L1303.99 488.321V456.816H1311.86V501H1303.34L1283.54 469.495V501H1275.67Z" fill="black"/>
<path d="M1319.89 463.924V456.816H1355.82V463.924H1341.82V501H1333.88V463.924H1319.89Z" fill="black"/>
<path d="M1363.2 490.562V467.254C1363.2 460.296 1366.7 456.816 1373.71 456.816H1388.49C1395.5 456.816 1399 460.296 1399 467.254V490.562C1399 497.521 1395.5 501 1388.49 501H1373.71C1366.7 501 1363.2 497.521 1363.2 490.562ZM1371.07 491.139C1371.07 492.974 1372.02 493.892 1373.91 493.892H1388.29C1390.18 493.892 1391.13 492.974 1391.13 491.139V466.678C1391.13 464.842 1390.18 463.924 1388.29 463.924H1373.91C1372.02 463.924 1371.07 464.842 1371.07 466.678V491.139Z" fill="black"/>
<defs>
<clipPath id="clip0_201_2">
<rect width="1367" height="318" fill="white" transform="translate(52 73)"/>
</clipPath>
</defs>
</svg>
