<svg width="2067" height="1064" viewBox="0 0 2067 1064" fill="none" xmlns="http://www.w3.org/2000/svg">
<g clip-path="url(#clip0_21_47)">
<mask id="mask0_21_47" style="mask-type:luminance" maskUnits="userSpaceOnUse" x="0" y="0" width="2067" height="1064">
<path d="M0 0H2066.67V1064H0V0Z" fill="white"/>
</mask>
<g mask="url(#mask0_21_47)">
<path d="M950.739 701.118C939.635 701.903 922.523 703.67 917.425 703.67C878.832 703.67 841.513 684.044 841.513 635.764C841.513 587.288 878.832 567.66 917.425 567.66C926.709 567.66 938.36 569.427 949.647 571.391L953.469 608.287C944.185 605.343 934.901 603.184 925.435 603.184C898.128 603.184 889.208 623.398 889.208 635.764C889.208 654.996 902.68 668.147 917.425 668.147C933.08 668.147 943.64 665.99 954.199 663.046L950.739 701.118Z" fill="#0048C9"/>
<path d="M974.045 570.213H1021.74V701.119H974.045V570.213Z" fill="#0048C9"/>
<path d="M1153.54 701.118H1046.14V570.212H1153.54V604.558H1093.83V618.492H1142.8V652.838H1093.83V666.772H1153.54V701.118Z" fill="#0048C9"/>
<path d="M1177.03 570.213H1231.83L1268.6 642.239H1268.97V570.213H1311.02V701.118H1256.77L1219.45 630.465H1219.09V701.118H1177.03V570.213Z" fill="#0048C9"/>
<path d="M1438.09 701.118C1426.99 701.903 1409.88 703.67 1404.78 703.67C1366.18 703.67 1328.87 684.044 1328.87 635.764C1328.87 587.288 1366.18 567.66 1404.78 567.66C1414.06 567.66 1425.71 569.427 1437 571.391L1440.82 608.287C1431.54 605.343 1422.25 603.184 1412.79 603.184C1385.48 603.184 1376.56 623.398 1376.56 635.764C1376.56 654.996 1390.03 668.147 1404.78 668.147C1420.44 668.147 1430.99 665.99 1441.55 663.046L1438.09 701.118Z" fill="#0048C9"/>
<path d="M1461.4 570.213H1509.09V701.119H1461.4V570.213Z" fill="#0048C9"/>
<path d="M1610.86 637.531L1600.12 605.147H1599.76L1588.29 637.531H1610.86ZM1514.56 701.118C1534.58 658.53 1553.88 613.783 1572.09 570.212H1628.7C1645.27 613.783 1662.56 657.548 1680.95 701.118H1631.07L1620.51 670.895H1577.36L1566.44 701.118H1514.56Z" fill="#0048C9"/>
<path d="M1797.65 666.772H1805.47C1825.5 666.772 1831.14 653.034 1831.14 636.942C1831.14 611.035 1822.59 604.558 1806.2 604.558H1797.65V666.772ZM1752.32 570.212H1825.86C1852.44 570.212 1878.84 590.428 1878.84 637.138C1878.84 660.296 1869.55 701.118 1821.13 701.118H1752.32V570.212Z" fill="#0048C9"/>
<path d="M1974.05 637.531L1963.31 605.147H1962.95L1951.48 637.531H1974.05ZM1877.75 701.118C1897.78 658.53 1917.07 613.783 1935.28 570.212H1991.9C2008.46 613.783 2025.76 657.548 2044.14 701.118H1994.26L1983.7 670.895H1940.56L1929.64 701.118H1877.75Z" fill="#0048C9"/>
<path d="M722.484 888.374C711.38 889.16 694.268 890.926 689.171 890.926C650.578 890.926 613.259 871.298 613.259 823.017C613.259 774.541 650.578 754.916 689.171 754.916C698.455 754.916 710.106 756.682 721.392 758.645L725.215 795.542C715.931 792.597 706.647 790.441 697.18 790.441C669.874 790.441 660.954 810.654 660.954 823.017C660.954 842.252 674.426 855.401 689.171 855.401C704.826 855.401 715.386 853.242 725.944 850.297L722.484 888.374Z" fill="#0048C9"/>
<path d="M786.933 823.017C786.933 842.251 800.405 855.401 815.149 855.401C829.894 855.401 843.366 842.251 843.366 823.017C843.366 803.785 829.894 790.441 815.149 790.441C800.405 790.441 786.933 803.785 786.933 823.017ZM891.062 823.017C891.062 871.299 853.742 890.926 815.149 890.926C776.557 890.926 739.237 871.299 739.237 823.017C739.237 774.541 776.557 754.915 815.149 754.915C853.742 754.915 891.062 774.541 891.062 823.017Z" fill="#0048C9"/>
<path d="M908 888.374V757.468H970.076L983.548 829.494H983.912L997.931 757.468H1059.82V888.374H1020.87V802.017H1020.5L1002.48 888.374H962.978L945.32 802.017H944.955V888.374H908Z" fill="#0048C9"/>
<path d="M1083.32 757.467H1155.77C1172.88 757.467 1192.55 769.439 1192.55 802.018C1192.55 826.55 1174.7 843.43 1148.67 843.43C1145.21 843.43 1141.94 843.036 1138.48 842.251L1129.56 812.028H1135.02C1141.94 812.028 1147.21 809.084 1147.21 801.822C1147.21 791.419 1141.94 790.832 1135.56 790.832H1126.28V888.374H1083.32V757.467Z" fill="#0048C9"/>
<path d="M1254.08 757.467V829.887C1254.08 844.018 1256.81 853.634 1270.28 853.634C1283.75 853.634 1286.48 844.018 1286.48 829.887V757.467H1334.18V850.494C1334.18 870.906 1314.88 890.926 1270.28 890.926C1225.68 890.926 1206.38 870.906 1206.38 850.494V757.467H1254.08Z" fill="#0048C9"/>
<path d="M1344.02 757.467H1466.71V791.812H1429.21V888.374H1381.52V791.812H1344.02V757.467Z" fill="#0048C9"/>
<path d="M1545.91 824.783L1535.17 792.401H1534.8L1523.34 824.783H1545.91ZM1449.61 888.374C1469.63 845.785 1488.93 801.035 1507.14 757.467H1563.75C1580.32 801.035 1597.61 844.803 1616 888.374H1566.12L1555.56 858.149H1512.41L1501.49 888.374H1449.61Z" fill="#0048C9"/>
<path d="M1687 924.876H1643.85L1661.33 898.184H1697.92L1687 924.876ZM1724.32 888.374C1713.21 889.159 1696.1 890.926 1691 890.926C1652.41 890.926 1615.09 871.299 1615.09 823.016C1615.09 774.54 1652.41 754.915 1691 754.915C1700.29 754.915 1711.94 756.682 1723.23 758.644L1727.05 795.542C1717.77 792.598 1708.48 790.44 1699.01 790.44C1671.71 790.44 1662.79 810.654 1662.79 823.016C1662.79 842.251 1676.26 855.4 1691 855.4C1706.66 855.4 1717.22 853.242 1727.78 850.298L1724.32 888.374Z" fill="#0048C9"/>
<path d="M1824.99 824.783L1814.25 792.401H1813.89L1802.42 824.783H1824.99ZM1843.75 719.589C1843.75 731.561 1843.75 746.673 1829.91 746.673C1824.45 746.673 1820.26 744.514 1816.62 742.551C1812.98 740.394 1809.89 738.234 1806.97 738.234C1803.33 738.234 1802.78 740.981 1802.42 745.691H1783.85C1783.85 733.719 1783.85 718.607 1797.69 718.607C1803.15 718.607 1807.34 720.766 1810.98 722.727C1814.62 724.886 1817.71 727.046 1820.63 727.046C1824.27 727.046 1824.81 724.298 1825.18 719.589H1843.75ZM1728.69 888.374C1748.72 845.785 1768.01 801.035 1786.22 757.467H1842.83C1859.4 801.035 1876.69 844.803 1895.08 888.374H1845.2L1834.64 858.149H1791.5L1780.57 888.374H1728.69Z" fill="#0048C9"/>
<path d="M1941.87 823.017C1941.87 842.251 1955.34 855.401 1970.09 855.401C1984.84 855.401 1998.31 842.251 1998.31 823.017C1998.31 803.785 1984.84 790.441 1970.09 790.441C1955.34 790.441 1941.87 803.785 1941.87 823.017ZM2046 823.017C2046 871.299 2008.68 890.926 1970.09 890.926C1931.5 890.926 1894.18 871.299 1894.18 823.017C1894.18 774.541 1931.5 754.915 1970.09 754.915C2008.68 754.915 2046 774.541 2046 823.017Z" fill="#0048C9"/>
<path d="M1069.18 558.63L1089.41 525.69H1123.86L1139.59 558.63H1108.88L1104.39 541.914L1099.15 558.63H1069.18Z" fill="#0048C9"/>
<path d="M1257.45 1017.09C1257.81 1002.84 1264.04 995.89 1274.32 995.89C1282.53 995.89 1287.31 999.499 1287.31 1005.72C1287.31 1009.96 1284.34 1012.49 1278.47 1013.48L1257.45 1017.09ZM1290.11 1041.9C1290.74 1041.81 1291.01 1041.36 1290.83 1040.73L1289.57 1036.31C1289.3 1035.59 1288.85 1035.41 1288.22 1035.5L1284.88 1036.49C1281.72 1037.48 1278.29 1037.93 1274.5 1037.93C1265.48 1037.93 1259.43 1032.52 1257.99 1023.14L1279.64 1019.62C1289.66 1018 1294.53 1013.39 1294.53 1005.63C1294.53 995.258 1286.95 989.214 1274.41 989.214C1259.34 989.214 1250.14 999.86 1250.14 1016.82C1250.14 1033.96 1259.25 1044.61 1274.5 1044.61C1278.74 1044.61 1282.62 1044.16 1286.5 1042.9L1290.11 1041.9ZM1221.9 1000.4V1015.74C1221.9 1028.28 1216.31 1037.93 1205.21 1037.93C1195.1 1037.93 1189.06 1029.9 1188.97 1016.82C1188.88 1003.74 1195.28 995.98 1206.02 995.89C1210.53 995.89 1213.96 996.612 1217.3 998.326L1221.9 1000.4ZM1228.94 966.026C1228.94 965.304 1228.67 964.943 1227.95 964.943H1222.89C1222.17 964.943 1221.9 965.304 1221.9 966.026V993.454L1218.38 991.83C1214.23 989.844 1210.53 989.214 1205.75 989.214C1190.77 989.303 1181.75 999.59 1181.75 1016.82C1181.75 1033.96 1190.32 1044.61 1204.4 1044.61C1211.62 1044.61 1217.39 1041.27 1221.45 1035.68C1222.17 1034.6 1222.89 1034.87 1222.98 1035.86L1223.43 1042.54C1223.52 1043.17 1223.89 1043.53 1224.52 1043.53H1227.95C1228.67 1043.53 1228.94 1043.17 1228.94 1042.54V966.026ZM1154.41 1018.54V1019.98C1154.41 1031.53 1147.83 1038.02 1136.46 1038.02C1129.33 1038.02 1125.27 1034.42 1125.27 1028.19C1125.27 1022.42 1129.24 1018.54 1137.63 1018.54H1154.41ZM1123.65 992.1C1123.02 992.28 1122.74 992.732 1123.02 993.454L1124.19 997.784C1124.46 998.416 1124.91 998.596 1125.54 998.416L1129.42 997.334C1132.22 996.431 1135.65 995.98 1139.53 995.98C1149.09 995.98 1154.41 1001.39 1154.41 1010.87V1012.31H1137.63C1124.91 1012.4 1118.05 1018.99 1118.05 1028.64C1118.05 1038.48 1124.64 1044.61 1135.83 1044.61C1144.04 1044.61 1149.72 1042.18 1153.51 1037.39C1154.59 1036.13 1155.41 1036.04 1155.77 1037.48L1156.04 1042.54C1156.22 1043.17 1156.49 1043.53 1157.21 1043.53H1160.64C1161.27 1043.53 1161.63 1043.17 1161.63 1042.54V1010.78C1161.63 997.334 1153.15 989.214 1139.62 989.214C1135.02 989.214 1130.96 989.844 1127.8 990.838L1123.65 992.1ZM1090.36 1000.4V1015.74C1090.36 1028.28 1084.85 1037.93 1073.75 1037.93C1063.65 1037.93 1057.6 1029.9 1057.51 1016.82C1057.42 1003.74 1063.83 995.98 1074.48 995.89C1079.08 995.89 1082.51 996.612 1085.84 998.326L1090.36 1000.4ZM1097.48 966.026C1097.48 965.304 1097.21 964.943 1096.49 964.943H1091.44C1090.72 964.943 1090.36 965.304 1090.36 966.026V993.454L1086.93 991.83C1082.78 989.844 1079.08 989.214 1074.3 989.214C1059.32 989.303 1050.3 999.59 1050.3 1016.82C1050.3 1033.96 1058.87 1044.61 1072.94 1044.61C1080.16 1044.61 1085.93 1041.27 1089.99 1035.68C1090.72 1034.6 1091.44 1034.87 1091.53 1035.86L1091.98 1042.54C1092.07 1043.17 1092.43 1043.53 1093.06 1043.53H1096.49C1097.21 1043.53 1097.48 1043.17 1097.48 1042.54V966.026ZM1029.18 991.288C1029.18 990.656 1028.82 990.296 1028.19 990.296H1016.82C1016.19 990.296 1015.83 990.656 1015.83 991.288V995.89C1015.83 996.522 1016.19 996.882 1016.82 996.882H1021.97V1042.54C1021.97 1043.17 1022.24 1043.53 1022.96 1043.53H1028.19C1028.82 1043.53 1029.18 1043.17 1029.18 1042.54V991.288ZM1024.4 964.402C1021.42 964.402 1019.53 966.207 1019.53 969.274C1019.53 972.432 1021.42 974.236 1024.4 974.236C1027.38 974.236 1029.18 972.432 1029.18 969.274C1029.18 966.207 1027.38 964.402 1024.4 964.402ZM983.891 1021.06C989.034 1022.6 991.381 1025.03 991.381 1029.18C991.381 1034.6 986.598 1037.93 978.389 1037.93C972.523 1037.93 967.381 1037.03 963.591 1035.68L960.705 1034.69C960.164 1034.51 959.712 1034.69 959.531 1035.32L957.907 1039.74C957.727 1040.37 957.908 1040.82 958.629 1041.09L961.606 1042.08C966.118 1043.71 971.802 1044.61 978.389 1044.61C991.11 1044.61 998.598 1038.84 998.598 1029.18C998.598 1021.96 994.809 1017.27 986.147 1015.11L973.246 1011.41C968.284 1009.96 966.118 1007.53 966.118 1003.65C966.118 998.958 970.449 995.89 978.028 995.89C981.908 995.89 986.148 996.431 989.125 997.334L993.365 998.507C993.997 998.778 994.447 998.507 994.718 997.875L995.891 993.544C996.162 992.822 995.891 992.371 995.259 992.191L990.929 990.838C987.591 989.844 982.809 989.214 977.937 989.214C965.937 989.214 958.9 994.627 958.9 1003.65C958.9 1010.96 962.689 1015.29 970.9 1017.36L983.891 1021.06ZM940.314 990.206C940.314 989.484 940.043 989.214 939.322 989.214C930.931 989.484 925.427 993.183 921.277 999.86C920.645 1000.76 920.014 1000.49 919.833 999.59L919.021 991.288C918.931 990.656 918.57 990.296 917.938 990.296H914.51C913.789 990.296 913.427 990.656 913.427 991.288V1042.54C913.427 1043.17 913.789 1043.53 914.51 1043.53H919.653C920.374 1043.53 920.645 1043.17 920.645 1042.54V1025.21C920.645 1006.45 927.502 996.431 939.322 995.89C940.043 995.89 940.314 995.53 940.314 994.898V990.206ZM855.233 1017.09C855.594 1002.84 861.819 995.89 872.105 995.89C880.315 995.89 885.097 999.499 885.097 1005.72C885.097 1009.96 882.12 1012.49 876.255 1013.48L855.233 1017.09ZM887.894 1041.9C888.526 1041.81 888.797 1041.36 888.615 1040.73L887.353 1036.31C887.082 1035.59 886.631 1035.41 885.999 1035.5L882.661 1036.49C879.594 1037.48 876.076 1037.93 872.375 1037.93C863.263 1037.93 857.218 1032.52 855.775 1023.14L877.429 1019.62C887.443 1018 892.315 1013.39 892.315 1005.63C892.315 995.258 884.737 989.214 872.195 989.214C857.127 989.214 847.925 999.86 847.925 1016.82C847.925 1033.96 857.038 1044.61 872.375 1044.61C876.526 1044.61 880.406 1044.16 884.375 1042.9L887.894 1041.9ZM832.046 991.559C832.407 990.747 832.046 990.296 831.325 990.296H825.73C825.189 990.296 824.829 990.567 824.647 991.108L812.106 1018.99C810.031 1023.86 808.317 1029 807.686 1032.34C807.325 1033.33 806.422 1033.33 806.151 1032.34C805.339 1029 803.806 1023.95 801.641 1018.99L789.099 991.108C788.919 990.567 788.558 990.296 788.017 990.296H782.513C781.701 990.296 781.341 990.747 781.701 991.559L796.137 1023.68C798.754 1029.72 801.37 1037.03 802.814 1042.63C802.903 1043.26 803.355 1043.53 803.897 1043.53H809.851C810.482 1043.53 810.843 1043.26 811.023 1042.63C812.558 1037.03 815.085 1029.72 817.61 1023.68L832.046 991.559ZM761.671 991.288C761.671 990.656 761.311 990.296 760.679 990.296H749.311C748.679 990.296 748.32 990.656 748.32 991.288V995.89C748.32 996.522 748.679 996.882 749.311 996.882H754.454V1042.54C754.454 1043.17 754.725 1043.53 755.446 1043.53H760.679C761.311 1043.53 761.671 1043.17 761.671 1042.54V991.288ZM756.89 964.402C753.913 964.402 752.018 966.207 752.018 969.274C752.018 972.432 753.913 974.236 756.89 974.236C759.867 974.236 761.671 972.432 761.671 969.274C761.671 966.207 759.867 964.402 756.89 964.402ZM688.771 991.288C688.771 990.656 688.41 990.296 687.779 990.296H684.35C683.629 990.296 683.268 990.656 683.268 991.288V1042.54C683.268 1043.17 683.629 1043.53 684.35 1043.53H689.493C690.215 1043.53 690.486 1043.17 690.486 1042.54V1018.18C690.486 1004.1 696.982 995.89 707.989 995.89C716.199 995.89 721.071 1001.66 721.071 1011.32V1042.54C721.071 1043.17 721.433 1043.53 722.063 1043.53H727.297C727.929 1043.53 728.289 1043.17 728.289 1042.54V1010.78C728.289 997.424 720.801 989.214 708.621 989.214C700.951 989.214 695.087 992.191 690.846 998.146C690.215 999.048 689.493 999.048 689.222 998.055L688.771 991.288ZM659.087 968.102C659.087 967.47 658.727 967.108 658.095 967.108H652.682C652.05 967.108 651.69 967.47 651.69 968.102V1013.48C651.69 1028.82 644.021 1037.75 630.758 1037.75C617.405 1037.75 609.735 1028.82 609.735 1013.48V968.102C609.735 967.47 609.375 967.108 608.743 967.108H603.421C602.789 967.108 602.427 967.47 602.427 968.102V1013.48C602.427 1033.06 612.894 1044.61 630.758 1044.61C648.622 1044.61 659.087 1033.06 659.087 1013.48V968.102Z" fill="#0048C9"/>
<path d="M2001.88 987.95C2001.07 988.221 2000.71 988.853 2000.98 989.665L2003.6 998.597C2003.87 999.409 2004.41 999.769 2005.31 999.589L2009.64 998.236C2012.53 997.424 2015.6 997.062 2019.02 997.062C2027.96 997.062 2032.74 1001.03 2032.74 1008.34V1009.06H2017.58C2003.33 1009.06 1995.66 1016.37 1995.66 1027.74C1995.66 1039.02 2003.14 1045.96 2016.5 1045.96C2023.9 1045.96 2029.31 1043.62 2033.1 1039.56C2034.63 1038.11 2035.35 1038.11 2036.08 1039.74L2037.07 1043.53C2037.34 1044.25 2037.79 1044.61 2038.6 1044.61H2044.65C2045.55 1044.61 2046 1044.16 2046 1043.26V1007.89C2046 993.273 2035.99 984.793 2019.65 984.793C2014.69 984.793 2010.63 985.424 2006.48 986.597L2001.88 987.95ZM2032.74 1019.62V1020.43C2032.74 1029.36 2027.51 1034.05 2017.94 1034.05C2012.17 1034.05 2008.92 1031.17 2008.92 1026.48C2008.92 1022.42 2011.72 1019.62 2017.58 1019.62H2032.74Z" fill="#0048C9"/>
<path d="M1927.18 987.229C1927 986.417 1926.54 986.055 1925.73 986.055H1919.69C1918.79 986.055 1918.33 986.507 1918.33 987.319V1043.26C1918.33 1044.16 1918.79 1044.61 1919.69 1044.61H1930.42C1931.24 1044.61 1931.78 1044.16 1931.78 1043.26V1015.11C1931.78 1003.38 1936.92 996.882 1945.85 996.882C1952.44 996.882 1956.41 1001.48 1956.41 1009.06V1043.26C1956.41 1044.16 1956.86 1044.61 1957.67 1044.61H1968.5C1969.31 1044.61 1969.76 1044.16 1969.76 1043.26V1007.62C1969.76 993.363 1961.46 984.793 1947.66 984.793C1941.79 984.793 1935.75 986.867 1931.06 992.191C1929.7 993.363 1928.98 993.545 1928.26 992.101L1927.18 987.229Z" fill="#0048C9"/>
<path d="M1852.92 987.95C1852.11 988.221 1851.75 988.853 1851.93 989.665L1854.64 998.597C1854.82 999.409 1855.45 999.769 1856.35 999.589L1860.68 998.236C1863.57 997.424 1866.55 997.062 1870.07 997.062C1879 997.062 1883.69 1001.03 1883.69 1008.34V1009.06H1868.62C1854.37 1009.06 1846.61 1016.37 1846.61 1027.74C1846.61 1039.02 1854.1 1045.96 1867.54 1045.96C1874.94 1045.96 1880.35 1043.62 1884.05 1039.56C1885.67 1038.11 1886.4 1038.11 1887.12 1039.74L1888.11 1043.53C1888.29 1044.25 1888.83 1044.61 1889.64 1044.61H1895.69C1896.5 1044.61 1897.04 1044.16 1897.04 1043.26V1007.89C1897.04 993.273 1887.03 984.793 1870.7 984.793C1865.73 984.793 1861.58 985.424 1857.52 986.597L1852.92 987.95ZM1883.69 1019.62V1020.43C1883.69 1029.36 1878.55 1034.05 1868.98 1034.05C1863.21 1034.05 1859.96 1031.17 1859.96 1026.48C1859.96 1022.42 1862.67 1019.62 1868.62 1019.62H1883.69Z" fill="#0048C9"/>
<path d="M1830.01 1042.81C1830.91 1042.54 1831.27 1041.9 1831 1041.09L1828.2 1032.07C1827.93 1031.35 1827.39 1030.99 1826.49 1031.17L1822.52 1032.43C1819.54 1033.24 1816.11 1033.69 1813.59 1033.69C1803.3 1033.69 1798.16 1026.84 1798.16 1015.11C1798.16 1003.74 1803.12 996.882 1813.86 996.882C1816.02 996.882 1818.91 997.243 1821.89 998.235L1826.04 999.318C1826.76 999.589 1827.39 999.229 1827.57 998.506L1830.37 989.394C1830.64 988.582 1830.28 987.95 1829.37 987.679L1824.23 986.235C1820.44 985.153 1817.01 984.793 1813.86 984.793C1794.91 984.793 1784.89 996.522 1784.89 1015.29C1784.89 1034.05 1795 1045.96 1813.49 1045.96C1817.19 1045.96 1821.07 1045.33 1824.68 1044.34L1830.01 1042.81Z" fill="#0048C9"/>
<path d="M1749.89 1021.78C1753.86 1022.96 1755.57 1024.76 1755.57 1027.74C1755.57 1031.44 1752.14 1033.69 1746.28 1033.69C1741.77 1033.69 1735.36 1032.97 1730.76 1031.71L1726.43 1030.45C1725.71 1030.27 1725.08 1030.63 1724.9 1031.35L1722.1 1040.37C1721.83 1041.18 1722.19 1041.81 1723.09 1042.08L1727.78 1043.44C1733.65 1045.06 1739.96 1045.96 1746.28 1045.96C1760.53 1045.96 1768.92 1039.02 1768.92 1027.74C1768.92 1018.99 1764.23 1013.57 1753.77 1010.87L1741.68 1007.8C1737.89 1006.72 1736.26 1005 1736.26 1002.21C1736.26 998.957 1739.51 996.883 1745.02 996.883C1748.62 996.883 1753.5 997.424 1756.74 998.325L1762.07 999.769C1762.88 1000.04 1763.51 999.679 1763.78 998.867L1766.31 989.755C1766.58 988.943 1766.13 988.311 1765.32 988.04L1759.99 986.777C1756.02 985.695 1750.43 984.792 1745.02 984.792C1731.03 984.792 1722.91 991.379 1722.91 1002.21C1722.91 1010.87 1727.6 1016.1 1737.71 1018.63L1749.89 1021.78Z" fill="#0048C9"/>
<path d="M1693.95 957.004C1688.9 957.004 1685.92 960.072 1685.92 965.124C1685.92 970.357 1688.9 973.334 1693.95 973.334C1699.09 973.334 1701.98 970.357 1701.98 965.124C1701.98 960.072 1699.09 957.004 1693.95 957.004ZM1702.07 987.318C1702.07 986.506 1701.62 986.056 1700.72 986.056H1682.76C1681.95 986.056 1681.41 986.506 1681.41 987.318V996.702C1681.41 997.514 1681.95 997.965 1682.76 997.965H1688.72V1043.26C1688.72 1044.16 1689.17 1044.61 1689.98 1044.61H1700.72C1701.62 1044.61 1702.07 1044.16 1702.07 1043.26V987.318Z" fill="#0048C9"/>
<path d="M1663.72 1042.81C1664.54 1042.54 1664.9 1041.9 1664.72 1041.09L1661.92 1032.07C1661.65 1031.35 1661.02 1030.99 1660.21 1031.17L1656.24 1032.43C1653.17 1033.24 1649.83 1033.69 1647.3 1033.69C1637.02 1033.69 1631.87 1026.84 1631.87 1015.11C1631.87 1003.74 1636.75 996.882 1647.57 996.882C1649.74 996.882 1652.63 997.243 1655.6 998.235L1659.75 999.318C1660.48 999.589 1661.02 999.229 1661.29 998.506L1664.09 989.394C1664.36 988.582 1663.99 987.95 1663.09 987.679L1657.95 986.235C1654.16 985.153 1650.64 984.793 1647.57 984.793C1628.54 984.793 1618.52 996.522 1618.52 1015.29C1618.52 1034.05 1628.72 1045.96 1647.21 1045.96C1650.91 1045.96 1654.79 1045.33 1658.4 1044.34L1663.72 1042.81Z" fill="#0048C9"/>
<path d="M1557.26 987.229C1557.08 986.417 1556.63 986.055 1555.82 986.055H1549.77C1548.87 986.055 1548.42 986.507 1548.42 987.319V1043.26C1548.42 1044.16 1548.87 1044.61 1549.77 1044.61H1560.51C1561.32 1044.61 1561.86 1044.16 1561.86 1043.26V1015.11C1561.86 1003.38 1567 996.882 1575.94 996.882C1582.52 996.882 1586.49 1001.48 1586.49 1009.06V1043.26C1586.49 1044.16 1586.94 1044.61 1587.76 1044.61H1598.58C1599.4 1044.61 1599.85 1044.16 1599.85 1043.26V1007.62C1599.85 993.363 1591.55 984.793 1577.74 984.793C1571.88 984.793 1565.83 986.867 1561.14 992.191C1559.79 993.363 1559.06 993.545 1558.34 992.101L1557.26 987.229Z" fill="#0048C9"/>
<path d="M1483.01 987.95C1482.19 988.221 1481.83 988.853 1482.01 989.665L1484.72 998.597C1484.9 999.409 1485.53 999.769 1486.35 999.589L1490.77 998.236C1493.65 997.424 1496.63 997.062 1500.15 997.062C1509.08 997.062 1513.77 1001.03 1513.77 1008.34V1009.06H1498.71C1484.45 1009.06 1476.69 1016.37 1476.69 1027.74C1476.69 1039.02 1484.18 1045.96 1497.62 1045.96C1505.02 1045.96 1510.43 1043.62 1514.13 1039.56C1515.76 1038.11 1516.48 1038.11 1517.2 1039.74L1518.19 1043.53C1518.37 1044.25 1518.92 1044.61 1519.73 1044.61H1525.77C1526.58 1044.61 1527.13 1044.16 1527.13 1043.26V1007.89C1527.13 993.273 1517.02 984.793 1500.78 984.793C1495.82 984.793 1491.67 985.424 1487.61 986.597L1483.01 987.95ZM1513.77 1019.62V1020.43C1513.77 1029.36 1508.63 1034.05 1499.07 1034.05C1493.29 1034.05 1490.04 1031.17 1490.04 1026.48C1490.04 1022.42 1492.75 1019.62 1498.71 1019.62H1513.77Z" fill="#0048C9"/>
<path d="M1463.16 986.146C1463.16 985.334 1462.62 984.793 1461.8 984.793C1452.96 985.063 1447.55 988.041 1442.68 994.357C1441.59 995.529 1441.05 995.349 1440.33 993.995L1438.35 987.138C1438.07 986.417 1437.62 986.055 1436.81 986.055H1430.77C1429.87 986.055 1429.41 986.507 1429.41 987.319V1043.26C1429.41 1044.16 1429.87 1044.61 1430.77 1044.61H1441.5C1442.32 1044.61 1442.86 1044.16 1442.86 1043.26V1028.91C1442.86 1006.72 1448.63 997.514 1461.8 996.882C1462.62 996.882 1463.16 996.431 1463.16 995.529V986.146Z" fill="#0048C9"/>
<path d="M1368.33 998.597V972.342H1407.94C1408.84 972.342 1409.29 971.981 1409.57 971.259L1412.18 961.605C1412.45 960.793 1411.91 960.162 1411.01 960.162H1356.06C1355.16 960.162 1354.71 960.703 1354.71 961.515V1043.26C1354.71 1044.16 1355.16 1044.61 1356.06 1044.61H1367.07C1367.88 1044.61 1368.33 1044.16 1368.33 1043.26V1010.78H1402.8C1403.61 1010.78 1404.06 1010.33 1404.06 1009.42V999.95C1404.06 999.047 1403.61 998.597 1402.8 998.597H1368.33Z" fill="#0048C9"/>
<path d="M435.076 818.301V715.154H433.643C424.452 715.154 415.376 714.681 406.422 713.749C274.599 700.089 171.459 588.346 171.459 452.97C171.459 308.401 289.076 190.784 433.643 190.784H435.076V162.131H433.643C394.387 162.131 356.299 169.824 320.431 184.99C285.796 199.639 254.692 220.605 227.986 247.312C201.28 274.018 180.312 305.122 165.663 339.756C150.499 375.624 142.804 413.714 142.804 452.97C142.804 492.226 150.499 530.313 165.663 566.181C180.312 600.817 201.28 631.921 227.986 658.619C254.692 685.332 285.796 706.3 320.431 720.949C347.947 732.583 376.766 739.817 406.422 742.555V788.372C234.118 773.408 98.4762 628.375 98.4762 452.252C98.4762 266.474 249.398 115.288 435.076 114.857C435.342 114.851 435.614 114.851 435.879 114.851H488.803V229.991H432.404C370.834 229.991 315.087 254.948 274.735 295.3C234.383 335.652 209.426 391.392 209.426 452.97C209.426 576.118 309.256 675.948 432.404 675.948H488.803V887.903H455.6C215.392 887.903 20.6669 693.176 20.6669 452.97C20.6669 392.918 32.8375 335.709 54.8442 283.673C120.87 127.567 275.444 18.0362 455.6 18.0362H488.803V86.1975H435.879C435.614 86.1975 435.342 86.1975 435.076 86.2042C385.942 86.3041 338.283 95.9748 293.39 114.972C249.792 133.404 210.651 159.801 177.032 193.413C143.42 227.024 117.031 266.174 98.5909 309.763C79.5002 354.9 69.8229 402.839 69.8229 452.252C69.8229 501.667 79.5002 549.605 98.5909 594.743C117.031 638.332 143.42 677.481 177.032 711.092C210.651 744.703 249.792 771.101 293.39 789.532C329.5 804.812 367.403 814.06 406.422 817.141C415.914 817.894 425.463 818.28 435.076 818.301Z" fill="#0048C9"/>
<path d="M724.748 68.0802L633.908 245.943C623.62 241.818 612.961 238.436 601.986 235.864V25.3709C645.533 33.4655 686.802 48.0509 724.748 68.0802Z" fill="#C01433"/>
<path d="M839.278 155.482L699.618 286.797C688.278 276.646 675.899 267.641 662.662 259.962L752.491 84.0691C784.449 104.07 813.618 128.11 839.278 155.482Z" fill="#D34E6B"/>
<path d="M913.635 263.559L740.501 335.516C734.898 326.483 728.666 317.887 721.861 309.777L860.303 179.603C881.119 205.327 899.065 233.479 913.635 263.559Z" fill="#E38497"/>
<path d="M953.651 399.243H767.392C764.376 387.051 760.357 375.252 755.429 363.941L926.508 292.843C939.832 326.455 949.08 362.128 953.651 399.243Z" fill="#F2C4CF"/>
<path d="M538.231 613.432H453.702C365.871 613.432 294.671 542.232 294.671 454.403C294.671 366.573 365.871 295.372 453.702 295.372H538.231C626.06 295.372 697.26 366.572 697.26 454.401C697.26 542.231 626.06 613.432 538.231 613.432Z" fill="#BE1238"/>
</g>
</g>
<defs>
<clipPath id="clip0_21_47">
<rect width="2066.67" height="1064" fill="white"/>
</clipPath>
</defs>
</svg>
