<svg width="2497" height="1016" viewBox="0 0 2497 1016" fill="none" xmlns="http://www.w3.org/2000/svg">
<g clip-path="url(#clip0_22_2)">
<path d="M1624.44 327.901V450.918H1827.65V573.022H1624.44V817.231H1499.91V206.494H1902.85V327.901H1624.44Z" fill="#1C4D87"/>
<path d="M1980.42 206.494H2035.04L2373.4 566.96V206.494H2497V817.231H2441.45L2104.02 457.731V817.231H1980.42V206.494Z" fill="#1C4D87"/>
<path d="M1178.88 817.07C1145.18 817.478 1111.72 811.445 1080.39 799.313C1051.7 788.29 1025.63 771.678 1003.75 750.492C982.344 729.193 965.5 703.952 954.206 676.242C941.995 645.995 935.9 613.732 936.258 581.231V206.494H1059.86V565.941C1059.58 584.67 1062.91 603.285 1069.66 620.823C1075.59 636.171 1084.57 650.227 1096.08 662.187C1106.85 673.254 1119.78 682.102 1134.12 688.206C1148.28 694.117 1163.51 697.165 1178.91 697.165C1194.31 697.165 1209.55 694.117 1223.7 688.206C1238.03 682.063 1250.98 673.22 1261.8 662.187C1273.29 650.224 1282.26 636.168 1288.17 620.823C1294.94 603.288 1298.28 584.674 1298.02 565.941V206.494H1422.39V581.392C1422.85 613.887 1416.81 646.16 1404.61 676.403C1393.35 704.258 1376.29 729.539 1354.51 750.653C1332.47 771.845 1306.25 788.454 1277.43 799.474C1246.08 811.55 1212.6 817.528 1178.88 817.07Z" fill="#1C4D87"/>
<path d="M98.0515 884.775C98.0779 884.551 98.052 884.323 97.9756 884.11C97.8991 883.896 97.774 883.702 97.61 883.542C97.4459 883.382 97.247 883.261 97.028 883.186C96.8089 883.112 96.5753 883.086 96.3448 883.112H86.9855C86.755 883.086 86.5214 883.112 86.3023 883.186C86.0833 883.261 85.8844 883.382 85.7203 883.542C85.5563 883.702 85.4315 883.896 85.3551 884.11C85.2786 884.323 85.2524 884.551 85.2788 884.775V961.278C85.2788 987.137 72.0109 1002.16 49.0531 1002.16C26.0954 1002.16 12.6618 987.137 12.6618 961.278V884.775C12.6882 884.551 12.6623 884.323 12.5859 884.11C12.5094 883.896 12.3843 883.702 12.2203 883.542C12.0562 883.382 11.8573 883.261 11.6383 883.186C11.4192 883.112 11.1857 883.086 10.9551 883.112H1.76112C1.5306 883.086 1.29704 883.112 1.07798 883.186C0.858916 883.261 0.660041 883.382 0.49598 883.542C0.331919 883.702 0.206832 883.896 0.130383 884.11C0.0539349 884.323 0.0280798 884.551 0.0544413 884.775V961.278C0.0544413 994.272 18.1675 1013.75 49.0531 1013.75C79.9388 1013.75 98.0515 994.272 98.0515 961.278V884.775ZM149.362 923.831C149.38 923.604 149.346 923.376 149.263 923.162C149.179 922.949 149.049 922.757 148.881 922.598C148.713 922.439 148.511 922.319 148.29 922.244C148.069 922.17 147.833 922.144 147.601 922.168H141.71C140.443 922.168 139.838 922.812 139.838 923.831V1010.21C139.838 1011.23 140.443 1011.87 141.71 1011.87H150.573C150.806 1011.91 151.045 1011.89 151.269 1011.82C151.493 1011.75 151.698 1011.63 151.864 1011.46C152.031 1011.3 152.156 1011.1 152.228 1010.88C152.3 1010.67 152.318 1010.43 152.28 1010.21V969.111C152.28 945.398 163.567 931.557 182.56 931.557C196.765 931.557 205.188 941.267 205.188 957.577V1010.21C205.17 1010.43 205.204 1010.66 205.288 1010.87C205.371 1011.09 205.501 1011.28 205.669 1011.44C205.837 1011.6 206.039 1011.72 206.26 1011.79C206.481 1011.87 206.717 1011.89 206.95 1011.87H215.978C216.209 1011.89 216.442 1011.87 216.661 1011.79C216.881 1011.72 217.079 1011.6 217.243 1011.44C217.408 1011.28 217.533 1011.09 217.609 1010.87C217.686 1010.66 217.711 1010.43 217.685 1010.21V956.557C217.685 934.025 204.747 920.183 183.661 920.183C177.649 919.949 171.674 921.21 166.299 923.848C160.925 926.485 156.328 930.412 152.941 935.259C151.84 936.761 150.574 936.761 150.133 935.259L149.362 923.831ZM267.179 878.552C265.476 878.498 263.795 878.943 262.354 879.829C260.913 880.714 259.776 882 259.091 883.52C258.406 885.04 258.204 886.726 258.51 888.359C258.817 889.992 259.618 891.499 260.811 892.685C262.004 893.87 263.534 894.681 265.203 895.012C266.873 895.343 268.607 895.179 270.18 894.542C271.753 893.904 273.095 892.823 274.032 891.436C274.969 890.049 275.459 888.42 275.438 886.76C275.555 885.668 275.423 884.564 275.052 883.527C274.681 882.49 274.08 881.546 273.291 880.762C272.502 879.978 271.545 879.373 270.489 878.991C269.432 878.609 268.302 878.459 267.179 878.552ZM275.438 923.831C275.464 923.607 275.438 923.379 275.361 923.166C275.285 922.952 275.16 922.758 274.996 922.599C274.832 922.439 274.633 922.317 274.414 922.242C274.195 922.168 273.961 922.143 273.731 922.168H253.966C253.733 922.144 253.498 922.17 253.277 922.244C253.056 922.319 252.854 922.439 252.686 922.598C252.517 922.757 252.387 922.949 252.304 923.162C252.221 923.376 252.187 923.604 252.204 923.831V931.611C252.187 931.838 252.221 932.066 252.304 932.28C252.387 932.493 252.517 932.685 252.686 932.844C252.854 933.003 253.056 933.123 253.277 933.198C253.498 933.272 253.733 933.298 253.966 933.274H262.83V1010.21C262.803 1010.43 262.83 1010.66 262.906 1010.87C262.983 1011.09 263.107 1011.28 263.271 1011.44C263.435 1011.6 263.634 1011.72 263.853 1011.79C264.072 1011.87 264.306 1011.89 264.536 1011.87H273.621C273.851 1011.89 274.085 1011.87 274.304 1011.79C274.523 1011.72 274.722 1011.6 274.886 1011.44C275.05 1011.28 275.175 1011.09 275.251 1010.87C275.327 1010.66 275.354 1010.43 275.327 1010.21L275.438 923.831ZM397.108 924.368C397.714 922.973 397.108 922.222 395.842 922.222H386.097C385.666 922.2 385.24 922.328 384.897 922.584C384.554 922.839 384.316 923.205 384.225 923.617L362.534 970.613C359.21 977.835 356.647 985.367 354.881 993.092C354.221 994.755 352.679 994.755 352.184 993.092C350.247 985.4 347.65 977.881 344.421 970.613L322.729 923.617C322.628 923.21 322.387 922.85 322.047 922.596C321.706 922.343 321.286 922.21 320.858 922.222H311.333C309.901 922.222 309.296 922.973 309.901 924.368L334.896 978.5C339.498 988.868 343.361 999.534 346.458 1010.42C346.471 1010.64 346.531 1010.86 346.634 1011.06C346.736 1011.26 346.879 1011.44 347.054 1011.59C347.229 1011.73 347.432 1011.84 347.651 1011.91C347.87 1011.98 348.101 1012 348.33 1011.98H358.625C359.102 1012.01 359.575 1011.87 359.951 1011.58C360.328 1011.29 360.581 1010.88 360.662 1010.42C363.804 999.575 367.591 988.917 372.003 978.5L397.108 924.368ZM493.729 1009.24C493.962 1009.23 494.189 1009.16 494.388 1009.04C494.588 1008.92 494.755 1008.76 494.875 1008.56C494.994 1008.36 495.062 1008.14 495.074 1007.92C495.085 1007.69 495.039 1007.46 494.94 1007.26L492.793 999.798C492.663 999.311 492.343 998.892 491.9 998.632C491.458 998.371 490.929 998.289 490.426 998.403L484.645 1000.12C478.88 1001.81 472.882 1002.62 466.862 1002.53C451.116 1002.53 440.656 993.414 438.179 977.588L475.616 971.686C492.903 968.896 501.381 960.956 501.381 948.081C501.381 930.591 488.223 920.398 466.532 920.398C440.491 920.398 424.58 938.37 424.58 966.965C424.58 995.56 440.326 1013.8 466.862 1013.8C473.894 1013.91 480.9 1012.93 487.618 1010.9L493.729 1009.24ZM437.298 967.287C437.958 943.252 448.694 931.557 466.532 931.557C480.736 931.557 488.994 937.619 488.994 948.134C488.994 955.27 483.819 959.562 473.689 961.225L437.298 967.287ZM584.294 922.007C584.294 920.827 583.798 920.344 582.532 920.344C576.154 920.342 569.893 922.009 564.402 925.171C558.911 928.332 554.391 932.872 551.316 938.317C550.27 939.819 549.169 939.39 548.838 937.834L547.462 923.831C547.434 923.371 547.222 922.94 546.873 922.63C546.523 922.319 546.063 922.154 545.59 922.168H539.644C538.378 922.168 537.772 922.812 537.772 923.831V1010.21C537.772 1011.23 538.378 1011.87 539.644 1011.87H548.508C548.743 1011.9 548.982 1011.89 549.209 1011.81C549.435 1011.74 549.641 1011.62 549.812 1011.46C549.982 1011.3 550.112 1011.1 550.192 1010.89C550.271 1010.67 550.298 1010.44 550.27 1010.21V980.967C550.27 949.368 562.106 932.683 582.532 931.557C583.798 931.557 584.294 930.967 584.294 929.894V922.007ZM659.663 974.047C668.527 976.622 672.601 980.753 672.601 987.727C672.601 996.847 664.343 1002.48 650.139 1002.48C641.447 1002.62 632.792 1001.33 624.538 998.672L619.529 997.008C619.325 996.913 619.101 996.867 618.875 996.872C618.649 996.877 618.428 996.935 618.229 997.039C618.031 997.144 617.86 997.293 617.732 997.474C617.604 997.655 617.522 997.863 617.492 998.081L614.684 1005.54C614.59 1005.77 614.549 1006.01 614.564 1006.26C614.579 1006.5 614.65 1006.74 614.771 1006.96C614.892 1007.17 615.06 1007.36 615.264 1007.5C615.468 1007.65 615.702 1007.75 615.95 1007.79L621.125 1009.45C630.475 1012.49 640.287 1013.94 650.139 1013.75C672.161 1013.75 685.098 1003.98 685.098 987.727C685.098 975.549 678.547 967.663 663.572 964.014L641.22 957.791C632.632 955.323 628.888 951.246 628.888 944.701C628.888 936.761 636.375 931.611 649.478 931.611C655.965 931.572 662.428 932.383 668.692 934.025L676.014 936.01C677.115 936.493 677.886 936.01 678.382 934.937L680.419 927.64C680.548 927.428 680.622 927.189 680.633 926.942C680.645 926.696 680.594 926.45 680.485 926.228C680.376 926.005 680.213 925.812 680.009 925.665C679.806 925.519 679.568 925.423 679.318 925.387L671.83 923.08C664.503 921.189 656.948 920.269 649.368 920.344C628.612 920.344 616.335 929.465 616.335 944.701C616.335 956.986 622.942 964.283 637.146 967.823L659.663 974.047ZM729.692 878.552C728.012 878.594 726.383 879.119 725.008 880.06C723.632 881.002 722.573 882.318 721.963 883.844C721.352 885.37 721.218 887.037 721.576 888.637C721.934 890.237 722.769 891.698 723.976 892.838C725.183 893.977 726.709 894.744 728.361 895.042C730.014 895.339 731.72 895.155 733.265 894.512C734.811 893.868 736.127 892.795 737.049 891.425C737.97 890.056 738.457 888.451 738.446 886.814C738.565 885.717 738.433 884.608 738.059 883.567C737.684 882.525 737.078 881.578 736.283 880.793C735.487 880.008 734.523 879.404 733.46 879.026C732.397 878.648 731.26 878.504 730.133 878.606L729.692 878.552ZM738.446 923.831C738.463 923.609 738.43 923.386 738.35 923.177C738.27 922.968 738.145 922.778 737.983 922.62C737.821 922.462 737.626 922.34 737.412 922.262C737.197 922.185 736.968 922.152 736.74 922.168H717.03C716.799 922.143 716.566 922.168 716.347 922.242C716.128 922.317 715.929 922.439 715.765 922.599C715.601 922.758 715.476 922.952 715.4 923.166C715.323 923.379 715.297 923.607 715.323 923.831V931.611C715.297 931.835 715.323 932.063 715.4 932.276C715.476 932.49 715.601 932.684 715.765 932.843C715.929 933.003 716.128 933.125 716.347 933.199C716.566 933.274 716.799 933.299 717.03 933.274H725.949V1010.21C725.911 1010.43 725.929 1010.67 726.001 1010.88C726.074 1011.1 726.198 1011.3 726.365 1011.46C726.532 1011.63 726.735 1011.75 726.96 1011.82C727.184 1011.89 727.423 1011.91 727.655 1011.87H736.74C736.968 1011.89 737.197 1011.85 737.412 1011.78C737.626 1011.7 737.821 1011.58 737.983 1011.42C738.145 1011.26 738.27 1011.07 738.35 1010.86C738.43 1010.65 738.463 1010.43 738.446 1010.21V923.831ZM856.373 881.449C856.373 880.215 855.878 879.625 854.611 879.625H845.913C845.659 879.589 845.399 879.611 845.155 879.69C844.911 879.769 844.689 879.902 844.508 880.08C844.326 880.257 844.189 880.473 844.108 880.71C844.027 880.948 844.004 881.201 844.041 881.449V927.64L838.095 924.904C831.223 921.737 823.67 920.228 816.073 920.505C790.142 920.505 774.562 937.995 774.562 967.072C774.562 996.15 789.372 1013.91 813.706 1013.91C819.518 1013.96 825.253 1012.61 830.401 1009.98C835.549 1007.35 839.951 1003.52 843.215 998.832C844.482 997.008 845.748 997.491 845.858 999.154L846.683 1010.42C846.69 1010.65 846.745 1010.88 846.843 1011.09C846.942 1011.3 847.083 1011.48 847.258 1011.64C847.432 1011.79 847.637 1011.91 847.86 1011.99C848.083 1012.07 848.32 1012.1 848.555 1012.08H854.446C854.681 1012.12 854.921 1012.1 855.147 1012.03C855.373 1011.96 855.58 1011.84 855.75 1011.68C855.921 1011.52 856.05 1011.32 856.13 1011.1C856.209 1010.88 856.236 1010.65 856.208 1010.42L856.373 881.449ZM844.041 939.39V965.248C844.041 986.386 834.517 1002.8 815.303 1002.8C797.85 1002.8 787.39 989.283 787.225 967.233C787.059 945.184 798.236 932.093 816.569 931.932C823.372 931.683 830.13 933.103 836.223 936.063L844.041 939.39ZM901.628 925.387C901.378 925.423 901.14 925.519 900.937 925.665C900.733 925.812 900.569 926.005 900.46 926.228C900.352 926.45 900.301 926.696 900.313 926.942C900.324 927.189 900.398 927.428 900.527 927.64L902.564 934.99C902.636 935.213 902.756 935.418 902.915 935.592C903.074 935.766 903.269 935.906 903.487 936.002C903.705 936.098 903.942 936.148 904.181 936.15C904.42 936.151 904.657 936.104 904.876 936.01L911.593 934.186C917.261 932.581 923.144 931.822 929.045 931.932C945.562 931.932 954.811 941.053 954.811 957.04V959.454H925.632C903.61 959.454 891.773 970.721 891.773 986.976C891.773 1003.23 903.169 1013.8 922.494 1013.8C936.698 1013.8 946.552 1009.67 953.104 1001.62C954.976 999.476 956.352 999.315 957.013 1001.62L957.454 1010.15C957.784 1011.17 958.224 1011.82 959.491 1011.82H965.436C965.667 1011.84 965.9 1011.82 966.119 1011.74C966.338 1011.67 966.537 1011.55 966.701 1011.39C966.865 1011.23 966.99 1011.03 967.067 1010.82C967.143 1010.6 967.169 1010.38 967.143 1010.15V956.557C967.143 933.864 952.443 920.183 929.045 920.183C922.135 920.105 915.252 921.027 908.62 922.919L901.628 925.387ZM954.811 969.916V972.384C954.811 991.858 943.414 1002.8 923.76 1002.8C911.428 1002.8 904.436 996.686 904.436 986.225C904.436 975.763 911.263 970.13 925.797 970.13L954.811 969.916ZM1083.75 881.449C1083.75 880.215 1083.25 879.625 1081.99 879.625H1073.29C1072.02 879.625 1071.53 880.215 1071.53 881.449V927.64L1065.47 924.904C1058.6 921.733 1051.05 920.223 1043.45 920.505C1017.57 920.505 1001.94 937.995 1001.94 967.072C1001.94 996.15 1016.75 1013.91 1041.14 1013.91C1046.94 1013.95 1052.66 1012.59 1057.8 1009.96C1062.94 1007.34 1067.33 1003.51 1070.59 998.832C1071.86 997.008 1073.12 997.491 1073.29 999.154L1074.28 1010.21C1074.29 1010.44 1074.34 1010.66 1074.44 1010.87C1074.54 1011.08 1074.68 1011.27 1074.85 1011.42C1075.03 1011.58 1075.23 1011.7 1075.46 1011.78C1075.68 1011.85 1075.92 1011.88 1076.15 1011.87H1082.04C1082.28 1011.9 1082.52 1011.89 1082.74 1011.81C1082.97 1011.74 1083.17 1011.62 1083.35 1011.46C1083.52 1011.3 1083.65 1011.1 1083.73 1010.89C1083.81 1010.67 1083.83 1010.44 1083.8 1010.21L1083.75 881.449ZM1071.53 939.39V965.248C1071.53 986.386 1061.89 1002.8 1042.68 1002.8C1025.23 1002.8 1014.77 989.283 1014.6 967.233C1014.43 945.184 1025.61 932.093 1044.11 931.932C1050.86 931.701 1057.56 933.121 1063.6 936.063L1071.53 939.39ZM1189.51 1009.13C1189.75 1009.13 1189.98 1009.07 1190.19 1008.95C1190.39 1008.84 1190.57 1008.67 1190.69 1008.47C1190.82 1008.28 1190.89 1008.05 1190.91 1007.82C1190.92 1007.59 1190.88 1007.36 1190.77 1007.15L1188.57 999.691C1188.45 999.208 1188.15 998.79 1187.71 998.528C1187.28 998.267 1186.76 998.183 1186.26 998.296L1180.48 1000.01C1174.66 1001.7 1168.61 1002.52 1162.53 1002.43C1146.95 1002.43 1136.49 993.307 1133.96 977.48L1171.45 971.579C1188.74 968.789 1197.16 960.849 1197.16 947.973C1197.16 930.484 1184.06 920.291 1162.37 920.291C1136.33 920.291 1120.41 938.263 1120.41 966.858C1120.41 995.453 1136.16 1013.69 1162.53 1013.69C1169.57 1013.83 1176.57 1012.85 1183.29 1010.8L1189.51 1009.13ZM1133.02 967.287C1133.68 943.252 1144.42 931.557 1162.2 931.557C1176.41 931.557 1184.72 937.619 1184.72 948.134C1184.72 955.27 1179.54 959.562 1169.41 961.225L1133.02 967.287Z" fill="#1C4D87"/>
<path d="M2474.04 971.633V972.974C2474.04 988.049 2465.01 995.935 2448.5 995.935C2438.48 995.935 2432.86 991.053 2432.86 983.167C2432.86 976.3 2437.71 971.633 2447.84 971.633H2474.04ZM2420.69 918.252C2420.38 918.306 2420.08 918.43 2419.83 918.612C2419.57 918.795 2419.36 919.033 2419.21 919.307C2419.06 919.581 2418.98 919.885 2418.97 920.195C2418.96 920.504 2419.02 920.813 2419.15 921.096L2423.67 936.171C2423.73 936.483 2423.86 936.778 2424.05 937.036C2424.24 937.295 2424.48 937.511 2424.76 937.669C2425.04 937.827 2425.36 937.923 2425.68 937.952C2426.01 937.98 2426.33 937.94 2426.64 937.834L2434.13 935.581C2439.51 934.15 2445.07 933.481 2450.64 933.596C2466.06 933.596 2474.32 940.302 2474.32 952.587V953.821H2448.11C2423.45 953.821 2410.18 966.107 2410.18 985.313C2410.18 1004.52 2423.17 1016 2446.24 1016C2451.54 1016.31 2456.84 1015.52 2461.8 1013.67C2466.76 1011.81 2471.25 1008.95 2474.98 1005.27C2477.62 1002.86 2478.89 1002.86 2480.1 1005.59L2481.86 1011.98C2482.01 1012.53 2482.36 1013.02 2482.84 1013.35C2483.33 1013.69 2483.91 1013.85 2484.5 1013.8H2494.96C2495.28 1013.85 2495.61 1013.82 2495.92 1013.72C2496.22 1013.62 2496.5 1013.45 2496.73 1013.23C2496.95 1013 2497.12 1012.73 2497.22 1012.42C2497.31 1012.12 2497.33 1011.8 2497.28 1011.49V951.836C2497.28 927.211 2479.93 912.887 2451.69 912.887C2444 912.835 2436.34 913.865 2428.95 915.945L2420.69 918.252Z" fill="#1C4D87"/>
<path d="M2291.48 917.018C2291.45 916.729 2291.37 916.448 2291.23 916.191C2291.09 915.934 2290.9 915.707 2290.67 915.522C2290.44 915.338 2290.17 915.199 2289.89 915.116C2289.6 915.032 2289.3 915.004 2289 915.033H2278.54C2276.95 915.033 2276.18 915.784 2276.18 917.179V1011.44C2276.13 1011.75 2276.16 1012.07 2276.26 1012.37C2276.37 1012.67 2276.54 1012.95 2276.77 1013.17C2277 1013.39 2277.28 1013.56 2277.59 1013.66C2277.89 1013.76 2278.22 1013.79 2278.54 1013.75H2297.1C2297.41 1013.77 2297.73 1013.73 2298.03 1013.62C2298.32 1013.51 2298.59 1013.34 2298.81 1013.12C2299.03 1012.9 2299.2 1012.64 2299.3 1012.35C2299.41 1012.06 2299.44 1011.75 2299.41 1011.44V964.015C2299.41 944.218 2308.33 933.274 2323.8 933.274C2335.19 933.274 2342.02 941.053 2342.02 953.821V1011.44C2342.02 1013 2342.85 1013.75 2344.22 1013.75H2362.94C2364.37 1013.75 2365.14 1013 2365.14 1011.44V951.192C2365.14 927.211 2350.78 912.726 2326.61 912.726C2321.18 912.653 2315.8 913.733 2310.85 915.892C2305.9 918.051 2301.48 921.236 2297.92 925.226C2295.56 927.211 2294.34 927.48 2293.08 925.226L2291.48 917.018Z" fill="#1C4D87"/>
<path d="M2216.28 971.632V972.974C2216.28 988.049 2207.36 995.935 2190.84 995.935C2180.82 995.935 2175.21 991.053 2175.21 983.167C2175.21 976.3 2179.89 971.632 2190.18 971.632H2216.28ZM2163.04 918.252C2162.73 918.312 2162.43 918.437 2162.17 918.617C2161.91 918.798 2161.69 919.03 2161.53 919.299C2161.37 919.568 2161.27 919.867 2161.23 920.177C2161.2 920.486 2161.23 920.799 2161.33 921.095L2166.01 936.171C2166.06 936.487 2166.19 936.788 2166.37 937.052C2166.56 937.315 2166.81 937.535 2167.09 937.695C2167.38 937.854 2167.69 937.949 2168.02 937.974C2168.35 937.998 2168.68 937.95 2168.98 937.834L2176.47 935.58C2181.85 934.138 2187.41 933.47 2192.99 933.595C2208.4 933.595 2216.55 940.302 2216.55 952.587V953.821H2190.46C2165.79 953.821 2152.41 966.106 2152.41 985.313C2152.41 1004.52 2165.35 1016 2188.58 1016C2193.86 1016.33 2199.14 1015.54 2204.08 1013.69C2209.01 1011.83 2213.47 1008.96 2217.16 1005.27C2219.97 1002.86 2221.23 1002.86 2222.66 1005.59L2224.43 1011.98C2224.56 1012.54 2224.9 1013.05 2225.39 1013.38C2225.88 1013.72 2226.47 1013.87 2227.07 1013.8H2237.53C2237.84 1013.83 2238.16 1013.78 2238.46 1013.68C2238.75 1013.57 2239.02 1013.4 2239.24 1013.18C2239.46 1012.96 2239.63 1012.69 2239.73 1012.4C2239.84 1012.11 2239.87 1011.8 2239.84 1011.49V951.836C2239.84 927.211 2222.55 912.887 2194.26 912.887C2186.56 912.824 2178.9 913.854 2171.52 915.945L2163.04 918.252Z" fill="#1C4D87"/>
<path d="M2123.4 1010.69C2123.73 1010.65 2124.05 1010.53 2124.32 1010.35C2124.6 1010.18 2124.83 1009.94 2124.99 1009.65C2125.16 1009.37 2125.26 1009.06 2125.28 1008.74C2125.29 1008.41 2125.24 1008.09 2125.11 1007.79L2120.26 992.609C2120.17 992.315 2120.03 992.042 2119.83 991.804C2119.63 991.566 2119.39 991.369 2119.11 991.224C2118.83 991.08 2118.53 990.99 2118.22 990.961C2117.9 990.931 2117.59 990.963 2117.29 991.053L2110.46 993.199C2105.42 994.541 2100.22 995.262 2094.99 995.345C2077.21 995.345 2068.29 983.757 2068.29 964.015C2068.29 944.272 2076.88 933.274 2095.49 933.274C2100.21 933.34 2104.89 934.118 2109.36 935.581L2116.52 937.405C2116.78 937.525 2117.07 937.583 2117.36 937.574C2117.66 937.565 2117.94 937.49 2118.2 937.355C2118.46 937.219 2118.68 937.027 2118.84 936.793C2119.01 936.56 2119.12 936.292 2119.16 936.01L2124.01 920.666C2124.5 919.271 2124.01 918.252 2122.3 917.769L2113.44 915.355C2107.6 913.714 2101.56 912.883 2095.49 912.887C2062.45 912.887 2045.39 932.684 2045.39 964.283C2045.39 995.882 2062.84 1016 2094.94 1016C2101.49 1015.91 2108.01 1014.99 2114.32 1013.26L2123.4 1010.69Z" fill="#1C4D87"/>
<path d="M1984.83 975.281C1991.71 977.212 1994.63 980.27 1994.63 985.313C1994.63 991.536 1988.74 995.345 1978.55 995.345C1969.51 995.268 1960.51 994.133 1951.74 991.965L1944.25 989.873C1943.98 989.784 1943.69 989.753 1943.4 989.782C1943.11 989.811 1942.83 989.9 1942.58 990.042C1942.33 990.184 1942.12 990.376 1941.95 990.606C1941.78 990.836 1941.67 991.098 1941.61 991.375L1936.76 1006.56C1936.63 1006.86 1936.58 1007.18 1936.6 1007.5C1936.62 1007.83 1936.71 1008.14 1936.88 1008.42C1937.04 1008.7 1937.27 1008.94 1937.55 1009.12C1937.83 1009.3 1938.14 1009.41 1938.47 1009.45L1946.56 1011.76C1956.99 1014.56 1967.74 1015.98 1978.55 1016C2003.22 1016 2017.75 1004.3 2017.75 985.313C2017.75 970.559 2009.66 961.439 1991.54 956.879L1970.62 951.514C1964.07 949.69 1961.26 946.793 1961.26 942.072C1961.26 937.351 1966.77 933.113 1976.4 933.113C1983.24 933.13 1990.04 933.958 1996.66 935.58L2005.91 937.995C2006.2 938.112 2006.52 938.164 2006.83 938.15C2007.15 938.135 2007.46 938.053 2007.73 937.91C2008.01 937.767 2008.25 937.565 2008.44 937.32C2008.63 937.075 2008.77 936.793 2008.83 936.493L2013.24 921.095C2013.34 920.796 2013.37 920.48 2013.34 920.167C2013.3 919.854 2013.2 919.551 2013.04 919.278C2012.88 919.005 2012.66 918.768 2012.4 918.582C2012.14 918.396 2011.84 918.265 2011.53 918.198L2002.28 916.106C1993.84 913.921 1985.14 912.785 1976.4 912.726C1952.18 912.726 1937.87 923.831 1937.87 942.072C1937.87 956.718 1946.01 965.516 1963.47 969.755L1984.83 975.281Z" fill="#1C4D87"/>
<path d="M1902.08 917.179C1902.11 916.881 1902.07 916.581 1901.96 916.3C1901.85 916.02 1901.68 915.768 1901.46 915.561C1901.23 915.355 1900.97 915.2 1900.67 915.109C1900.38 915.017 1900.07 914.991 1899.77 915.033H1868.72C1868.41 914.993 1868.1 915.019 1867.8 915.11C1867.51 915.202 1867.24 915.355 1867.01 915.561C1866.79 915.766 1866.61 916.017 1866.49 916.297C1866.38 916.577 1866.33 916.878 1866.35 917.179V933.005C1866.34 933.302 1866.39 933.597 1866.51 933.87C1866.63 934.143 1866.81 934.388 1867.03 934.587C1867.26 934.786 1867.53 934.935 1867.82 935.023C1868.11 935.111 1868.42 935.137 1868.72 935.098H1879.01V1011.44C1879.01 1013 1879.78 1013.75 1881.21 1013.75H1899.77C1900.09 1013.79 1900.41 1013.77 1900.72 1013.67C1901.03 1013.57 1901.31 1013.4 1901.53 1013.17C1901.76 1012.95 1901.92 1012.67 1902.02 1012.37C1902.12 1012.07 1902.14 1011.75 1902.08 1011.44V917.179ZM1888.04 866.052C1885.23 866.009 1882.47 866.784 1880.11 868.278C1877.75 869.771 1875.9 871.916 1874.8 874.438C1873.7 876.959 1873.4 879.744 1873.93 882.435C1874.46 885.127 1875.8 887.603 1877.78 889.549C1879.76 891.494 1882.29 892.82 1885.05 893.358C1887.8 893.895 1890.66 893.62 1893.26 892.566C1895.86 891.513 1898.07 889.729 1899.62 887.443C1901.17 885.157 1901.99 882.473 1901.97 879.732C1902.15 877.902 1901.91 876.057 1901.27 874.326C1900.64 872.596 1899.62 871.022 1898.29 869.718C1896.96 868.413 1895.35 867.408 1893.58 866.775C1891.81 866.141 1889.92 865.894 1888.04 866.052Z" fill="#1C4D87"/>
<path d="M1835.79 1010.69C1836.11 1010.61 1836.4 1010.48 1836.65 1010.29C1836.91 1010.1 1837.13 1009.87 1837.29 1009.6C1837.44 1009.33 1837.55 1009.03 1837.58 1008.72C1837.62 1008.41 1837.59 1008.09 1837.5 1007.79L1832.66 992.609C1832.47 992.024 1832.05 991.534 1831.49 991.244C1830.94 990.953 1830.29 990.885 1829.68 991.053L1822.8 993.199C1817.77 994.533 1812.6 995.254 1807.39 995.345C1789.6 995.345 1780.69 983.757 1780.69 964.015C1780.69 944.272 1789.11 933.274 1807.83 933.274C1812.56 933.34 1817.26 934.118 1821.76 935.581L1828.91 937.405C1829.18 937.514 1829.47 937.563 1829.75 937.549C1830.04 937.535 1830.32 937.459 1830.58 937.325C1830.83 937.191 1831.05 937.003 1831.22 936.776C1831.39 936.548 1831.5 936.286 1831.56 936.01L1836.4 920.666C1836.9 919.271 1836.4 918.252 1834.69 917.769L1825.77 915.355C1819.94 913.721 1813.9 912.89 1807.83 912.887C1774.79 912.887 1757.62 932.684 1757.62 964.283C1757.62 995.882 1775.23 1016 1807.17 1016C1813.72 1015.91 1820.24 1014.99 1826.55 1013.26L1835.79 1010.69Z" fill="#1C4D87"/>
<path d="M1651.64 917.018C1651.61 916.729 1651.52 916.448 1651.38 916.191C1651.24 915.934 1651.05 915.707 1650.82 915.522C1650.59 915.338 1650.33 915.199 1650.04 915.116C1649.76 915.032 1649.46 915.004 1649.16 915.033H1638.7C1637.1 915.033 1636.33 915.784 1636.33 917.179V1011.44C1636.29 1011.75 1636.32 1012.07 1636.42 1012.37C1636.52 1012.67 1636.69 1012.95 1636.92 1013.17C1637.15 1013.39 1637.43 1013.56 1637.74 1013.66C1638.05 1013.76 1638.38 1013.79 1638.7 1013.75H1657.25C1657.57 1013.77 1657.88 1013.73 1658.18 1013.62C1658.48 1013.51 1658.75 1013.34 1658.97 1013.12C1659.19 1012.9 1659.35 1012.64 1659.46 1012.35C1659.56 1012.06 1659.6 1011.75 1659.57 1011.44V964.015C1659.57 944.218 1668.48 933.274 1683.95 933.274C1695.35 933.274 1702.18 941.053 1702.18 953.821V1011.44C1702.18 1013 1702.95 1013.75 1704.38 1013.75H1723.1C1724.53 1013.75 1725.3 1013 1725.3 1011.44V951.192C1725.3 927.211 1710.93 912.726 1686.76 912.726C1681.34 912.653 1675.96 913.733 1671 915.892C1666.05 918.051 1661.64 921.236 1658.08 925.226C1655.71 927.211 1654.5 927.48 1653.23 925.226L1651.64 917.018Z" fill="#1C4D87"/>
<path d="M1576.43 971.632V972.974C1576.43 988.049 1567.51 995.935 1551 995.935C1540.98 995.935 1535.36 991.053 1535.36 983.167C1535.36 976.3 1540.04 971.632 1550.34 971.632H1576.43ZM1523.19 918.252C1522.88 918.312 1522.58 918.437 1522.32 918.617C1522.06 918.798 1521.85 919.03 1521.68 919.299C1521.52 919.568 1521.42 919.867 1521.39 920.177C1521.35 920.486 1521.39 920.799 1521.49 921.095L1526.17 936.171C1526.21 936.476 1526.31 936.77 1526.49 937.029C1526.66 937.288 1526.89 937.505 1527.16 937.666C1527.43 937.826 1527.73 937.924 1528.05 937.953C1528.36 937.982 1528.68 937.941 1528.98 937.834L1536.63 935.58C1541.92 934.164 1547.39 933.496 1552.87 933.595C1568.28 933.595 1576.43 940.302 1576.43 952.587V953.821H1550.34C1525.67 953.821 1512.29 966.106 1512.29 985.313C1512.29 1004.52 1525.23 1016 1548.46 1016C1553.74 1016.33 1559.03 1015.54 1563.96 1013.69C1568.89 1011.83 1573.35 1008.96 1577.04 1005.27C1579.85 1002.86 1581.11 1002.86 1582.54 1005.59L1584.25 1011.98C1584.4 1012.54 1584.76 1013.04 1585.25 1013.37C1585.75 1013.71 1586.35 1013.86 1586.95 1013.8H1597.3C1597.61 1013.83 1597.93 1013.78 1598.23 1013.68C1598.52 1013.57 1598.79 1013.4 1599.01 1013.18C1599.23 1012.96 1599.4 1012.69 1599.5 1012.4C1599.61 1012.11 1599.64 1011.8 1599.61 1011.49V951.836C1599.61 927.211 1582.16 912.887 1554.03 912.887C1546.33 912.82 1538.67 913.85 1531.29 915.945L1523.19 918.252Z" fill="#1C4D87"/>
<path d="M1488.84 915.194C1488.86 914.89 1488.82 914.584 1488.71 914.297C1488.61 914.01 1488.44 913.749 1488.22 913.531C1488 913.312 1487.74 913.142 1487.45 913.031C1487.15 912.92 1486.84 912.871 1486.53 912.887C1480.09 912.704 1473.7 914.078 1467.93 916.887C1462.17 919.695 1457.21 923.85 1453.5 928.982C1451.62 930.967 1450.69 930.645 1449.42 928.338L1446.01 916.803C1445.86 916.246 1445.51 915.759 1445.02 915.426C1444.54 915.093 1443.95 914.935 1443.37 914.979H1432.91C1431.31 914.979 1430.54 915.73 1430.54 917.125V1011.39C1430.49 1011.7 1430.52 1012.02 1430.62 1012.32C1430.73 1012.62 1430.9 1012.89 1431.13 1013.12C1431.36 1013.34 1431.64 1013.51 1431.95 1013.61C1432.26 1013.71 1432.58 1013.74 1432.91 1013.69H1451.46C1451.78 1013.73 1452.1 1013.69 1452.4 1013.59C1452.71 1013.48 1452.98 1013.31 1453.21 1013.09C1453.44 1012.87 1453.61 1012.6 1453.72 1012.31C1453.82 1012.01 1453.86 1011.7 1453.83 1011.39V987.191C1453.83 949.636 1463.79 934.293 1486.86 933.22C1487.17 933.254 1487.49 933.219 1487.78 933.118C1488.08 933.017 1488.35 932.852 1488.57 932.636C1488.79 932.419 1488.96 932.157 1489.07 931.868C1489.17 931.579 1489.21 931.271 1489.17 930.967L1488.84 915.194Z" fill="#1C4D87"/>
<path d="M1324.83 936.171V892.179H1393.6C1394.21 892.241 1394.83 892.093 1395.34 891.76C1395.85 891.427 1396.23 890.93 1396.4 890.355L1400.92 874.26C1401.04 873.961 1401.08 873.636 1401.03 873.318C1400.98 873 1400.84 872.701 1400.63 872.45C1400.43 872.2 1400.16 872.007 1399.85 871.891C1399.54 871.776 1399.21 871.742 1398.88 871.792H1303.64C1303.32 871.758 1302.99 871.795 1302.69 871.899C1302.39 872.002 1302.11 872.171 1301.89 872.393C1301.66 872.614 1301.49 872.882 1301.38 873.178C1301.27 873.473 1301.23 873.788 1301.27 874.099V1011.87C1301.22 1012.18 1301.25 1012.5 1301.36 1012.8C1301.46 1013.1 1301.63 1013.38 1301.86 1013.6C1302.09 1013.82 1302.37 1013.99 1302.68 1014.09C1302.99 1014.19 1303.32 1014.22 1303.64 1014.18H1322.63C1324.06 1014.18 1324.83 1013.42 1324.83 1011.87V956.557H1384.46C1385.83 956.557 1386.66 955.806 1386.66 954.25V938.156C1386.66 936.6 1385.83 935.849 1384.46 935.849L1324.83 936.171Z" fill="#1C4D87"/>
<path fill-rule="evenodd" clip-rule="evenodd" d="M504.135 552.636L590.405 407.087L504.135 261.591H331.649L245.378 407.087L331.649 552.636H504.135Z" fill="#C6EAFA"/>
<path fill-rule="evenodd" clip-rule="evenodd" d="M52.4672 604.675C19.6639 547.05 1.70474 482.527 0.132062 416.647C-1.44061 350.768 13.4202 285.501 43.4381 226.451L238.496 342.011L224.127 371.196L214.162 354.35L169.073 380.799L237.12 477.367L52.4672 604.675Z" fill="#00A3E4"/>
<path fill-rule="evenodd" clip-rule="evenodd" d="M410.817 814.227C343.213 813.058 276.907 795.941 217.576 764.342C158.244 732.743 107.655 687.603 70.1396 632.787L270.483 525.865L289.367 552.689H269.272L270.373 603.924L390.337 594.804L410.817 814.227Z" fill="#1C4D87"/>
<path fill-rule="evenodd" clip-rule="evenodd" d="M776.159 616.531C741.393 673.085 693.041 720.556 635.267 754.855C577.492 789.154 512.027 809.253 444.511 813.422L449.631 590.941L482.664 588.366L472.699 605.426L518.725 630.212L570.696 524.363L776.159 616.531Z" fill="#1C4D87"/>
<path fill-rule="evenodd" clip-rule="evenodd" d="M783.317 209.391C816.136 267.045 834.089 331.605 835.633 397.518C837.177 463.431 822.265 528.723 792.18 587.776L597.287 472.216L611.491 442.817L621.621 459.877L666.601 433.428L598.719 336.539L783.317 209.391Z" fill="#91D8F6"/>
<path fill-rule="evenodd" clip-rule="evenodd" d="M425.021 0C492.685 1.06704 559.068 18.1381 618.461 49.7443C677.854 81.3505 728.477 126.545 765.974 181.44L565.741 288.201L546.857 261.377H566.952L565.906 210.088L445.887 219.102L425.021 0Z" fill="#91D8F6"/>
<path fill-rule="evenodd" clip-rule="evenodd" d="M59.6792 197.535C94.4671 141.02 142.82 93.5852 200.58 59.3074C258.341 25.0295 323.781 4.93481 391.273 0.751038L385.767 223.071L352.735 225.7L362.699 208.801L316.839 184.015L264.978 289.703L59.6792 197.535Z" fill="#00A3E4"/>
</g>
<defs>
<clipPath id="clip0_22_2">
<rect width="2497" height="1016" fill="white"/>
</clipPath>
</defs>
</svg>
